# Rhino

g RoofSurface
o SolarPanelSurface_31|parent=RoofSurface_02
v 1.6852235 3.6051311 -11.48226
v 1.108053 2.8980243 -11.073757
v 2.6384442 3.6051311 -10.135459
v 2.0612736 2.8980243 -9.7269573
vt 0 0
vt 0 1
vt 1 0
vt 1 1
vn -0.57717055 0.70710677 0.40850231
vn -0.57717055 0.70710677 0.40850231
vn -0.57717055 0.70710677 0.40850231
vn -0.57717055 0.70710677 0.40850231
f 4/4/4 3/3/3 1/1/1 2/2/2
o SolarPanelSurface_32|parent=RoofSurface_02
v 2.6384442 3.6051311 -10.135459
v 2.0612736 2.8980243 -9.7269573
v 3.591665 3.6051311 -8.7886591
v 3.0144944 2.8980243 -8.3801575
vt 0 0
vt 0 1
vt 1 0
vt 1 1
vn -0.57717055 0.70710677 0.40850231
vn -0.57717055 0.70710677 0.40850231
vn -0.57717055 0.70710677 0.40850231
vn -0.57717055 0.70710677 0.40850231
f 8/8/8 7/7/7 5/5/5 6/6/6
o SolarPanelSurface_33|parent=RoofSurface_02
v 3.591665 3.6051311 -8.7886591
v 3.0144944 2.8980243 -8.3801575
v 4.0682755 3.6051311 -8.1152592
v 3.4911046 2.8980243 -7.7067571
v 4.5448856 3.6051311 -7.4418592
v 3.967715 2.8980243 -7.0333571
vt 0 0
vt 0 1
vt 0.5 0
vt 0.5 1
vt 1 0
vt 1 1
vn -0.57717055 0.70710677 0.40850231
vn -0.57717055 0.70710677 0.40850231
vn -0.57717055 0.70710677 0.40850231
vn -0.57717055 0.70710677 0.40850231
vn -0.57717055 0.70710677 0.40850231
vn -0.57717055 0.70710677 0.40850231
f 12/12/12 11/11/11 9/9/9 10/10/10
f 14/14/14 13/13/13 11/11/11 12/12/12
o SolarPanelSurface_34|parent=RoofSurface_02
v 4.5448856 3.6051311 -7.4418592
v 3.967715 2.8980243 -7.0333571
v 5.4981065 3.6051311 -6.0950594
v 4.9209356 2.8980243 -5.6865568
vt 0 0
vt 0 1
vt 1 0
vt 1 1
vn -0.57717055 0.70710677 0.40850231
vn -0.57717055 0.70710677 0.40850231
vn -0.57717055 0.70710677 0.40850231
vn -0.57717055 0.70710677 0.40850231
f 18/18/18 17/17/17 15/15/15 16/16/16
o SolarPanelSurface_35|parent=RoofSurface_02
v 5.4981065 3.6051311 -6.0950594
v 4.9209356 2.8980243 -5.6865568
v 6.4513268 3.6051311 -4.7482595
v 5.8741565 2.8980243 -4.339757
vt 0 0
vt 0 1
vt 1 0
vt 1 1
vn -0.57717055 0.70710677 0.40850231
vn -0.57717055 0.70710677 0.40850231
vn -0.57717055 0.70710677 0.40850231
vn -0.57717055 0.70710677 0.40850231
f 22/22/22 21/21/21 19/19/19 20/20/20
o SolarPanelSurface_36|parent=RoofSurface_02
v 6.4513268 3.6051311 -4.7482595
v 5.8741565 2.8980243 -4.339757
v 7.4045477 3.6051311 -3.4014592
v 6.8273773 2.8980243 -2.9929571
vt 0 0
vt 0 1
vt 1 0
vt 1 1
vn -0.57717055 0.70710677 0.40850231
vn -0.57717055 0.70710677 0.40850231
vn -0.57717055 0.70710677 0.40850231
vn -0.57717055 0.70710677 0.40850231
f 26/26/26 25/25/25 23/23/23 24/24/24
o SolarPanelSurface_25|parent=RoofSurface_02
v 2.262394 4.3122377 -11.890761
v 1.6852235 3.6051311 -11.48226
v 3.2156148 4.3122377 -10.543962
v 2.6384442 3.6051311 -10.135459
vt 0 0
vt 0 1
vt 1 0
vt 1 1
vn -0.57717055 0.70710677 0.40850231
vn -0.57717055 0.70710677 0.40850231
vn -0.57717055 0.70710677 0.40850231
vn -0.57717055 0.70710677 0.40850231
f 30/30/30 29/29/29 27/27/27 28/28/28
o SolarPanelSurface_26|parent=RoofSurface_02
v 3.2156148 4.3122377 -10.543962
v 2.6384442 3.6051311 -10.135459
v 4.1688356 4.3122377 -9.1971617
v 3.591665 3.6051311 -8.7886591
vt 0 0
vt 0 1
vt 1 0
vt 1 1
vn -0.57717055 0.70710677 0.40850231
vn -0.57717055 0.70710677 0.40850231
vn -0.57717055 0.70710677 0.40850231
vn -0.57717055 0.70710677 0.40850231
f 34/34/34 33/33/33 31/31/31 32/32/32
o SolarPanelSurface_27|parent=RoofSurface_02
v 4.1688356 4.3122377 -9.1971617
v 3.591665 3.6051311 -8.7886591
v 5.122056 4.3122377 -7.8503618
v 4.5448856 3.6051311 -7.4418592
vt 0 0
vt 0 1
vt 1 0
vt 1 1
vn -0.57717055 0.70710677 0.40850231
vn -0.57717055 0.70710677 0.40850231
vn -0.57717055 0.70710677 0.40850231
vn -0.57717055 0.70710677 0.40850231
f 38/38/38 37/37/37 35/35/35 36/36/36
o SolarPanelSurface_28|parent=RoofSurface_02
v 5.122056 4.3122377 -7.8503618
v 4.5448856 3.6051311 -7.4418592
v 6.0752769 4.3122377 -6.5035615
v 5.4981065 3.6051311 -6.0950594
vt 0 0
vt 0 1
vt 1 0
vt 1 1
vn -0.57717055 0.70710677 0.40850231
vn -0.57717055 0.70710677 0.40850231
vn -0.57717055 0.70710677 0.40850231
vn -0.57717055 0.70710677 0.40850231
f 42/42/42 41/41/41 39/39/39 40/40/40
o SolarPanelSurface_29|parent=RoofSurface_02
v 6.0752769 4.3122377 -6.5035615
v 5.4981065 3.6051311 -6.0950594
v 7.0284977 4.3122377 -5.1567616
v 6.4513268 3.6051311 -4.7482595
vt 0 0
vt 0 1
vt 1 0
vt 1 1
vn -0.57717055 0.70710677 0.40850231
vn -0.57717055 0.70710677 0.40850231
vn -0.57717055 0.70710677 0.40850231
vn -0.57717055 0.70710677 0.40850231
f 46/46/46 45/45/45 43/43/43 44/44/44
o SolarPanelSurface_30|parent=RoofSurface_02
v 7.0284977 4.3122377 -5.1567616
v 6.4513268 3.6051311 -4.7482595
v 7.9817185 4.3122377 -3.8099616
v 7.4045477 3.6051311 -3.4014592
vt 0 0
vt 0 1
vt 1 0
vt 1 1
vn -0.57717055 0.70710677 0.40850231
vn -0.57717055 0.70710677 0.40850231
vn -0.57717055 0.70710677 0.40850231
vn -0.57717055 0.70710677 0.40850231
f 50/50/50 49/49/49 47/47/47 48/48/48
o SolarPanelSurface_19|parent=RoofSurface_02
v 2.8395646 5.0193448 -12.299264
v 2.262394 4.3122377 -11.890761
v 3.7927854 5.0193448 -10.952464
v 3.2156148 4.3122377 -10.543962
vt 0 0
vt 0 1
vt 1 0
vt 1 1
vn -0.57717055 0.70710677 0.40850231
vn -0.57717055 0.70710677 0.40850231
vn -0.57717055 0.70710677 0.40850231
vn -0.57717055 0.70710677 0.40850231
f 54/54/54 53/53/53 51/51/51 52/52/52
o SolarPanelSurface_20|parent=RoofSurface_02
v 3.7927854 5.0193448 -10.952464
v 3.2156148 4.3122377 -10.543962
v 4.746006 5.0193448 -9.6056643
v 4.1688356 4.3122377 -9.1971617
vt 0 0
vt 0 1
vt 1 0
vt 1 1
vn -0.57717055 0.70710677 0.40850231
vn -0.57717055 0.70710677 0.40850231
vn -0.57717055 0.70710677 0.40850231
vn -0.57717055 0.70710677 0.40850231
f 58/58/58 57/57/57 55/55/55 56/56/56
o SolarPanelSurface_21|parent=RoofSurface_02
v 4.746006 5.0193448 -9.6056643
v 4.1688356 4.3122377 -9.1971617
v 5.6992269 5.0193448 -8.2588644
v 5.122056 4.3122377 -7.8503618
vt 0 0
vt 0 1
vt 1 0
vt 1 1
vn -0.57717055 0.70710677 0.40850231
vn -0.57717055 0.70710677 0.40850231
vn -0.57717055 0.70710677 0.40850231
vn -0.57717055 0.70710677 0.40850231
f 62/62/62 61/61/61 59/59/59 60/60/60
o SolarPanelSurface_22|parent=RoofSurface_02
v 5.6992269 5.0193448 -8.2588644
v 5.122056 4.3122377 -7.8503618
v 6.6524472 5.0193448 -6.9120641
v 6.0752769 4.3122377 -6.5035615
vt 0 0
vt 0 1
vt 1 0
vt 1 1
vn -0.57717055 0.70710677 0.40850231
vn -0.57717055 0.70710677 0.40850231
vn -0.57717055 0.70710677 0.40850231
vn -0.57717055 0.70710677 0.40850231
f 66/66/66 65/65/65 63/63/63 64/64/64
o SolarPanelSurface_23|parent=RoofSurface_02
v 6.6524472 5.0193448 -6.9120641
v 6.0752769 4.3122377 -6.5035615
v 7.6056681 5.0193448 -5.5652637
v 7.0284977 4.3122377 -5.1567616
vt 0 0
vt 0 1
vt 1 0
vt 1 1
vn -0.57717055 0.70710677 0.40850231
vn -0.57717055 0.70710677 0.40850231
vn -0.57717055 0.70710677 0.40850231
vn -0.57717055 0.70710677 0.40850231
f 70/70/70 69/69/69 67/67/67 68/68/68
o SolarPanelSurface_24|parent=RoofSurface_02
v 7.6056681 5.0193448 -5.5652637
v 7.0284977 4.3122377 -5.1567616
v 8.0822783 5.0193448 -4.8918638
v 7.5051079 4.3122377 -4.4833617
v 8.5588884 5.0193448 -4.2184639
v 7.9817185 4.3122377 -3.8099616
vt 0 0
vt 0 1
vt 0.5 0
vt 0.5 1
vt 1 0
vt 1 1
vn -0.57717055 0.70710677 0.40850231
vn -0.57717055 0.70710677 0.40850231
vn -0.57717055 0.70710677 0.40850231
vn -0.57717055 0.70710677 0.40850231
vn -0.57717055 0.70710677 0.40850231
vn -0.57717055 0.70710677 0.40850231
f 74/74/74 73/73/73 71/71/71 72/72/72
f 76/76/76 75/75/75 73/73/73 74/74/74
o SolarPanelSurface_13|parent=RoofSurface_02
v 3.4167352 5.7264514 -12.707767
v 2.8395646 5.0193448 -12.299264
v 4.369956 5.7264514 -11.360967
v 3.7927854 5.0193448 -10.952464
vt 0 0
vt 0 1
vt 1 0
vt 1 1
vn -0.57717055 0.70710677 0.40850231
vn -0.57717055 0.70710677 0.40850231
vn -0.57717055 0.70710677 0.40850231
vn -0.57717055 0.70710677 0.40850231
f 80/80/80 79/79/79 77/77/77 78/78/78
o SolarPanelSurface_14|parent=RoofSurface_02
v 4.369956 5.7264514 -11.360967
v 3.7927854 5.0193448 -10.952464
v 5.3231764 5.7264514 -10.014166
v 4.746006 5.0193448 -9.6056643
vt 0 0
vt 0 1
vt 1 0
vt 1 1
vn -0.57717055 0.70710677 0.40850231
vn -0.57717055 0.70710677 0.40850231
vn -0.57717055 0.70710677 0.40850231
vn -0.57717055 0.70710677 0.40850231
f 84/84/84 83/83/83 81/81/81 82/82/82
o SolarPanelSurface_15|parent=RoofSurface_02
v 5.3231764 5.7264514 -10.014166
v 4.746006 5.0193448 -9.6056643
v 6.2763972 5.7264514 -8.667366
v 5.6992269 5.0193448 -8.2588644
vt 0 0
vt 0 1
vt 1 0
vt 1 1
vn -0.57717055 0.70710677 0.40850231
vn -0.57717055 0.70710677 0.40850231
vn -0.57717055 0.70710677 0.40850231
vn -0.57717055 0.70710677 0.40850231
f 88/88/88 87/87/87 85/85/85 86/86/86
o SolarPanelSurface_16|parent=RoofSurface_02
v 6.2763972 5.7264514 -8.667366
v 5.6992269 5.0193448 -8.2588644
v 7.2296181 5.7264514 -7.3205662
v 6.6524472 5.0193448 -6.9120641
vt 0 0
vt 0 1
vt 1 0
vt 1 1
vn -0.57717055 0.70710677 0.40850231
vn -0.57717055 0.70710677 0.40850231
vn -0.57717055 0.70710677 0.40850231
vn -0.57717055 0.70710677 0.40850231
f 92/92/92 91/91/91 89/89/89 90/90/90
o SolarPanelSurface_17|parent=RoofSurface_02
v 7.2296181 5.7264514 -7.3205662
v 6.6524472 5.0193448 -6.9120641
v 8.1828384 5.7264514 -5.9737663
v 7.6056681 5.0193448 -5.5652637
vt 0 0
vt 0 1
vt 1 0
vt 1 1
vn -0.57717055 0.70710677 0.40850231
vn -0.57717055 0.70710677 0.40850231
vn -0.57717055 0.70710677 0.40850231
vn -0.57717055 0.70710677 0.40850231
f 96/96/96 95/95/95 93/93/93 94/94/94
o SolarPanelSurface_18|parent=RoofSurface_02
v 8.1828384 5.7264514 -5.9737663
v 7.6056681 5.0193448 -5.5652637
v 9.1360598 5.7264514 -4.6269665
v 8.5588884 5.0193448 -4.2184639
vt 0 0
vt 0 1
vt 1 0
vt 1 1
vn -0.57717055 0.70710677 0.40850231
vn -0.57717055 0.70710677 0.40850231
vn -0.57717055 0.70710677 0.40850231
vn -0.57717055 0.70710677 0.40850231
f 100/100/100 99/99/99 97/97/97 98/98/98
o SolarPanelSurface_07|parent=RoofSurface_02
v 3.9939058 6.433558 -13.116269
v 3.4167352 5.7264514 -12.707767
v 4.9471264 6.433558 -11.769468
v 4.369956 5.7264514 -11.360967
vt 0 0
vt 0 1
vt 1 0
vt 1 1
vn -0.57717055 0.70710677 0.40850231
vn -0.57717055 0.70710677 0.40850231
vn -0.57717055 0.70710677 0.40850231
vn -0.57717055 0.70710677 0.40850231
f 104/104/104 103/103/103 101/101/101 102/102/102
o SolarPanelSurface_08|parent=RoofSurface_02
v 4.9471264 6.433558 -11.769468
v 4.369956 5.7264514 -11.360967
v 5.9003472 6.433558 -10.422668
v 5.3231764 5.7264514 -10.014166
vt 0 0
vt 0 1
vt 1 0
vt 1 1
vn -0.57717055 0.70710677 0.40850231
vn -0.57717055 0.70710677 0.40850231
vn -0.57717055 0.70710677 0.40850231
vn -0.57717055 0.70710677 0.40850231
f 108/108/108 107/107/107 105/105/105 106/106/106
o SolarPanelSurface_09|parent=RoofSurface_02
v 5.9003472 6.433558 -10.422668
v 5.3231764 5.7264514 -10.014166
v 6.8535681 6.433558 -9.0758686
v 6.2763972 5.7264514 -8.667366
vt 0 0
vt 0 1
vt 1 0
vt 1 1
vn -0.57717055 0.70710677 0.40850231
vn -0.57717055 0.70710677 0.40850231
vn -0.57717055 0.70710677 0.40850231
vn -0.57717055 0.70710677 0.40850231
f 112/112/112 111/111/111 109/109/109 110/110/110
o SolarPanelSurface_10|parent=RoofSurface_02
v 6.8535681 6.433558 -9.0758686
v 6.2763972 5.7264514 -8.667366
v 7.8067884 6.433558 -7.7290688
v 7.2296181 5.7264514 -7.3205662
vt 0 0
vt 0 1
vt 1 0
vt 1 1
vn -0.57717055 0.70710677 0.40850231
vn -0.57717055 0.70710677 0.40850231
vn -0.57717055 0.70710677 0.40850231
vn -0.57717055 0.70710677 0.40850231
f 116/116/116 115/115/115 113/113/113 114/114/114
o SolarPanelSurface_11|parent=RoofSurface_02
v 7.8067884 6.433558 -7.7290688
v 7.2296181 5.7264514 -7.3205662
v 8.2833986 6.433558 -7.0556688
v 7.7062283 5.7264514 -6.6471663
v 8.7600088 6.433558 -6.3822684
v 8.1828384 5.7264514 -5.9737663
vt 0 0
vt 0 1
vt 0.5 0
vt 0.5 1
vt 1 0
vt 1 1
vn -0.57717055 0.70710677 0.40850231
vn -0.57717055 0.70710677 0.40850231
vn -0.57717055 0.70710677 0.40850231
vn -0.57717055 0.70710677 0.40850231
vn -0.57717055 0.70710677 0.40850231
vn -0.57717055 0.70710677 0.40850231
f 120/120/120 119/119/119 117/117/117 118/118/118
f 122/122/122 121/121/121 119/119/119 120/120/120
o SolarPanelSurface_12|parent=RoofSurface_02
v 8.7600088 6.433558 -6.3822684
v 8.1828384 5.7264514 -5.9737663
v 9.2366199 6.433558 -5.7088685
v 8.6594486 5.7264514 -5.3003664
v 9.7132301 6.433558 -5.0354686
v 9.1360598 5.7264514 -4.6269665
vt 0 0
vt 0 1
vt 0.5 0
vt 0.5 1
vt 1 0
vt 1 1
vn -0.57717055 0.70710677 0.40850231
vn -0.57717055 0.70710677 0.40850231
vn -0.57717055 0.70710677 0.40850231
vn -0.57717055 0.70710677 0.40850231
vn -0.57717055 0.70710677 0.40850231
vn -0.57717055 0.70710677 0.40850231
f 126/126/126 125/125/125 123/123/123 124/124/124
f 128/128/128 127/127/127 125/125/125 126/126/126
o SolarPanelSurface_01|parent=RoofSurface_02
v 4.5710764 7.1406651 -13.524771
v 3.9939058 6.433558 -13.116269
v 5.5242972 7.1406651 -12.177971
v 4.9471264 6.433558 -11.769468
vt 0 0
vt 0 1
vt 1 0
vt 1 1
vn -0.57717055 0.70710677 0.40850231
vn -0.57717055 0.70710677 0.40850231
vn -0.57717055 0.70710677 0.40850231
vn -0.57717055 0.70710677 0.40850231
f 132/132/132 131/131/131 129/129/129 130/130/130
o SolarPanelSurface_02|parent=RoofSurface_02
v 5.5242972 7.1406651 -12.177971
v 4.9471264 6.433558 -11.769468
v 6.4775176 7.1406651 -10.831171
v 5.9003472 6.433558 -10.422668
vt 0 0
vt 0 1
vt 1 0
vt 1 1
vn -0.57717055 0.70710677 0.40850231
vn -0.57717055 0.70710677 0.40850231
vn -0.57717055 0.70710677 0.40850231
vn -0.57717055 0.70710677 0.40850231
f 136/136/136 135/135/135 133/133/133 134/134/134
o SolarPanelSurface_03|parent=RoofSurface_02
v 6.4775176 7.1406651 -10.831171
v 5.9003472 6.433558 -10.422668
v 7.4307384 7.1406651 -9.4843712
v 6.8535681 6.433558 -9.0758686
vt 0 0
vt 0 1
vt 1 0
vt 1 1
vn -0.57717055 0.70710677 0.40850231
vn -0.57717055 0.70710677 0.40850231
vn -0.57717055 0.70710677 0.40850231
vn -0.57717055 0.70710677 0.40850231
f 140/140/140 139/139/139 137/137/137 138/138/138
o SolarPanelSurface_04|parent=RoofSurface_02
v 7.4307384 7.1406651 -9.4843712
v 7.1421533 6.7871118 -9.2801199
v 6.8535681 6.433558 -9.0758686
v 8.3839588 7.1406651 -8.1375713
v 8.0953741 6.7871118 -7.9333196
v 7.8067884 6.433558 -7.7290688
vt 0 0
vt 0 0.5
vt 0 1
vt 1 0
vt 1 0.5
vt 1 1
vn -0.57717055 0.70710677 0.40850231
vn -0.57717055 0.70710677 0.40850231
vn -0.57717055 0.70710677 0.40850231
vn -0.57717055 0.70710677 0.40850231
vn -0.57717055 0.70710677 0.40850231
vn -0.57717055 0.70710677 0.40850231
f 145/145/145 144/144/144 141/141/141 142/142/142
f 146/146/146 145/145/145 142/142/142 143/143/143
o SolarPanelSurface_05|parent=RoofSurface_02
v 8.3839588 7.1406651 -8.1375713
v 7.8067884 6.433558 -7.7290688
v 8.86057 7.1406651 -7.4641709
v 8.2833986 6.433558 -7.0556688
v 9.3371801 7.1406651 -6.790771
v 8.7600088 6.433558 -6.3822684
vt 0 0
vt 0 1
vt 0.5 0
vt 0.5 1
vt 1 0
vt 1 1
vn -0.57717055 0.70710677 0.40850231
vn -0.57717055 0.70710677 0.40850231
vn -0.57717055 0.70710677 0.40850231
vn -0.57717055 0.70710677 0.40850231
vn -0.57717055 0.70710677 0.40850231
vn -0.57717055 0.70710677 0.40850231
f 150/150/150 149/149/149 147/147/147 148/148/148
f 152/152/152 151/151/151 149/149/149 150/150/150
o SolarPanelSurface_06|parent=RoofSurface_02
v 9.3371801 7.1406651 -6.790771
v 8.7600088 6.433558 -6.3822684
v 9.8137903 7.1406651 -6.1173711
v 9.2366199 6.433558 -5.7088685
v 10.290401 7.1406651 -5.4439712
v 9.7132301 6.433558 -5.0354686
vt 0 0
vt 0 1
vt 0.5 0
vt 0.5 1
vt 1 0
vt 1 1
vn -0.57717055 0.70710677 0.40850231
vn -0.57717055 0.70710677 0.40850231
vn -0.57717055 0.70710677 0.40850231
vn -0.57717055 0.70710677 0.40850231
vn -0.57717055 0.70710677 0.40850231
vn -0.57717055 0.70710677 0.40850231
f 156/156/156 155/155/155 153/153/153 154/154/154
f 158/158/158 157/157/157 155/155/155 156/156/156
g nrg3_ZoneWallSurface
o WallSurface_04
v 17.101866 2.7727444 -5.3186994
v 17.101866 3.6969924 -5.3186994
v 16.416414 2.7727444 -4.833559
v 16.416414 3.6969924 -4.833559
v 15.730962 2.7727444 -4.3484187
v 15.730962 3.6969924 -4.3484187
v 15.045509 0.9242481 -3.8632786
v 15.045509 1.8484962 -3.8632786
v 15.045509 2.7727444 -3.8632786
v 15.045509 3.6969924 -3.8632786
v 15.045509 6.4697366 -3.8632786
v 15.045509 7.3939848 -3.8632786
v 14.360058 0.9242481 -3.3781383
v 14.360058 1.8484962 -3.3781383
v 14.360058 2.7727444 -3.3781383
v 14.360058 3.6969924 -3.3781383
v 14.360058 5.5454888 -3.3781383
v 14.360058 6.4697366 -3.3781383
v 14.360058 7.3939848 -3.3781383
v 13.674606 0.9242481 -2.8929982
v 13.674606 1.8484962 -2.8929982
v 13.674606 2.7727444 -2.8929982
v 13.674606 3.6969924 -2.8929982
v 13.674606 6.4697366 -2.8929982
v 13.674606 7.3939848 -2.8929982
v 12.989154 2.7727444 -2.4078579
v 12.989154 3.6969924 -2.4078579
v 12.303702 2.7727444 -1.9227177
v 12.303702 3.6969924 -1.9227177
v 11.618251 2.7727444 -1.4375775
v 11.618251 3.6969924 -1.4375775
v 17.720116 0 -5.7562766
v 17.160107 0 -5.3599205
v 16.600096 0 -4.9635639
v 16.040087 0 -4.5672073
v 15.480077 0 -4.1708512
v 14.920068 0 -3.7744946
v 14.360058 0 -3.3781383
v 13.800048 0 -2.981782
v 13.240039 0 -2.5854256
v 12.680029 0 -2.1890693
v 12.120019 0 -1.7927128
v 11.56001 0 -1.3963563
v 11 0 -1
v 11 0.63157094 -1
v 11 1.2631419 -1
v 11 1.8947128 -1
v 11 2.5262837 -1
v 11 3.1578546 -1
v 11 3.7894256 -1
v 11 4.4209967 -1
v 11 5.0525675 -1
v 11.371253 5.5074043 -1.2627609
v 11.742507 5.9622412 -1.5255218
v 12.11376 6.417078 -1.7882828
v 12.485013 6.8719153 -2.0510435
v 12.856267 7.3267522 -2.3138046
v 13.22752 7.781589 -2.5765655
v 13.598774 8.2364264 -2.8393264
v 13.970027 8.6912632 -3.1020873
v 14.34128 9.1461 -3.3648481
v 14.716706 8.6861601 -3.6305625
v 15.092133 8.2262211 -3.8962767
v 15.467559 7.7662811 -4.1619911
v 15.842985 7.3063412 -4.4277053
v 16.21841 6.8464017 -4.6934195
v 16.593838 6.3864622 -4.9591336
v 16.969263 5.9265223 -5.2248483
v 17.34469 5.4665828 -5.4905624
v 17.720116 5.0066433 -5.7562766
v 17.720116 4.3808126 -5.7562766
v 17.720116 3.7549822 -5.7562766
v 17.720116 3.1291521 -5.7562766
v 17.720116 2.5033216 -5.7562766
v 17.720116 1.8774911 -5.7562766
v 17.720116 1.2516608 -5.7562766
v 17.720116 0.62583041 -5.7562766
v 16.439047 4.0549998 -4.8495789
v 16.439047 4.6950002 -4.8495789
v 16.439047 5.335 -4.8495789
v 16.108469 5.335 -4.6156068
v 15.777891 5.335 -4.3816342
v 15.777891 4.6950002 -4.3816342
v 15.777891 4.0549998 -4.3816342
v 16.108469 4.0549998 -4.6156068
v 15.591788 4.0549998 -4.2499166
v 15.591788 4.6950002 -4.2499166
v 15.591788 5.335 -4.2499166
v 15.261198 5.335 -4.0159354
v 14.930607 5.335 -3.7819545
v 14.930607 4.6950002 -3.7819545
v 14.930607 4.0549998 -3.7819545
v 15.261198 4.0549998 -4.0159354
v 13.751953 4.0549998 -2.947742
v 13.751953 4.6950002 -2.947742
v 13.751953 5.335 -2.947742
v 13.421375 5.335 -2.7137694
v 13.090796 5.335 -2.4797971
v 13.090796 4.6950002 -2.4797971
v 13.090796 4.0549998 -2.4797971
v 13.421375 4.0549998 -2.7137694
v 12.904694 4.0549998 -2.3480794
v 12.904694 4.6950002 -2.3480794
v 12.904694 5.335 -2.3480794
v 12.574116 5.335 -2.1141071
v 12.243537 5.335 -1.8801347
v 12.243537 4.6950002 -1.8801347
v 12.243537 4.0549998 -1.8801347
v 12.574116 4.0549998 -2.1141071
v 17.381807 1.075 -5.5168333
v 17.381807 1.675 -5.5168333
v 17.381807 2.2750001 -5.5168333
v 16.864855 2.2750001 -5.1509509
v 16.3479 2.2750001 -4.785068
v 15.830947 2.2750001 -4.4191852
v 15.830947 1.675 -4.4191852
v 15.830947 1.075 -4.4191852
v 16.3479 1.075 -4.785068
v 16.864855 1.075 -5.1509509
v 12.851638 1.075 -2.3105283
v 12.851638 1.675 -2.3105283
v 12.851638 2.2750001 -2.3105283
v 12.334684 2.2750001 -1.9446455
v 11.817731 2.2750001 -1.5787629
v 11.300777 2.2750001 -1.2128801
v 11.300777 1.675 -1.2128801
v 11.300777 1.075 -1.2128801
v 11.817731 1.075 -1.5787629
v 12.334684 1.075 -1.9446455
v 17.101866 0.9242481 -5.3186994
v 15.730962 0.9242481 -4.3484187
v 17.101866 4.6212406 -5.3186994
v 15.730962 6.4697366 -4.3484187
v 15.730962 5.5454888 -4.3484187
v 12.989154 0.9242481 -2.4078579
v 12.303702 0.9242481 -1.9227177
v 11.618251 0.9242481 -1.4375775
v 12.989154 5.5454888 -2.4078579
v 12.989154 6.4697366 -2.4078579
v 11.618251 4.6212406 -1.4375775
vt 0.1 0.30000001
vt 0.1 0.40000001
vt 0.2 0.30000001
vt 0.2 0.40000001
vt 0.30000001 0.30000001
vt 0.30000001 0.40000001
vt 0.40000001 0.1
vt 0.40000001 0.2
vt 0.40000001 0.30000001
vt 0.40000001 0.40000001
vt 0.40000001 0.69999999
vt 0.40000001 0.80000001
vt 0.5 0.1
vt 0.5 0.2
vt 0.5 0.30000001
vt 0.5 0.40000001
vt 0.5 0.60000002
vt 0.5 0.69999999
vt 0.5 0.80000001
vt 0.60000002 0.1
vt 0.60000002 0.2
vt 0.60000002 0.30000001
vt 0.60000002 0.40000001
vt 0.60000002 0.69999999
vt 0.60000002 0.80000001
vt 0.69999999 0.30000001
vt 0.69999999 0.40000001
vt 0.80000001 0.30000001
vt 0.80000001 0.40000001
vt 0.89999998 0.30000001
vt 0.89999998 0.40000001
vt 0.0098039219 0
vt 0.09150327 0
vt 0.17320262 0
vt 0.25490198 0
vt 0.33660132 0
vt 0.41830066 0
vt 0.5 0
vt 0.58169937 0
vt 0.66339868 0
vt 0.74509805 0
vt 0.82679737 0
vt 0.90849674 0
vt 0.99019605 0
vt 0.99019605 0.068333484
vt 0.99019605 0.13666697
vt 0.99019605 0.20500045
vt 0.99019605 0.27333394
vt 0.99019605 0.34166741
vt 0.99019605 0.41000089
vt 0.99019605 0.4783344
vt 0.99019605 0.54666787
vt 0.9360342 0.59587944
vt 0.88187236 0.645091
vt 0.82771051 0.69430256
vt 0.77354866 0.74351412
vt 0.71938682 0.79272568
vt 0.66522497 0.84193724
vt 0.61106312 0.89114881
vt 0.55690128 0.94036037
vt 0.50273943 0.98957193
vt 0.44796884 0.93980831
vt 0.39319822 0.89004463
vt 0.3384276 0.84028101
vt 0.28365698 0.79051733
vt 0.22888638 0.74075365
vt 0.17411576 0.69099003
vt 0.11934515 0.64122635
vt 0.06457454 0.59146267
vt 0.0098039219 0.54169905
vt 0.0098039219 0.47398666
vt 0.0098039219 0.40627429
vt 0.0098039219 0.33856189
vt 0.0098039219 0.27084953
vt 0.0098039219 0.20313714
vt 0.0098039219 0.13542476
vt 0.0098039219 0.067712381
vt 0.19669788 0.43873501
vt 0.19669788 0.50798047
vt 0.19669788 0.57722598
vt 0.24492566 0.57722598
vt 0.29315343 0.57722598
vt 0.29315343 0.50798047
vt 0.29315343 0.43873501
vt 0.24492566 0.43873501
vt 0.32030389 0.43873501
vt 0.32030389 0.50798047
vt 0.32030389 0.57722598
vt 0.36853346 0.57722598
vt 0.41676301 0.57722598
vt 0.41676301 0.50798047
vt 0.41676301 0.43873501
vt 0.36853346 0.43873501
vt 0.58871591 0.43873501
vt 0.58871591 0.50798047
vt 0.58871591 0.57722598
vt 0.6369437 0.57722598
vt 0.68517143 0.57722598
vt 0.68517143 0.50798047
vt 0.68517143 0.43873501
vt 0.6369437 0.43873501
vt 0.71232188 0.43873501
vt 0.71232188 0.50798047
vt 0.71232188 0.57722598
vt 0.76054966 0.57722598
vt 0.80877745 0.57722598
vt 0.80877745 0.50798047
vt 0.80877745 0.43873501
vt 0.76054966 0.43873501
vt 0.059159398 0.11631076
vt 0.059159398 0.1812284
vt 0.059159398 0.24614602
vt 0.13457732 0.24614602
vt 0.20999525 0.24614602
vt 0.28541318 0.24614602
vt 0.28541318 0.1812284
vt 0.28541318 0.11631076
vt 0.20999525 0.11631076
vt 0.13457732 0.11631076
vt 0.72006214 0.11631076
vt 0.72006214 0.1812284
vt 0.72006214 0.24614602
vt 0.79548007 0.24614602
vt 0.87089801 0.24614602
vt 0.94631594 0.24614602
vt 0.94631594 0.1812284
vt 0.94631594 0.11631076
vt 0.87089801 0.11631076
vt 0.79548007 0.11631076
vt 0.1 0.1
vt 0.30000001 0.1
vt 0.1 0.5
vt 0.30000001 0.69999999
vt 0.30000001 0.60000002
vt 0.69999999 0.1
vt 0.80000001 0.1
vt 0.89999998 0.1
vt 0.69999999 0.60000002
vt 0.69999999 0.69999999
vt 0.89999998 0.5
vn 0.5777095 0 0.81624246
vn 0.5777095 0 0.81624246
vn 0.5777095 0 0.81624246
vn 0.5777095 0 0.81624246
vn 0.5777095 0 0.81624246
vn 0.5777095 0 0.81624246
vn 0.5777095 0 0.81624246
vn 0.5777095 0 0.81624246
vn 0.5777095 0 0.81624246
vn 0.5777095 0 0.81624246
vn 0.5777095 0 0.81624246
vn 0.5777095 0 0.81624246
vn 0.5777095 0 0.81624246
vn 0.5777095 0 0.81624246
vn 0.5777095 0 0.81624246
vn 0.5777095 0 0.81624246
vn 0.5777095 0 0.81624246
vn 0.5777095 0 0.81624246
vn 0.5777095 0 0.81624246
vn 0.5777095 0 0.81624246
vn 0.5777095 0 0.81624246
vn 0.5777095 0 0.81624246
vn 0.5777095 0 0.81624246
vn 0.5777095 0 0.81624246
vn 0.5777095 0 0.81624246
vn 0.5777095 0 0.81624246
vn 0.5777095 0 0.81624246
vn 0.5777095 0 0.81624246
vn 0.5777095 0 0.81624246
vn 0.5777095 0 0.81624246
vn 0.5777095 0 0.81624246
vn 0.5777095 0 0.81624246
vn 0.5777095 0 0.81624246
vn 0.5777095 0 0.81624246
vn 0.5777095 0 0.81624246
vn 0.5777095 0 0.81624246
vn 0.5777095 0 0.81624246
vn 0.5777095 0 0.81624246
vn 0.5777095 0 0.81624246
vn 0.5777095 0 0.81624246
vn 0.5777095 0 0.81624246
vn 0.5777095 0 0.81624246
vn 0.5777095 0 0.81624246
vn 0.5777095 0 0.81624246
vn 0.5777095 0 0.81624246
vn 0.5777095 0 0.81624246
vn 0.5777095 0 0.81624246
vn 0.5777095 0 0.81624246
vn 0.5777095 0 0.81624246
vn 0.5777095 0 0.81624246
vn 0.5777095 0 0.81624246
vn 0.5777095 0 0.81624246
vn 0.5777095 0 0.81624246
vn 0.5777095 0 0.81624246
vn 0.5777095 0 0.81624246
vn 0.5777095 0 0.81624246
vn 0.5777095 0 0.81624246
vn 0.5777095 0 0.81624246
vn 0.5777095 0 0.81624246
vn 0.5777095 0 0.81624246
vn 0.5777095 0 0.81624246
vn 0.5777095 0 0.81624246
vn 0.5777095 0 0.81624246
vn 0.5777095 0 0.81624246
vn 0.5777095 0 0.81624246
vn 0.5777095 0 0.81624246
vn 0.5777095 0 0.81624246
vn 0.5777095 0 0.81624246
vn 0.5777095 0 0.81624246
vn 0.5777095 0 0.81624246
vn 0.5777095 0 0.81624246
vn 0.5777095 0 0.81624246
vn 0.5777095 0 0.81624246
vn 0.5777095 0 0.81624246
vn 0.5777095 0 0.81624246
vn 0.5777095 0 0.81624246
vn 0.5777095 0 0.81624246
vn 0.5777095 0 0.81624246
vn 0.5777095 0 0.81624246
vn 0.5777095 0 0.81624246
vn 0.5777095 0 0.81624246
vn 0.5777095 0 0.81624246
vn 0.5777095 0 0.81624246
vn 0.5777095 0 0.81624246
vn 0.5777095 0 0.81624246
vn 0.5777095 0 0.81624246
vn 0.5777095 0 0.81624246
vn 0.5777095 0 0.81624246
vn 0.5777095 0 0.81624246
vn 0.5777095 0 0.81624246
vn 0.5777095 0 0.81624246
vn 0.5777095 0 0.81624246
vn 0.5777095 0 0.81624246
vn 0.5777095 0 0.81624246
vn 0.5777095 0 0.81624246
vn 0.5777095 0 0.81624246
vn 0.5777095 0 0.81624246
vn 0.5777095 0 0.81624246
vn 0.5777095 0 0.81624246
vn 0.5777095 0 0.81624246
vn 0.5777095 0 0.81624246
vn 0.5777095 0 0.81624246
vn 0.5777095 0 0.81624246
vn 0.5777095 0 0.81624246
vn 0.5777095 0 0.81624246
vn 0.5777095 0 0.81624246
vn 0.5777095 0 0.81624246
vn 0.5777095 0 0.81624246
vn 0.5777095 0 0.81624246
vn 0.5777095 0 0.81624246
vn 0.5777095 0 0.81624246
vn 0.5777095 0 0.81624246
vn 0.5777095 0 0.81624246
vn 0.5777095 0 0.81624246
vn 0.5777095 0 0.81624246
vn 0.5777095 0 0.81624246
vn 0.5777095 0 0.81624246
vn 0.5777095 0 0.81624246
vn 0.5777095 0 0.81624246
vn 0.5777095 0 0.81624246
vn 0.5777095 0 0.81624246
vn 0.5777095 0 0.81624246
vn 0.5777095 0 0.81624246
vn 0.5777095 0 0.81624246
vn 0.5777095 0 0.81624246
vn 0.5777095 0 0.81624246
vn 0.5777095 0 0.81624246
vn 0.5777095 0 0.81624246
vn 0.5777095 0 0.81624246
vn 0.5777095 0 0.81624246
vn 0.5777095 0 0.81624246
vn 0.5777095 0 0.81624246
vn 0.5777095 0 0.81624246
vn 0.5777095 0 0.81624246
vn 0.5777095 0 0.81624246
vn 0.5777095 0 0.81624246
vn 0.5777095 0 0.81624246
vn 0.5777095 0 0.81624246
vn 0.5777095 0 0.81624246
vn 0.5777095 0 0.81624246
f 162/162/162 161/161/161 159/159/159 160/160/160
f 164/164/164 163/163/163 161/161/161 162/162/162
f 168/168/168 167/167/167 163/163/163 164/164/164
f 172/172/172 171/171/171 165/165/165 166/166/166
f 173/173/173 172/172/172 166/166/166 167/167/167
f 174/174/174 173/173/173 167/167/167 168/168/168
f 175/175/175 169/169/169 176/176/176
f 177/177/177 176/176/176 169/169/169 170/170/170
f 179/179/179 178/178/178 171/171/171 172/172/172
f 180/180/180 179/179/179 172/172/172 173/173/173
f 181/181/181 180/180/180 173/173/173 174/174/174
f 182/182/182 175/175/175 176/176/176
f 183/183/183 182/182/182 176/176/176 177/177/177
f 185/185/185 184/184/184 180/180/180 181/181/181
f 187/187/187 186/186/186 184/184/184 185/185/185
f 189/189/189 188/188/188 186/186/186 187/187/187
f 288/288/288 235/235/235 268/268/268
f 268/268/268 234/234/234 233/233/233 269/269/269
f 235/235/235 234/234/234 268/268/268
f 191/191/191 190/190/190 235/235/235
f 288/288/288 192/192/192 191/191/191
f 268/268/268 277/277/277 288/288/288
f 192/192/192 289/289/289 193/193/193
f 235/235/235 288/288/288 191/191/191
f 232/232/232 270/270/270 269/269/269 233/233/233
f 232/232/232 231/231/231 159/159/159
f 159/159/159 271/271/271 270/270/270
f 161/161/161 272/272/272 271/271/271 159/159/159
f 159/159/159 231/231/231 230/230/230 160/160/160
f 270/270/270 232/232/232 159/159/159
f 277/277/277 276/276/276 288/288/288
f 289/289/289 194/194/194 193/193/193
f 289/289/289 276/276/276 275/275/275
f 289/289/289 288/288/288 276/276/276
f 165/165/165 195/195/195 194/194/194 289/289/289
f 288/288/288 289/289/289 192/192/192
f 195/195/195 165/165/165 171/171/171 196/196/196
f 165/165/165 289/289/289 166/166/166
f 196/196/196 171/171/171 178/178/178 197/197/197
f 274/274/274 289/289/289 275/275/275
f 272/272/272 161/161/161 163/163/163 273/273/273
f 163/163/163 167/167/167 166/166/166 289/289/289
f 289/289/289 274/274/274 273/273/273 163/163/163
f 162/162/162 243/243/243 242/242/242 164/164/164
f 236/236/236 162/162/162 160/160/160
f 160/160/160 230/230/230 229/229/229 290/290/290
f 243/243/243 162/162/162 236/236/236
f 228/228/228 290/290/290 229/229/229
f 290/290/290 237/237/237 236/236/236
f 242/242/242 241/241/241 164/164/164
f 236/236/236 160/160/160 290/290/290
f 238/238/238 237/237/237 290/290/290
f 227/227/227 290/290/290 228/228/228
f 238/238/238 226/226/226 225/225/225
f 226/226/226 238/238/238 227/227/227
f 224/224/224 291/291/291 225/225/225
f 238/238/238 290/290/290 227/227/227
f 291/291/291 224/224/224 223/223/223
f 291/291/291 239/239/239 225/225/225
f 239/239/239 292/292/292 240/240/240
f 238/238/238 225/225/225 239/239/239
f 164/164/164 241/241/241 292/292/292
f 251/251/251 164/164/164 244/244/244
f 292/292/292 241/241/241 240/240/240
f 292/292/292 245/245/245 244/244/244 164/164/164
f 250/250/250 174/174/174 168/168/168
f 174/174/174 250/250/250 249/249/249
f 248/248/248 175/175/175 249/249/249
f 168/168/168 251/251/251 250/250/250
f 169/169/169 292/292/292 291/291/291
f 246/246/246 292/292/292 247/247/247
f 291/291/291 223/223/223 170/170/170
f 170/170/170 223/223/223 222/222/222
f 247/247/247 292/292/292 169/169/169
f 239/239/239 291/291/291 292/292/292
f 175/175/175 248/248/248 169/169/169
f 247/247/247 169/169/169 248/248/248
f 177/177/177 221/221/221 220/220/220
f 170/170/170 222/222/222 221/221/221
f 221/221/221 177/177/177 170/170/170
f 169/169/169 291/291/291 170/170/170
f 175/175/175 253/253/253 252/252/252 174/174/174
f 245/245/245 292/292/292 246/246/246
f 164/164/164 251/251/251 168/168/168
f 197/197/197 178/178/178 293/293/293 198/198/198
f 293/293/293 178/178/178 179/179/179
f 293/293/293 199/199/199 198/198/198
f 293/293/293 278/278/278 287/287/287 294/294/294
f 200/200/200 199/199/199 294/294/294
f 199/199/199 293/293/293 294/294/294
f 278/278/278 293/293/293 279/279/279
f 180/180/180 184/184/184 179/179/179
f 179/179/179 184/184/184 293/293/293
f 186/186/186 281/281/281 280/280/280 184/184/184
f 281/281/281 186/186/186 188/188/188 282/282/282
f 184/184/184 280/280/280 279/279/279 293/293/293
f 181/181/181 259/259/259 258/258/258 185/185/185
f 286/286/286 295/295/295 294/294/294 287/287/287
f 252/252/252 181/181/181 174/174/174
f 200/200/200 294/294/294 295/295/295 201/201/201
f 285/285/285 295/295/295 286/286/286
f 295/295/295 203/203/203 201/201/201
f 295/295/295 285/285/285 203/203/203
f 203/203/203 285/285/285 204/204/204
f 202/202/202 201/201/201 203/203/203
f 284/284/284 205/205/205 204/204/204 285/285/285
f 283/283/283 282/282/282 188/188/188
f 266/266/266 189/189/189 187/187/187
f 189/189/189 208/208/208 207/207/207 188/188/188
f 283/283/283 206/206/206 205/205/205 284/284/284
f 188/188/188 207/207/207 206/206/206
f 283/283/283 188/188/188 206/206/206
f 185/185/185 260/260/260 267/267/267 187/187/187
f 174/174/174 249/249/249 175/175/175
f 182/182/182 255/255/255 254/254/254
f 175/175/175 254/254/254 253/253/253
f 256/256/256 296/296/296 257/257/257
f 185/185/185 258/258/258 257/257/257 296/296/296
f 252/252/252 259/259/259 181/181/181
f 296/296/296 256/256/256 255/255/255
f 217/217/217 177/177/177 218/218/218
f 218/218/218 220/220/220 219/219/219
f 177/177/177 220/220/220 218/218/218
f 182/182/182 183/183/183 297/297/297
f 254/254/254 175/175/175 182/182/182
f 217/217/217 216/216/216 183/183/183
f 183/183/183 216/216/216 215/215/215
f 177/177/177 217/217/217 183/183/183
f 297/297/297 296/296/296 182/182/182
f 182/182/182 296/296/296 255/255/255
f 267/267/267 266/266/266 187/187/187
f 296/296/296 261/261/261 260/260/260 185/185/185
f 298/298/298 209/209/209 208/208/208 189/189/189
f 298/298/298 265/265/265 264/264/264
f 298/298/298 266/266/266 265/265/265
f 209/209/209 298/298/298 210/210/210
f 298/298/298 189/189/189 266/266/266
f 298/298/298 211/211/211 210/210/210
f 296/296/296 297/297/297 263/263/263
f 183/183/183 215/215/215 297/297/297
f 297/297/297 215/215/215 214/214/214
f 213/213/213 263/263/263 297/297/297
f 263/263/263 262/262/262 296/296/296
f 212/212/212 211/211/211 264/264/264
f 298/298/298 264/264/264 211/211/211
f 213/213/213 297/297/297 214/214/214
f 264/264/264 213/213/213 212/212/212
f 264/264/264 263/263/263 213/213/213
f 261/261/261 296/296/296 262/262/262
g nrg3_ZoneGroundSurface
o GroundSurface_01
v 3.3782725 -0.49200001 -11.768695
v 6.7383304 -0.49200001 -14.146832
v 10.098389 -0.49200001 -16.524971
v 7.189136 -0.49200001 -6.3843474
v 10.549194 -0.49200001 -8.7624855
v 13.909252 -0.49200001 -11.140624
v 11 -0.49200001 -1
v 14.360058 -0.49200001 -3.3781383
v 17.720116 -0.49200001 -5.7562766
vt 0 0
vt 0 0.5
vt 0 1
vt 0.5 0
vt 0.5 0.5
vt 0.5 1
vt 1 0
vt 1 0.5
vt 1 1
vn 0 -1 0
vn 0 -1 0
vn 0 -1 0
vn 0 -1 0
vn 0 -1 0
vn 0 -1 0
vn 0 -1 0
vn 0 -1 0
vn 0 -1 0
f 303/303/303 302/302/302 299/299/299 300/300/300
f 304/304/304 303/303/303 300/300/300 301/301/301
f 306/306/306 305/305/305 302/302/302 303/303/303
f 307/307/307 306/306/306 303/303/303 304/304/304
g nrg3_ZoneWindow
o Window_05|parent=WallSurface_04
v 15.777892 4.0549998 -4.3816342
v 15.777892 5.335 -4.3816342
v 16.439049 4.0549998 -4.8495789
v 16.439049 5.335 -4.8495789
vt 0 0
vt 0 1
vt 1 0
vt 1 1
vn 0.5777095 0 0.81624246
vn 0.5777095 0 0.81624246
vn 0.5777095 0 0.81624246
vn 0.5777095 0 0.81624246
f 311/311/311 309/309/309 308/308/308 310/310/310
o Window_04|parent=WallSurface_04
v 14.930608 4.0549998 -3.7819555
v 14.930608 5.335 -3.7819555
v 15.591788 4.0549998 -4.2499175
v 15.591788 5.335 -4.2499175
vt 0 0
vt 0 1
vt 1 0
vt 1 1
vn 0.5777095 0 0.81624246
vn 0.5777095 0 0.81624246
vn 0.5777095 0 0.81624246
vn 0.5777095 0 0.81624246
f 315/315/315 313/313/313 312/312/312 314/314/314
o Window_03|parent=WallSurface_04
v 13.090796 4.0549998 -2.4797957
v 13.090796 5.335 -2.4797957
v 13.421374 4.0549998 -2.713768
v 13.421374 5.335 -2.713768
v 13.751953 4.0549998 -2.9477403
v 13.751953 5.335 -2.9477403
vt 0 0
vt 0 1
vt 0.5 0
vt 0.5 1
vt 1 0
vt 1 1
vn 0.5777095 0 0.81624246
vn 0.5777095 0 0.81624246
vn 0.5777095 0 0.81624246
vn 0.5777095 0 0.81624246
vn 0.5777095 0 0.81624246
vn 0.5777095 0 0.81624246
f 319/319/319 317/317/317 316/316/316 318/318/318
f 321/321/321 319/319/319 318/318/318 320/320/320
o Window_02|parent=WallSurface_04
v 12.243537 4.0549998 -1.8801329
v 12.243537 5.335 -1.8801329
v 12.904694 4.0549998 -2.3480775
v 12.904694 5.335 -2.3480775
vt 0 0
vt 0 1
vt 1 0
vt 1 1
vn 0.5777095 0 0.81624246
vn 0.5777095 0 0.81624246
vn 0.5777095 0 0.81624246
vn 0.5777095 0 0.81624246
f 325/325/325 323/323/323 322/322/322 324/324/324
o Window_06|parent=WallSurface_04
v 15.830947 1.075 -4.4191837
v 15.830947 2.2750001 -4.4191837
v 16.606377 1.075 -4.9680076
v 16.606377 2.2750001 -4.9680076
v 17.381807 1.075 -5.5168319
v 17.381807 2.2750001 -5.5168319
vt 0 0
vt 0 1
vt 0.5 0
vt 0.5 1
vt 1 0
vt 1 1
vn 0.5777095 0 0.81624246
vn 0.5777095 0 0.81624246
vn 0.5777095 0 0.81624246
vn 0.5777095 0 0.81624246
vn 0.5777095 0 0.81624246
vn 0.5777095 0 0.81624246
f 329/329/329 327/327/327 326/326/326 328/328/328
f 331/331/331 329/329/329 328/328/328 330/330/330
o Window_01|parent=WallSurface_04
v 11.300777 1.075 -1.2128818
v 11.300777 2.2750001 -1.2128818
v 12.076207 1.075 -1.7617059
v 12.076207 2.2750001 -1.7617059
v 12.851638 1.075 -2.3105299
v 12.851638 2.2750001 -2.3105299
vt 0 0
vt 0 1
vt 0.5 0
vt 0.5 1
vt 1 0
vt 1 1
vn 0.5777095 0 0.81624246
vn 0.5777095 0 0.81624246
vn 0.5777095 0 0.81624246
vn 0.5777095 0 0.81624246
vn 0.5777095 0 0.81624246
vn 0.5777095 0 0.81624246
f 335/335/335 333/333/333 332/332/332 334/334/334
f 337/337/337 335/335/335 334/334/334 336/336/336
o Window_08|parent=WallSurface_02
v 6.1032891 3.1919999 -13.697372
v 6.1032891 5.4050002 -13.697372
v 4.6748648 3.1919999 -12.68638
v 4.6748648 5.4050002 -12.68638
vt 0 0
vt 0 1
vt 1 0
vt 1 1
vn -0.5777095 0 -0.81624246
vn -0.5777095 0 -0.81624246
vn -0.5777095 0 -0.81624246
vn -0.5777095 0 -0.81624246
f 341/341/341 339/339/339 338/338/338 340/340/340
o Window_07|parent=WallSurface_02
v 8.7642384 3.1919999 -15.580704
v 8.7642384 5.4050002 -15.580704
v 8.0500269 3.1919999 -15.075208
v 8.0500269 5.4050002 -15.075208
v 7.3358145 3.1919999 -14.569712
v 7.3358145 5.4050002 -14.569712
vt 0 0
vt 0 1
vt 0.5 0
vt 0.5 1
vt 1 0
vt 1 1
vn -0.5777095 0 -0.81624246
vn -0.5777095 0 -0.81624246
vn -0.5777095 0 -0.81624246
vn -0.5777095 0 -0.81624246
vn -0.5777095 0 -0.81624246
vn -0.5777095 0 -0.81624246
f 345/345/345 343/343/343 342/342/342 344/344/344
f 347/347/347 345/345/345 344/344/344 346/346/346
g nrg3_ZoneDoor
o Door_04|parent=WallSurface_02
v 9.5192699 0.074000001 -16.115086
v 9.5192699 2.665 -16.115086
v 7.3358212 0.074000001 -14.569713
v 7.3358212 2.665 -14.569713
vt 0 0
vt 0 1
vt 1 0
vt 1 1
vn -0.5777095 0 -0.81624246
vn -0.5777095 0 -0.81624246
vn -0.5777095 0 -0.81624246
vn -0.5777095 0 -0.81624246
f 351/351/351 349/349/349 348/348/348 350/350/350
o Door_05|parent=WallSurface_02
v 6.1032896 0.074000001 -13.697371
v 6.1032896 2.665 -13.697371
v 5.0115657 0.074000001 -12.924685
v 5.0115657 2.665 -12.924685
v 3.9198413 0.074000001 -12.151999
v 3.9198413 2.665 -12.151999
vt 0 0
vt 0 1
vt 0.5 0
vt 0.5 1
vt 1 0
vt 1 1
vn -0.5777095 0 -0.81624246
vn -0.5777095 0 -0.81624246
vn -0.5777095 0 -0.81624246
vn -0.5777095 0 -0.81624246
vn -0.5777095 0 -0.81624246
vn -0.5777095 0 -0.81624246
f 355/355/355 353/353/353 352/352/352 354/354/354
f 357/357/357 355/355/355 354/354/354 356/356/356
g nrg3_ZoneWallSurface
o WallSurface_06
v 10.999999 0 -0.99999869
v 10.999999 -0.49200001 -0.99999869
v 12.680028 -0.49200001 -2.1890678
v 14.360057 -0.49200001 -3.3781371
v 16.040087 -0.49200001 -4.5672064
v 17.720116 -0.49200001 -5.7562757
v 17.720116 0 -5.7562757
v 16.040087 0 -4.5672064
v 14.360057 0 -3.3781371
v 12.680028 0 -2.1890678
vt 0.0098039219 1
vt 0.0098039219 0.16380712
vt 0.25490198 0.16380712
vt 0.5 0.16380712
vt 0.74509805 0.16380712
vt 0.99019605 0.16380712
vt 0.99019605 1
vt 0.74509805 1
vt 0.5 1
vt 0.25490198 1
vn 0.5777095 0 0.81624246
vn 0.5777095 0 0.81624246
vn 0.5777095 0 0.81624246
vn 0.5777095 0 0.81624246
vn 0.5777095 0 0.81624246
vn 0.5777095 0 0.81624246
vn 0.5777095 0 0.81624246
vn 0.5777095 0 0.81624246
vn 0.5777095 0 0.81624246
vn 0.5777095 0 0.81624246
f 359/359/359 360/360/360 367/367/367 358/358/358
f 366/366/366 367/367/367 360/360/360 361/361/361
f 361/361/361 362/362/362 365/365/365 366/366/366
f 363/363/363 364/364/364 365/365/365 362/362/362
g nrg3_ZoneRoofSurface
o RoofSurface_01
v 10.098389 5.0066433 -16.524971
v 17.720116 5.0066433 -5.7562766
v 8.4089708 7.0763717 -15.329257
v 16.030699 7.0763717 -4.5605626
v 6.719553 9.1461 -14.133543
v 14.34128 9.1461 -3.3648481
vt 0 0
vt 0 1
vt 0.5 0
vt 0.5 1
vt 1 0
vt 1 1
vn 0.57716757 0.70711046 -0.40850019
vn 0.57716757 0.70711046 -0.40850019
vn 0.57716757 0.70711046 -0.40850019
vn 0.57716757 0.70711046 -0.40850019
vn 0.57716757 0.70711046 -0.40850019
vn 0.57716757 0.70711046 -0.40850019
f 371/371/371 369/369/369 368/368/368 370/370/370
f 373/373/373 371/371/371 370/370/370 372/372/372
g nrg3_ZoneDoor
o Door_03|parent=WallSurface_03
v 14.449986 0.026000001 -10.376625
v 14.449986 2.4242001 -10.376625
v 13.537204 0.026000001 -11.666288
v 13.537204 2.4242001 -11.666288
vt 0 0
vt 0 1
vt 1 0
vt 1 1
vn 0.81624246 0 -0.5777095
vn 0.81624246 0 -0.5777095
vn 0.81624246 0 -0.5777095
vn 0.81624246 0 -0.5777095
f 377/377/377 375/375/375 374/374/374 376/376/376
o Door_02|parent=WallSurface_03
v 15.859018 0.015 -8.3858099
v 15.859018 2.418 -8.3858099
v 15.232781 0.015 -9.2706165
v 15.232781 2.418 -9.2706165
vt 0 0
vt 0 1
vt 1 0
vt 1 1
vn 0.81624246 0 -0.5777095
vn 0.81624246 0 -0.5777095
vn 0.81624246 0 -0.5777095
vn 0.81624246 0 -0.5777095
f 381/381/381 379/379/379 378/378/378 380/380/380
g nrg3_ZoneWallSurface
o WallSurface_03
v 17.720116 0.62583041 -5.7562766
v 17.720116 1.2516608 -5.7562766
v 17.720116 1.8774911 -5.7562766
v 17.720116 2.5033216 -5.7562766
v 17.720116 3.1291521 -5.7562766
v 17.720116 3.7549822 -5.7562766
v 17.720116 4.3808126 -5.7562766
v 17.720116 5.0066433 -5.7562766
v 17.133829 0.62583041 -6.5846376
v 17.133829 1.2516608 -6.5846376
v 17.133829 1.8774911 -6.5846376
v 17.133829 2.5033216 -6.5846376
v 17.133829 3.1291521 -6.5846376
v 17.133829 3.7549822 -6.5846376
v 17.133829 4.3808126 -6.5846376
v 17.133829 5.0066433 -6.5846376
v 16.547543 0.62583041 -7.4129992
v 16.547543 1.2516608 -7.4129992
v 16.547543 1.8774911 -7.4129992
v 16.547543 2.5033216 -7.4129992
v 16.547543 3.1291521 -7.4129992
v 16.547543 3.7549822 -7.4129992
v 16.547543 4.3808126 -7.4129992
v 16.547543 5.0066433 -7.4129992
v 15.961256 3.1291521 -8.2413597
v 15.961256 3.7549822 -8.2413597
v 15.961256 4.3808126 -8.2413597
v 15.961256 5.0066433 -8.2413597
v 15.374969 3.1291521 -9.0697212
v 15.374969 3.7549822 -9.0697212
v 15.374969 4.3808126 -9.0697212
v 15.374969 5.0066433 -9.0697212
v 14.788682 2.5033216 -9.8980827
v 14.788682 3.1291521 -9.8980827
v 14.788682 3.7549822 -9.8980827
v 14.788682 4.3808126 -9.8980827
v 14.788682 5.0066433 -9.8980827
v 14.202395 3.1291521 -10.726443
v 14.202395 3.7549822 -10.726443
v 14.202395 4.3808126 -10.726443
v 14.202395 5.0066433 -10.726443
v 13.616109 3.1291521 -11.554805
v 13.616109 3.7549822 -11.554805
v 13.616109 4.3808126 -11.554805
v 13.616109 5.0066433 -11.554805
v 13.029822 0.62583041 -12.383165
v 13.029822 1.2516608 -12.383165
v 13.029822 1.8774911 -12.383165
v 13.029822 2.5033216 -12.383165
v 13.029822 3.1291521 -12.383165
v 13.029822 3.7549822 -12.383165
v 13.029822 4.3808126 -12.383165
v 13.029822 5.0066433 -12.383165
v 12.443535 0.62583041 -13.211527
v 12.443535 1.2516608 -13.211527
v 12.443535 1.8774911 -13.211527
v 12.443535 2.5033216 -13.211527
v 12.443535 3.1291521 -13.211527
v 12.443535 3.7549822 -13.211527
v 12.443535 4.3808126 -13.211527
v 12.443535 5.0066433 -13.211527
v 11.857248 0.62583041 -14.039888
v 11.857248 1.2516608 -14.039888
v 11.857248 1.8774911 -14.039888
v 11.857248 2.5033216 -14.039888
v 11.857248 3.1291521 -14.039888
v 11.857248 3.7549822 -14.039888
v 11.857248 4.3808126 -14.039888
v 11.857248 5.0066433 -14.039888
v 11.270962 0.62583041 -14.868249
v 11.270962 1.2516608 -14.868249
v 11.270962 1.8774911 -14.868249
v 11.270962 2.5033216 -14.868249
v 11.270962 3.1291521 -14.868249
v 11.270962 3.7549822 -14.868249
v 11.270962 4.3808126 -14.868249
v 11.270962 5.0066433 -14.868249
v 10.684675 0.62583041 -15.69661
v 10.684675 1.2516608 -15.69661
v 10.684675 1.8774911 -15.69661
v 10.684675 2.5033216 -15.69661
v 10.684675 3.1291521 -15.69661
v 10.684675 3.7549822 -15.69661
v 10.684675 4.3808126 -15.69661
v 10.684675 5.0066433 -15.69661
v 10.098389 0 -16.524971
v 10.098389 0.62583041 -16.524971
v 10.098389 1.2516608 -16.524971
v 10.098389 1.8774911 -16.524971
v 10.098389 2.5033216 -16.524971
v 10.098389 3.1291521 -16.524971
v 10.098389 3.7549822 -16.524971
v 10.098389 4.3808126 -16.524971
v 10.098389 5.0066433 -16.524971
v 17.720116 0 -5.7562766
v 17.296686 0 -6.3545375
v 16.873257 0 -6.9527984
v 16.449827 0 -7.5510592
v 16.026398 0 -8.1493196
v 15.602969 0 -8.7475805
v 15.17954 0 -9.3458414
v 14.75611 0 -9.9441023
v 14.332682 0 -10.542363
v 13.909252 0 -11.140624
v 13.485823 0 -11.738885
v 13.062393 0 -12.337146
v 12.638964 0 -12.935407
v 12.215535 0 -13.533668
v 11.792106 0 -14.131928
v 11.368676 0 -14.730189
v 10.945247 0 -15.328449
v 10.521817 0 -15.92671
v 15.859018 0.015 -8.3858099
v 15.859018 0.61575001 -8.3858099
v 15.859018 1.2165 -8.3858099
v 15.859018 1.81725 -8.3858099
v 15.859018 2.418 -8.3858099
v 15.5459 2.418 -8.8282137
v 15.232781 2.418 -9.2706165
v 15.232781 1.81725 -9.2706165
v 15.232781 1.2165 -9.2706165
v 15.232781 0.61575001 -9.2706165
v 15.232781 0.015 -9.2706165
v 15.5459 0.015 -8.8282137
v 14.449986 0.026000001 -10.376625
v 14.449986 0.62554997 -10.376625
v 14.449986 1.2251 -10.376625
v 14.449986 1.82465 -10.376625
v 14.449986 2.4242001 -10.376625
v 14.145725 2.4242001 -10.806513
v 13.841465 2.4242001 -11.236401
v 13.537204 2.4242001 -11.666288
v 13.537204 1.82465 -11.666288
v 13.537204 1.2251 -11.666288
v 13.537204 0.62554997 -11.666288
v 13.537204 0.026000001 -11.666288
v 13.841465 0.026000001 -11.236401
v 14.145725 0.026000001 -10.806513
v 15.961256 0.62583041 -8.2413597
v 14.788682 0.62583041 -9.8980827
v 15.961256 1.8774911 -8.2413597
v 15.961256 2.5033216 -8.2413597
v 14.788682 1.8774911 -9.8980827
vt 0 0.125
vt 0 0.25
vt 0 0.375
vt 0 0.5
vt 0 0.625
vt 0 0.75
vt 0 0.875
vt 0 1
vt 0.07692308 0.125
vt 0.07692308 0.25
vt 0.07692308 0.375
vt 0.07692308 0.5
vt 0.07692308 0.625
vt 0.07692308 0.75
vt 0.07692308 0.875
vt 0.07692308 1
vt 0.15384616 0.125
vt 0.15384616 0.25
vt 0.15384616 0.375
vt 0.15384616 0.5
vt 0.15384616 0.625
vt 0.15384616 0.75
vt 0.15384616 0.875
vt 0.15384616 1
vt 0.23076923 0.625
vt 0.23076923 0.75
vt 0.23076923 0.875
vt 0.23076923 1
vt 0.30769232 0.625
vt 0.30769232 0.75
vt 0.30769232 0.875
vt 0.30769232 1
vt 0.38461539 0.5
vt 0.38461539 0.625
vt 0.38461539 0.75
vt 0.38461539 0.875
vt 0.38461539 1
vt 0.46153846 0.625
vt 0.46153846 0.75
vt 0.46153846 0.875
vt 0.46153846 1
vt 0.53846157 0.625
vt 0.53846157 0.75
vt 0.53846157 0.875
vt 0.53846157 1
vt 0.61538464 0.125
vt 0.61538464 0.25
vt 0.61538464 0.375
vt 0.61538464 0.5
vt 0.61538464 0.625
vt 0.61538464 0.75
vt 0.61538464 0.875
vt 0.61538464 1
vt 0.69230771 0.125
vt 0.69230771 0.25
vt 0.69230771 0.375
vt 0.69230771 0.5
vt 0.69230771 0.625
vt 0.69230771 0.75
vt 0.69230771 0.875
vt 0.69230771 1
vt 0.76923078 0.125
vt 0.76923078 0.25
vt 0.76923078 0.375
vt 0.76923078 0.5
vt 0.76923078 0.625
vt 0.76923078 0.75
vt 0.76923078 0.875
vt 0.76923078 1
vt 0.84615386 0.125
vt 0.84615386 0.25
vt 0.84615386 0.375
vt 0.84615386 0.5
vt 0.84615386 0.625
vt 0.84615386 0.75
vt 0.84615386 0.875
vt 0.84615386 1
vt 0.92307693 0.125
vt 0.92307693 0.25
vt 0.92307693 0.375
vt 0.92307693 0.5
vt 0.92307693 0.625
vt 0.92307693 0.75
vt 0.92307693 0.875
vt 0.92307693 1
vt 1 0
vt 1 0.125
vt 1 0.25
vt 1 0.375
vt 1 0.5
vt 1 0.625
vt 1 0.75
vt 1 0.875
vt 1 1
vt 0 0
vt 0.055555556 0
vt 0.11111111 0
vt 0.16666667 0
vt 0.22222222 0
vt 0.27777779 0
vt 0.33333334 0
vt 0.3888889 0
vt 0.44444445 0
vt 0.5 0
vt 0.55555558 0
vt 0.6111111 0
vt 0.66666669 0
vt 0.72222221 0
vt 0.77777779 0
vt 0.83333331 0
vt 0.8888889 0
vt 0.94444442 0
vt 0.24418309 0.0029960193
vt 0.24418309 0.1229866
vt 0.24418309 0.24297717
vt 0.24418309 0.36296776
vt 0.24418309 0.48295832
vt 0.28526545 0.48295832
vt 0.32634783 0.48295832
vt 0.32634783 0.36296776
vt 0.32634783 0.24297717
vt 0.32634783 0.1229866
vt 0.32634783 0.0029960193
vt 0.28526545 0.0029960193
vt 0.42905372 0.0051931003
vt 0.42905372 0.12494399
vt 0.42905372 0.24469489
vt 0.42905372 0.36444578
vt 0.42905372 0.48419669
vt 0.46897385 0.48419669
vt 0.50889397 0.48419669
vt 0.54881412 0.48419669
vt 0.54881412 0.36444578
vt 0.54881412 0.24469489
vt 0.54881412 0.12494399
vt 0.54881412 0.0051931003
vt 0.50889397 0.0051931003
vt 0.46897385 0.0051931003
vt 0.23076923 0.125
vt 0.38461539 0.125
vt 0.23076923 0.375
vt 0.23076923 0.5
vt 0.38461539 0.375
vn 0.81624246 0 -0.5777095
vn 0.81624246 0 -0.5777095
vn 0.81624246 0 -0.5777095
vn 0.81624246 0 -0.5777095
vn 0.81624246 0 -0.5777095
vn 0.81624246 0 -0.5777095
vn 0.81624246 0 -0.5777095
vn 0.81624246 0 -0.5777095
vn 0.81624246 0 -0.5777095
vn 0.81624246 0 -0.5777095
vn 0.81624246 0 -0.5777095
vn 0.81624246 0 -0.5777095
vn 0.81624246 0 -0.5777095
vn 0.81624246 0 -0.5777095
vn 0.81624246 0 -0.5777095
vn 0.81624246 0 -0.5777095
vn 0.81624246 0 -0.5777095
vn 0.81624246 0 -0.5777095
vn 0.81624246 0 -0.5777095
vn 0.81624246 0 -0.5777095
vn 0.81624246 0 -0.5777095
vn 0.81624246 0 -0.5777095
vn 0.81624246 0 -0.5777095
vn 0.81624246 0 -0.5777095
vn 0.81624246 0 -0.5777095
vn 0.81624246 0 -0.5777095
vn 0.81624246 0 -0.5777095
vn 0.81624246 0 -0.5777095
vn 0.81624246 0 -0.5777095
vn 0.81624246 0 -0.5777095
vn 0.81624246 0 -0.5777095
vn 0.81624246 0 -0.5777095
vn 0.81624246 0 -0.5777095
vn 0.81624246 0 -0.5777095
vn 0.81624246 0 -0.5777095
vn 0.81624246 0 -0.5777095
vn 0.81624246 0 -0.5777095
vn 0.81624246 0 -0.5777095
vn 0.81624246 0 -0.5777095
vn 0.81624246 0 -0.5777095
vn 0.81624246 0 -0.5777095
vn 0.81624246 0 -0.5777095
vn 0.81624246 0 -0.5777095
vn 0.81624246 0 -0.5777095
vn 0.81624246 0 -0.5777095
vn 0.81624246 0 -0.5777095
vn 0.81624246 0 -0.5777095
vn 0.81624246 0 -0.5777095
vn 0.81624246 0 -0.5777095
vn 0.81624246 0 -0.5777095
vn 0.81624246 0 -0.5777095
vn 0.81624246 0 -0.5777095
vn 0.81624246 0 -0.5777095
vn 0.81624246 0 -0.5777095
vn 0.81624246 0 -0.5777095
vn 0.81624246 0 -0.5777095
vn 0.81624246 0 -0.5777095
vn 0.81624246 0 -0.5777095
vn 0.81624246 0 -0.5777095
vn 0.81624246 0 -0.5777095
vn 0.81624246 0 -0.5777095
vn 0.81624246 0 -0.5777095
vn 0.81624246 0 -0.5777095
vn 0.81624246 0 -0.5777095
vn 0.81624246 0 -0.5777095
vn 0.81624246 0 -0.5777095
vn 0.81624246 0 -0.5777095
vn 0.81624246 0 -0.5777095
vn 0.81624246 0 -0.5777095
vn 0.81624246 0 -0.5777095
vn 0.81624246 0 -0.5777095
vn 0.81624246 0 -0.5777095
vn 0.81624246 0 -0.5777095
vn 0.81624246 0 -0.5777095
vn 0.81624246 0 -0.5777095
vn 0.81624246 0 -0.5777095
vn 0.81624246 0 -0.5777095
vn 0.81624246 0 -0.5777095
vn 0.81624246 0 -0.5777095
vn 0.81624246 0 -0.5777095
vn 0.81624246 0 -0.5777095
vn 0.81624246 0 -0.5777095
vn 0.81624246 0 -0.5777095
vn 0.81624246 0 -0.5777095
vn 0.81624246 0 -0.5777095
vn 0.81624246 0 -0.5777095
vn 0.81624246 0 -0.5777095
vn 0.81624246 0 -0.5777095
vn 0.81624246 0 -0.5777095
vn 0.81624246 0 -0.5777095
vn 0.81624246 0 -0.5777095
vn 0.81624246 0 -0.5777095
vn 0.81624246 0 -0.5777095
vn 0.81624246 0 -0.5777095
vn 0.81624246 0 -0.5777095
vn 0.81624246 0 -0.5777095
vn 0.81624246 0 -0.5777095
vn 0.81624246 0 -0.5777095
vn 0.81624246 0 -0.5777095
vn 0.81624246 0 -0.5777095
vn 0.81624246 0 -0.5777095
vn 0.81624246 0 -0.5777095
vn 0.81624246 0 -0.5777095
vn 0.81624246 0 -0.5777095
vn 0.81624246 0 -0.5777095
vn 0.81624246 0 -0.5777095
vn 0.81624246 0 -0.5777095
vn 0.81624246 0 -0.5777095
vn 0.81624246 0 -0.5777095
vn 0.81624246 0 -0.5777095
vn 0.81624246 0 -0.5777095
vn 0.81624246 0 -0.5777095
vn 0.81624246 0 -0.5777095
vn 0.81624246 0 -0.5777095
vn 0.81624246 0 -0.5777095
vn 0.81624246 0 -0.5777095
vn 0.81624246 0 -0.5777095
vn 0.81624246 0 -0.5777095
vn 0.81624246 0 -0.5777095
vn 0.81624246 0 -0.5777095
vn 0.81624246 0 -0.5777095
vn 0.81624246 0 -0.5777095
vn 0.81624246 0 -0.5777095
vn 0.81624246 0 -0.5777095
vn 0.81624246 0 -0.5777095
vn 0.81624246 0 -0.5777095
vn 0.81624246 0 -0.5777095
vn 0.81624246 0 -0.5777095
vn 0.81624246 0 -0.5777095
vn 0.81624246 0 -0.5777095
vn 0.81624246 0 -0.5777095
vn 0.81624246 0 -0.5777095
vn 0.81624246 0 -0.5777095
vn 0.81624246 0 -0.5777095
vn 0.81624246 0 -0.5777095
vn 0.81624246 0 -0.5777095
vn 0.81624246 0 -0.5777095
vn 0.81624246 0 -0.5777095
vn 0.81624246 0 -0.5777095
vn 0.81624246 0 -0.5777095
vn 0.81624246 0 -0.5777095
vn 0.81624246 0 -0.5777095
vn 0.81624246 0 -0.5777095
f 391/391/391 383/383/383 382/382/382 390/390/390
f 392/392/392 384/384/384 383/383/383 391/391/391
f 393/393/393 385/385/385 384/384/384 392/392/392
f 394/394/394 386/386/386 385/385/385 393/393/393
f 395/395/395 387/387/387 386/386/386 394/394/394
f 396/396/396 388/388/388 387/387/387 395/395/395
f 397/397/397 389/389/389 388/388/388 396/396/396
f 399/399/399 391/391/391 390/390/390 398/398/398
f 400/400/400 392/392/392 391/391/391 399/399/399
f 401/401/401 393/393/393 392/392/392 400/400/400
f 402/402/402 394/394/394 393/393/393 401/401/401
f 403/403/403 395/395/395 394/394/394 402/402/402
f 404/404/404 396/396/396 395/395/395 403/403/403
f 405/405/405 397/397/397 396/396/396 404/404/404
f 406/406/406 402/402/402 401/401/401
f 407/407/407 403/403/403 402/402/402 406/406/406
f 408/408/408 404/404/404 403/403/403 407/407/407
f 409/409/409 405/405/405 404/404/404 408/408/408
f 411/411/411 407/407/407 406/406/406 410/410/410
f 412/412/412 408/408/408 407/407/407 411/411/411
f 413/413/413 409/409/409 408/408/408 412/412/412
f 414/414/414 415/415/415 410/410/410
f 416/416/416 411/411/411 410/410/410 415/415/415
f 417/417/417 412/412/412 411/411/411 416/416/416
f 418/418/418 413/413/413 412/412/412 417/417/417
f 420/420/420 416/416/416 415/415/415 419/419/419
f 421/421/421 417/417/417 416/416/416 420/420/420
f 422/422/422 418/418/418 417/417/417 421/421/421
f 424/424/424 420/420/420 419/419/419 423/423/423
f 425/425/425 421/421/421 420/420/420 424/424/424
f 426/426/426 422/422/422 421/421/421 425/425/425
f 430/430/430 431/431/431 423/423/423
f 432/432/432 424/424/424 423/423/423 431/431/431
f 433/433/433 425/425/425 424/424/424 432/432/432
f 434/434/434 426/426/426 425/425/425 433/433/433
f 436/436/436 428/428/428 427/427/427 435/435/435
f 437/437/437 429/429/429 428/428/428 436/436/436
f 438/438/438 430/430/430 429/429/429 437/437/437
f 439/439/439 431/431/431 430/430/430 438/438/438
f 440/440/440 432/432/432 431/431/431 439/439/439
f 441/441/441 433/433/433 432/432/432 440/440/440
f 442/442/442 434/434/434 433/433/433 441/441/441
f 444/444/444 436/436/436 435/435/435 443/443/443
f 445/445/445 437/437/437 436/436/436 444/444/444
f 446/446/446 438/438/438 437/437/437 445/445/445
f 447/447/447 439/439/439 438/438/438 446/446/446
f 448/448/448 440/440/440 439/439/439 447/447/447
f 449/449/449 441/441/441 440/440/440 448/448/448
f 450/450/450 442/442/442 441/441/441 449/449/449
f 452/452/452 444/444/444 443/443/443 451/451/451
f 453/453/453 445/445/445 444/444/444 452/452/452
f 454/454/454 446/446/446 445/445/445 453/453/453
f 455/455/455 447/447/447 446/446/446 454/454/454
f 456/456/456 448/448/448 447/447/447 455/455/455
f 457/457/457 449/449/449 448/448/448 456/456/456
f 458/458/458 450/450/450 449/449/449 457/457/457
f 460/460/460 452/452/452 451/451/451 459/459/459
f 461/461/461 453/453/453 452/452/452 460/460/460
f 462/462/462 454/454/454 453/453/453 461/461/461
f 463/463/463 455/455/455 454/454/454 462/462/462
f 464/464/464 456/456/456 455/455/455 463/463/463
f 465/465/465 457/457/457 456/456/456 464/464/464
f 466/466/466 458/458/458 457/457/457 465/465/465
f 469/469/469 460/460/460 459/459/459 468/468/468
f 470/470/470 461/461/461 460/460/460 469/469/469
f 471/471/471 462/462/462 461/461/461 470/470/470
f 472/472/472 463/463/463 462/462/462 471/471/471
f 473/473/473 464/464/464 463/463/463 472/472/472
f 474/474/474 465/465/465 464/464/464 473/473/473
f 475/475/475 466/466/466 465/465/465 474/474/474
f 476/476/476 477/477/477 390/390/390 382/382/382
f 398/398/398 478/478/478 479/479/479
f 390/390/390 477/477/477 478/478/478
f 479/479/479 480/480/480 520/520/520 398/398/398
f 478/478/478 398/398/398 390/390/390
f 505/505/505 494/494/494 481/481/481
f 480/480/480 481/481/481 494/494/494
f 481/481/481 482/482/482 504/504/504 505/505/505
f 482/482/482 521/521/521 503/503/503
f 495/495/495 496/496/496 520/520/520
f 495/495/495 520/520/520 494/494/494
f 482/482/482 503/503/503 504/504/504
f 521/521/521 482/482/482 483/483/483
f 480/480/480 494/494/494 520/520/520
f 399/399/399 398/398/398 520/520/520
f 399/399/399 522/522/522 400/400/400
f 399/399/399 520/520/520 522/522/522
f 522/522/522 520/520/520 496/496/496 497/497/497
f 522/522/522 523/523/523 401/401/401 400/400/400
f 499/499/499 406/406/406 523/523/523
f 523/523/523 522/522/522 497/497/497 498/498/498
f 498/498/498 499/499/499 523/523/523
f 401/401/401 523/523/523 406/406/406
f 524/524/524 501/501/501 502/502/502
f 502/502/502 521/521/521 524/524/524
f 524/524/524 521/521/521 508/508/508 509/509/509
f 500/500/500 501/501/501 524/524/524 414/414/414
f 406/406/406 499/499/499 410/410/410
f 500/500/500 410/410/410 499/499/499
f 414/414/414 510/510/510 415/415/415
f 500/500/500 414/414/414 410/410/410
f 414/414/414 524/524/524 509/509/509 510/510/510
f 503/503/503 521/521/521 502/502/502
f 521/521/521 483/483/483 506/506/506
f 519/519/519 506/506/506 484/484/484
f 483/483/483 484/484/484 506/506/506
f 484/484/484 485/485/485 518/518/518 519/519/519
f 485/485/485 486/486/486 517/517/517 518/518/518
f 486/486/486 516/516/516 517/517/517
f 516/516/516 486/486/486 427/427/427
f 521/521/521 506/506/506 507/507/507
f 487/487/487 488/488/488 435/435/435 427/427/427
f 489/489/489 435/435/435 488/488/488
f 490/490/490 491/491/491 451/451/451 443/443/443
f 443/443/443 489/489/489 490/490/490
f 492/492/492 451/451/451 491/491/491
f 493/493/493 459/459/459 492/492/492
f 493/493/493 467/467/467 468/468/468 459/459/459
f 486/486/486 487/487/487 427/427/427
f 515/515/515 516/516/516 427/427/427 428/428/428
f 514/514/514 515/515/515 428/428/428 429/429/429
f 415/415/415 510/510/510 419/419/419
f 511/511/511 419/419/419 510/510/510
f 423/423/423 419/419/419 511/511/511 512/512/512
f 512/512/512 513/513/513 423/423/423
f 489/489/489 443/443/443 435/435/435
f 492/492/492 459/459/459 451/451/451
f 513/513/513 514/514/514 429/429/429 430/430/430
f 423/423/423 513/513/513 430/430/430
f 521/521/521 507/507/507 508/508/508
o WallSurface_05
v 17.720116 -0.49200001 -5.7562766
v 17.720116 0 -5.7562766
v 16.19577 -0.49200001 -7.9100156
v 14.671425 -0.49200001 -10.063754
v 13.147079 -0.49200001 -12.217493
v 11.622734 -0.49200001 -14.371232
v 10.098389 -0.49200001 -16.524971
v 10.098389 0 -16.524971
v 11.187206 0 -14.986587
v 12.276025 0 -13.448201
v 13.364843 0 -11.909817
v 14.453661 0 -10.371431
v 15.54248 0 -8.8330469
v 16.631298 0 -7.2946615
vt 0 0
vt 0 1
vt 0.2 0
vt 0.40000001 0
vt 0.60000002 0
vt 0.80000001 0
vt 1 0
vt 1 1
vt 0.85714287 1
vt 0.71428573 1
vt 0.5714286 1
vt 0.42857143 1
vt 0.2857143 1
vt 0.14285715 1
vn 0.81624246 0 -0.5777095
vn 0.81624246 0 -0.5777095
vn 0.81624246 0 -0.5777095
vn 0.81624246 0 -0.5777095
vn 0.81624246 0 -0.5777095
vn 0.81624246 0 -0.5777095
vn 0.81624246 0 -0.5777095
vn 0.81624246 0 -0.5777095
vn 0.81624246 0 -0.5777095
vn 0.81624246 0 -0.5777095
vn 0.81624246 0 -0.5777095
vn 0.81624246 0 -0.5777095
vn 0.81624246 0 -0.5777095
vn 0.81624246 0 -0.5777095
f 525/525/525 527/527/527 538/538/538 526/526/526
f 527/527/527 528/528/528 536/536/536 537/537/537
f 537/537/537 538/538/538 527/527/527
f 535/535/535 536/536/536 528/528/528 529/529/529
f 529/529/529 530/530/530 534/534/534 535/535/535
f 530/530/530 531/531/531 532/532/532 533/533/533
f 533/533/533 534/534/534 530/530/530
o WallSurface_02
v 5.3674269 6.4697366 -13.176553
v 6.0528784 7.3939848 -13.661693
v 6.0528784 6.4697366 -13.661693
v 6.7383304 8.3182325 -14.146832
v 6.7383304 7.3939848 -14.146832
v 6.7383304 6.4697366 -14.146832
v 6.7383304 5.5454888 -14.146832
v 7.4237823 7.3939848 -14.631973
v 7.4237823 6.4697366 -14.631973
v 10.098389 0 -16.524971
v 9.5383787 0 -16.128614
v 8.9783688 0 -15.732259
v 8.4183598 0 -15.335902
v 7.8583498 0 -14.939546
v 7.2983398 0 -14.543189
v 6.7383304 0 -14.146832
v 6.1783209 0 -13.750477
v 5.6183109 0 -13.35412
v 5.0583014 0 -12.957764
v 4.498292 0 -12.561407
v 3.9382823 0 -12.165051
v 3.3782725 0 -11.768695
v 3.3782725 0.63157094 -11.768695
v 3.3782725 1.2631419 -11.768695
v 3.3782725 1.8947128 -11.768695
v 3.3782725 2.5262837 -11.768695
v 3.3782725 3.1578546 -11.768695
v 3.3782725 3.7894256 -11.768695
v 3.3782725 4.4209967 -11.768695
v 3.3782725 5.0525675 -11.768695
v 3.7495258 5.5074043 -12.031455
v 4.120779 5.9622412 -12.294216
v 4.4920325 6.417078 -12.556977
v 4.863286 6.8719153 -12.819738
v 5.2345395 7.3267522 -13.0825
v 5.6057925 7.781589 -13.34526
v 5.977046 8.2364264 -13.608021
v 6.3482995 8.6912632 -13.870782
v 6.719553 9.1461 -14.133543
v 7.0949788 8.6861601 -14.399257
v 7.4704051 8.2262211 -14.664971
v 7.8458314 7.7662811 -14.930686
v 8.2212572 7.3063412 -15.1964
v 8.5966835 6.8464017 -15.462114
v 8.9721098 6.3864622 -15.727828
v 9.3475361 5.9265223 -15.993543
v 9.7229624 5.4665828 -16.259256
v 10.098389 5.0066433 -16.524971
v 10.098389 4.3808126 -16.524971
v 10.098389 3.7549822 -16.524971
v 10.098389 3.1291521 -16.524971
v 10.098389 2.5033216 -16.524971
v 10.098389 1.8774911 -16.524971
v 10.098389 1.2516608 -16.524971
v 10.098389 0.62583041 -16.524971
v 3.9198413 0.074000001 -12.151999
v 4.4657035 0.074000001 -12.538342
v 5.0115657 0.074000001 -12.924685
v 5.5574274 0.074000001 -13.311028
v 6.1032896 0.074000001 -13.697372
v 6.1032896 0.72175002 -13.697372
v 6.1032896 1.3695 -13.697372
v 6.1032896 2.0172501 -13.697372
v 6.1032896 2.665 -13.697372
v 5.5574274 2.665 -13.311028
v 5.0115657 2.665 -12.924685
v 4.4657035 2.665 -12.538342
v 3.9198413 2.665 -12.151999
v 3.9198413 2.0172501 -12.151999
v 3.9198413 1.3695 -12.151999
v 3.9198413 0.72175002 -12.151999
v 4.6748652 3.1919999 -12.68638
v 5.1510067 3.1919999 -13.023377
v 5.6271482 3.1919999 -13.360374
v 6.1032896 3.1919999 -13.697372
v 6.1032896 3.74525 -13.697372
v 6.1032896 4.2985001 -13.697372
v 6.1032896 4.8517499 -13.697372
v 6.1032896 5.4050002 -13.697372
v 5.6271482 5.4050002 -13.360374
v 5.1510067 5.4050002 -13.023377
v 4.6748652 5.4050002 -12.68638
v 4.6748652 4.8517499 -12.68638
v 4.6748652 4.2985001 -12.68638
v 4.6748652 3.74525 -12.68638
v 7.3358159 3.1919999 -14.569714
v 7.8119574 3.1919999 -14.906711
v 8.2880983 3.1919999 -15.243708
v 8.7642403 3.1919999 -15.580705
v 8.7642403 3.74525 -15.580705
v 8.7642403 4.2985001 -15.580705
v 8.7642403 4.8517499 -15.580705
v 8.7642403 5.4050002 -15.580705
v 8.2880983 5.4050002 -15.243708
v 7.8119574 5.4050002 -14.906711
v 7.3358159 5.4050002 -14.569714
v 7.3358159 4.8517499 -14.569714
v 7.3358159 4.2985001 -14.569714
v 7.3358159 3.74525 -14.569714
v 7.3358159 0.074000001 -14.569714
v 7.8816781 0.074000001 -14.956057
v 8.4275398 0.074000001 -15.3424
v 8.973402 0.074000001 -15.728744
v 9.5192642 0.074000001 -16.115086
v 9.5192642 0.72175002 -16.115086
v 9.5192642 1.3695 -16.115086
v 9.5192642 2.0172501 -16.115086
v 9.5192642 2.665 -16.115086
v 8.973402 2.665 -15.728744
v 8.4275398 2.665 -15.3424
v 7.8816781 2.665 -14.956057
v 7.3358159 2.665 -14.569714
v 7.3358159 2.0172501 -14.569714
v 7.3358159 1.3695 -14.569714
v 7.3358159 0.72175002 -14.569714
v 5.3674269 2.7727444 -13.176553
v 3.9965231 2.7727444 -12.206272
v 6.7383304 3.6969924 -14.146832
v 6.0528784 2.7727444 -13.661693
v 6.7383304 2.7727444 -14.146832
v 6.7383304 1.8484962 -14.146832
v 6.7383304 0.9242481 -14.146832
v 8.1092339 6.4697366 -15.117113
v 8.7946863 5.5454888 -15.602254
v 8.1092339 2.7727444 -15.117113
v 7.4237823 2.7727444 -14.631973
v 8.7946863 3.6969924 -15.602254
v 8.7946863 2.7727444 -15.602254
v 9.4801378 2.7727444 -16.087395
vt 0.30000001 0.30000001
vt 0.40000001 0.2
vt 0.40000001 0.30000001
vt 0.5 0.1
vt 0.5 0.2
vt 0.5 0.30000001
vt 0.5 0.40000001
vt 0.60000002 0.2
vt 0.60000002 0.30000001
vt 0.99019605 1
vt 0.90849674 1
vt 0.82679737 1
vt 0.74509805 1
vt 0.66339868 1
vt 0.58169937 1
vt 0.5 1
vt 0.41830066 1
vt 0.33660132 1
vt 0.25490198 1
vt 0.17320262 1
vt 0.09150327 1
vt 0.0098039219 1
vt 0.0098039219 0.93166649
vt 0.0098039219 0.86333305
vt 0.0098039219 0.79499954
vt 0.0098039219 0.72666609
vt 0.0098039219 0.65833259
vt 0.0098039219 0.58999908
vt 0.0098039219 0.52166563
vt 0.0098039219 0.45333213
vt 0.063965768 0.40412056
vt 0.11812761 0.354909
vt 0.17228946 0.30569744
vt 0.22645131 0.25648588
vt 0.28061315 0.2072743
vt 0.334775 0.15806274
vt 0.38893685 0.10885117
vt 0.44309869 0.05963961
vt 0.49726054 0.010428044
vt 0.55203116 0.060191702
vt 0.60680175 0.10995536
vt 0.6615724 0.15971902
vt 0.71634299 0.20948267
vt 0.77111363 0.25924632
vt 0.82588422 0.30901
vt 0.88065487 0.35877365
vt 0.93542546 0.4085373
vt 0.99019605 0.45830095
vt 0.99019605 0.52601331
vt 0.99019605 0.59372574
vt 0.99019605 0.66143811
vt 0.99019605 0.72915047
vt 0.99019605 0.79686284
vt 0.99019605 0.86457527
vt 0.99019605 0.93228763
vt 0.088812932 0.99199349
vt 0.16844831 0.99199349
vt 0.24808368 0.99199349
vt 0.32771906 0.99199349
vt 0.40735444 0.99199349
vt 0.40735444 0.92190951
vt 0.40735444 0.85182548
vt 0.40735444 0.7817415
vt 0.40735444 0.71165752
vt 0.32771906 0.71165752
vt 0.24808368 0.71165752
vt 0.16844831 0.71165752
vt 0.088812932 0.71165752
vt 0.088812932 0.7817415
vt 0.088812932 0.85182548
vt 0.088812932 0.92190951
vt 0.19896279 0.65463817
vt 0.26842669 0.65463817
vt 0.33789057 0.65463817
vt 0.40735444 0.65463817
vt 0.40735444 0.59477872
vt 0.40735444 0.53491926
vt 0.40735444 0.47505978
vt 0.40735444 0.41520032
vt 0.33789057 0.41520032
vt 0.26842669 0.41520032
vt 0.19896279 0.41520032
vt 0.19896279 0.47505978
vt 0.19896279 0.53491926
vt 0.19896279 0.59477872
vt 0.58716667 0.65463817
vt 0.65663052 0.65463817
vt 0.72609442 0.65463817
vt 0.79555827 0.65463817
vt 0.79555827 0.59477872
vt 0.79555827 0.53491926
vt 0.79555827 0.47505978
vt 0.79555827 0.41520032
vt 0.72609442 0.41520032
vt 0.65663052 0.41520032
vt 0.58716667 0.41520032
vt 0.58716667 0.47505978
vt 0.58716667 0.53491926
vt 0.58716667 0.59477872
vt 0.58716667 0.99199349
vt 0.66680205 0.99199349
vt 0.74643743 0.99199349
vt 0.82607275 0.99199349
vt 0.90570813 0.99199349
vt 0.90570813 0.92190951
vt 0.90570813 0.85182548
vt 0.90570813 0.7817415
vt 0.90570813 0.71165752
vt 0.82607275 0.71165752
vt 0.74643743 0.71165752
vt 0.66680205 0.71165752
vt 0.58716667 0.71165752
vt 0.58716667 0.7817415
vt 0.58716667 0.85182548
vt 0.58716667 0.92190951
vt 0.30000001 0.69999999
vt 0.1 0.69999999
vt 0.5 0.60000002
vt 0.40000001 0.69999999
vt 0.5 0.69999999
vt 0.5 0.80000001
vt 0.5 0.89999998
vt 0.69999999 0.30000001
vt 0.80000001 0.40000001
vt 0.69999999 0.69999999
vt 0.60000002 0.69999999
vt 0.80000001 0.60000002
vt 0.80000001 0.69999999
vt 0.89999998 0.69999999
vn -0.5777095 0 -0.81624246
vn -0.5777095 0 -0.81624246
vn -0.5777095 0 -0.81624246
vn -0.5777095 0 -0.81624246
vn -0.5777095 0 -0.81624246
vn -0.5777095 0 -0.81624246
vn -0.5777095 0 -0.81624246
vn -0.5777095 0 -0.81624246
vn -0.5777095 0 -0.81624246
vn -0.5777095 0 -0.81624246
vn -0.5777095 0 -0.81624246
vn -0.5777095 0 -0.81624246
vn -0.5777095 0 -0.81624246
vn -0.5777095 0 -0.81624246
vn -0.5777095 0 -0.81624246
vn -0.5777095 0 -0.81624246
vn -0.5777095 0 -0.81624246
vn -0.5777095 0 -0.81624246
vn -0.5777095 0 -0.81624246
vn -0.5777095 0 -0.81624246
vn -0.5777095 0 -0.81624246
vn -0.5777095 0 -0.81624246
vn -0.5777095 0 -0.81624246
vn -0.5777095 0 -0.81624246
vn -0.5777095 0 -0.81624246
vn -0.5777095 0 -0.81624246
vn -0.5777095 0 -0.81624246
vn -0.5777095 0 -0.81624246
vn -0.5777095 0 -0.81624246
vn -0.5777095 0 -0.81624246
vn -0.5777095 0 -0.81624246
vn -0.5777095 0 -0.81624246
vn -0.5777095 0 -0.81624246
vn -0.5777095 0 -0.81624246
vn -0.5777095 0 -0.81624246
vn -0.5777095 0 -0.81624246
vn -0.5777095 0 -0.81624246
vn -0.5777095 0 -0.81624246
vn -0.5777095 0 -0.81624246
vn -0.5777095 0 -0.81624246
vn -0.5777095 0 -0.81624246
vn -0.5777095 0 -0.81624246
vn -0.5777095 0 -0.81624246
vn -0.5777095 0 -0.81624246
vn -0.5777095 0 -0.81624246
vn -0.5777095 0 -0.81624246
vn -0.5777095 0 -0.81624246
vn -0.5777095 0 -0.81624246
vn -0.5777095 0 -0.81624246
vn -0.5777095 0 -0.81624246
vn -0.5777095 0 -0.81624246
vn -0.5777095 0 -0.81624246
vn -0.5777095 0 -0.81624246
vn -0.5777095 0 -0.81624246
vn -0.5777095 0 -0.81624246
vn -0.5777095 0 -0.81624246
vn -0.5777095 0 -0.81624246
vn -0.5777095 0 -0.81624246
vn -0.5777095 0 -0.81624246
vn -0.5777095 0 -0.81624246
vn -0.5777095 0 -0.81624246
vn -0.5777095 0 -0.81624246
vn -0.5777095 0 -0.81624246
vn -0.5777095 0 -0.81624246
vn -0.5777095 0 -0.81624246
vn -0.5777095 0 -0.81624246
vn -0.5777095 0 -0.81624246
vn -0.5777095 0 -0.81624246
vn -0.5777095 0 -0.81624246
vn -0.5777095 0 -0.81624246
vn -0.5777095 0 -0.81624246
vn -0.5777095 0 -0.81624246
vn -0.5777095 0 -0.81624246
vn -0.5777095 0 -0.81624246
vn -0.5777095 0 -0.81624246
vn -0.5777095 0 -0.81624246
vn -0.5777095 0 -0.81624246
vn -0.5777095 0 -0.81624246
vn -0.5777095 0 -0.81624246
vn -0.5777095 0 -0.81624246
vn -0.5777095 0 -0.81624246
vn -0.5777095 0 -0.81624246
vn -0.5777095 0 -0.81624246
vn -0.5777095 0 -0.81624246
vn -0.5777095 0 -0.81624246
vn -0.5777095 0 -0.81624246
vn -0.5777095 0 -0.81624246
vn -0.5777095 0 -0.81624246
vn -0.5777095 0 -0.81624246
vn -0.5777095 0 -0.81624246
vn -0.5777095 0 -0.81624246
vn -0.5777095 0 -0.81624246
vn -0.5777095 0 -0.81624246
vn -0.5777095 0 -0.81624246
vn -0.5777095 0 -0.81624246
vn -0.5777095 0 -0.81624246
vn -0.5777095 0 -0.81624246
vn -0.5777095 0 -0.81624246
vn -0.5777095 0 -0.81624246
vn -0.5777095 0 -0.81624246
vn -0.5777095 0 -0.81624246
vn -0.5777095 0 -0.81624246
vn -0.5777095 0 -0.81624246
vn -0.5777095 0 -0.81624246
vn -0.5777095 0 -0.81624246
vn -0.5777095 0 -0.81624246
vn -0.5777095 0 -0.81624246
vn -0.5777095 0 -0.81624246
vn -0.5777095 0 -0.81624246
vn -0.5777095 0 -0.81624246
vn -0.5777095 0 -0.81624246
vn -0.5777095 0 -0.81624246
vn -0.5777095 0 -0.81624246
vn -0.5777095 0 -0.81624246
vn -0.5777095 0 -0.81624246
vn -0.5777095 0 -0.81624246
vn -0.5777095 0 -0.81624246
vn -0.5777095 0 -0.81624246
vn -0.5777095 0 -0.81624246
vn -0.5777095 0 -0.81624246
vn -0.5777095 0 -0.81624246
vn -0.5777095 0 -0.81624246
vn -0.5777095 0 -0.81624246
vn -0.5777095 0 -0.81624246
vn -0.5777095 0 -0.81624246
vn -0.5777095 0 -0.81624246
vn -0.5777095 0 -0.81624246
vn -0.5777095 0 -0.81624246
vn -0.5777095 0 -0.81624246
f 540/540/540 541/541/541 539/539/539
f 542/542/542 543/543/543 540/540/540
f 544/544/544 541/541/541 540/540/540 543/543/543
f 541/541/541 544/544/544 545/545/545
f 547/547/547 544/544/544 543/543/543 546/546/546
f 545/545/545 544/544/544 547/547/547
f 620/620/620 570/570/570 571/571/571
f 621/621/621 569/569/569 620/620/620
f 570/570/570 620/620/620 569/569/569
f 620/620/620 571/571/571 619/619/619
f 539/539/539 572/572/572 573/573/573
f 539/539/539 619/619/619 571/571/571
f 539/539/539 573/573/573 540/540/540
f 572/572/572 539/539/539 571/571/571
f 568/568/568 569/569/569 567/567/567
f 621/621/621 567/567/567 569/569/569
f 566/566/566 567/567/567 622/622/622 623/623/623
f 622/622/622 567/567/567 621/621/621
f 654/654/654 655/655/655 610/610/610 611/611/611
f 655/655/655 566/566/566 623/623/623
f 610/610/610 655/655/655 623/623/623
f 618/618/618 619/619/619 539/539/539
f 540/540/540 574/574/574 575/575/575
f 540/540/540 575/575/575 542/542/542
f 539/539/539 541/541/541 617/617/617 618/618/618
f 542/542/542 576/576/576 577/577/577
f 579/579/579 543/543/543 542/542/542
f 542/542/542 577/577/577 578/578/578
f 576/576/576 542/542/542 575/575/575
f 616/616/616 617/617/617 545/545/545
f 616/616/616 656/656/656 615/615/615
f 545/545/545 656/656/656 616/616/616
f 615/615/615 656/656/656 614/614/614
f 656/656/656 635/635/635 636/636/636
f 617/617/617 541/541/541 545/545/545
f 656/656/656 613/613/613 614/614/614
f 573/573/573 574/574/574 540/540/540
f 654/654/654 611/611/611 612/612/612
f 564/564/564 565/565/565 606/606/606
f 655/655/655 606/606/606 565/565/565
f 563/563/563 564/564/564 606/606/606 607/607/607
f 566/566/566 655/655/655 565/565/565
f 607/607/607 608/608/608 562/562/562 563/563/563
f 655/655/655 605/605/605 606/606/606
f 561/561/561 562/562/562 608/608/608 609/609/609
f 560/560/560 561/561/561 609/609/609 594/594/594
f 594/594/594 595/595/595 558/558/558 559/559/559
f 595/595/595 596/596/596 557/557/557 558/558/558
f 560/560/560 594/594/594 559/559/559
f 654/654/654 657/657/657 602/602/602 603/603/603
f 657/657/657 654/654/654 612/612/612 613/613/613
f 654/654/654 603/603/603 604/604/604
f 655/655/655 654/654/654 604/604/604 605/605/605
f 657/657/657 658/658/658 602/602/602
f 656/656/656 658/658/658 613/613/613
f 601/601/601 602/602/602 658/658/658 659/659/659
f 600/600/600 601/601/601 659/659/659
f 613/613/613 658/658/658 657/657/657
f 596/596/596 597/597/597 556/556/556 557/557/557
f 660/660/660 599/599/599 600/600/600
f 555/555/555 556/556/556 597/597/597 598/598/598
f 599/599/599 555/555/555 598/598/598
f 555/555/555 599/599/599 554/554/554
f 658/658/658 656/656/656 637/637/637 624/624/624
f 546/546/546 543/543/543 579/579/579
f 547/547/547 633/633/633 634/634/634
f 547/547/547 634/634/634 545/545/545
f 547/547/547 546/546/546 661/661/661
f 545/545/545 634/634/634 635/635/635
f 580/580/580 581/581/581 546/546/546
f 662/662/662 632/632/632 661/661/661
f 581/581/581 661/661/661 546/546/546
f 579/579/579 580/580/580 546/546/546
f 661/661/661 633/633/633 547/547/547
f 545/545/545 635/635/635 656/656/656
f 656/656/656 636/636/636 637/637/637
f 661/661/661 632/632/632 633/633/633
f 663/663/663 664/664/664 624/624/624 625/625/625
f 658/658/658 664/664/664 650/650/650
f 582/582/582 661/661/661 581/581/581
f 624/624/624 664/664/664 658/658/658
f 632/632/632 662/662/662 631/631/631
f 662/662/662 661/661/661 583/583/583
f 662/662/662 630/630/630 631/631/631
f 585/585/585 662/662/662 584/584/584
f 662/662/662 583/583/583 584/584/584
f 665/665/665 587/587/587 588/588/588
f 585/585/585 587/587/587 665/665/665
f 586/586/586 587/587/587 585/585/585
f 665/665/665 628/628/628 629/629/629
f 666/666/666 663/663/663 626/626/626 627/627/627
f 627/627/627 628/628/628 665/665/665
f 665/665/665 629/629/629 630/630/630
f 667/667/667 627/627/627 665/665/665
f 665/665/665 588/588/588 667/667/667
f 585/585/585 665/665/665 662/662/662
f 630/630/630 662/662/662 665/665/665
f 663/663/663 625/625/625 626/626/626
f 661/661/661 582/582/582 583/583/583
f 667/667/667 588/588/588 589/589/589
f 659/659/659 658/658/658 650/650/650 651/651/651
f 600/600/600 659/659/659 660/660/660
f 660/660/660 659/659/659 651/651/651 652/652/652
f 648/648/648 649/649/649 663/663/663
f 649/649/649 650/650/650 664/664/664 663/663/663
f 653/653/653 660/660/660 652/652/652
f 653/653/653 638/638/638 554/554/554 660/660/660
f 638/638/638 553/553/553 554/554/554
f 552/552/552 553/553/553 638/638/638 639/639/639
f 639/639/639 640/640/640 551/551/551 552/552/552
f 550/550/550 551/551/551 640/640/640 641/641/641
f 599/599/599 660/660/660 554/554/554
f 627/627/627 667/667/667 666/666/666
f 666/666/666 667/667/667 646/646/646 647/647/647
f 667/667/667 589/589/589 646/646/646
f 590/590/590 591/591/591 645/645/645 646/646/646
f 591/591/591 592/592/592 644/644/644 645/645/645
f 646/646/646 589/589/589 590/590/590
f 549/549/549 550/550/550 641/641/641 642/642/642
f 642/642/642 643/643/643 593/593/593 548/548/548
f 548/548/548 549/549/549 642/642/642
f 592/592/592 593/593/593 643/643/643 644/644/644
f 647/647/647 648/648/648 666/666/666
f 663/663/663 666/666/666 648/648/648
f 578/578/578 579/579/579 542/542/542
o WallSurface_08
v 10.098389 0 -16.524971
v 10.098389 -0.49200001 -16.524971
v 8.4183598 -0.49200001 -15.335902
v 6.7383304 -0.49200001 -14.146832
v 5.0583014 -0.49200001 -12.957764
v 3.3782725 -0.49200001 -11.768695
v 3.3782725 0 -11.768695
v 5.0583014 0 -12.957764
v 6.7383304 0 -14.146832
v 8.4183598 0 -15.335902
vt 0.99019605 0
vt 0.99019605 0.83619285
vt 0.74509805 0.83619285
vt 0.5 0.83619285
vt 0.25490198 0.83619285
vt 0.0098039219 0.83619285
vt 0.0098039219 0
vt 0.25490198 0
vt 0.5 0
vt 0.74509805 0
vn -0.5777095 0 -0.81624246
vn -0.5777095 0 -0.81624246
vn -0.5777095 0 -0.81624246
vn -0.5777095 0 -0.81624246
vn -0.5777095 0 -0.81624246
vn -0.5777095 0 -0.81624246
vn -0.5777095 0 -0.81624246
vn -0.5777095 0 -0.81624246
vn -0.5777095 0 -0.81624246
vn -0.5777095 0 -0.81624246
f 674/674/674 675/675/675 672/672/672 673/673/673
f 675/675/675 676/676/676 671/671/671 672/672/672
f 677/677/677 668/668/668 669/669/669 670/670/670
f 670/670/670 671/671/671 676/676/676 677/677/677
o WallSurface_07
v 3.3782725 -0.49200001 -11.768695
v 3.3782725 0 -11.768695
v 4.9026179 -0.49200001 -9.6149559
v 6.4269633 -0.49200001 -7.4612169
v 7.9513092 -0.49200001 -5.307478
v 9.4756546 -0.49200001 -3.153739
v 11 -0.49200001 -1
v 11 0 -1
v 9.9111814 0 -2.5383849
v 8.8223639 0 -4.0767698
v 7.7335453 0 -5.6151547
v 6.6447272 0 -7.1535397
v 5.5559092 0 -8.691925
v 4.4670906 0 -10.230309
vt 0 0
vt 0 1
vt 0.2 0
vt 0.40000001 0
vt 0.60000002 0
vt 0.80000001 0
vt 1 0
vt 1 1
vt 0.85714287 1
vt 0.71428573 1
vt 0.5714286 1
vt 0.42857143 1
vt 0.2857143 1
vt 0.14285715 1
vn -0.81624246 0 0.5777095
vn -0.81624246 0 0.5777095
vn -0.81624246 0 0.5777095
vn -0.81624246 0 0.5777095
vn -0.81624246 0 0.5777095
vn -0.81624246 0 0.5777095
vn -0.81624246 0 0.5777095
vn -0.81624246 0 0.5777095
vn -0.81624246 0 0.5777095
vn -0.81624246 0 0.5777095
vn -0.81624246 0 0.5777095
vn -0.81624246 0 0.5777095
vn -0.81624246 0 0.5777095
vn -0.81624246 0 0.5777095
f 678/678/678 680/680/680 691/691/691 679/679/679
f 680/680/680 681/681/681 689/689/689 690/690/690
f 690/690/690 691/691/691 680/680/680
f 688/688/688 689/689/689 681/681/681 682/682/682
f 682/682/682 683/683/683 687/687/687 688/688/688
f 683/683/683 684/684/684 685/685/685 686/686/686
f 686/686/686 687/687/687 683/683/683
g nrg3_ZoneRoofSurface
o RoofSurface_02
v 11 5.0525675 -1
v 7.189136 5.0525675 -6.3843474
v 3.3782725 5.0525675 -11.768695
v 12.67064 7.0993338 -2.1824241
v 8.8597765 7.0993338 -7.5667715
v 5.0489125 7.0993338 -12.951118
v 14.34128 9.1461 -3.3648481
v 10.530416 9.1461 -8.7491951
v 6.719553 9.1461 -14.133543
vt 0 0
vt 0 0.5
vt 0 1
vt 0.5 0
vt 0.5 0.5
vt 0.5 1
vt 1 0
vt 1 0.5
vt 1 1
vn -0.57717359 0.70710307 0.40850446
vn -0.57717359 0.70710307 0.40850446
vn -0.57717359 0.70710307 0.40850446
vn -0.57717359 0.70710307 0.40850446
vn -0.57717359 0.70710307 0.40850446
vn -0.57717359 0.70710307 0.40850446
vn -0.57717359 0.70710307 0.40850446
vn -0.57717359 0.70710307 0.40850446
vn -0.57717359 0.70710307 0.40850446
f 696/696/696 693/693/693 692/692/692 695/695/695
f 697/697/697 694/694/694 693/693/693 696/696/696
f 699/699/699 696/696/696 695/695/695 698/698/698
f 700/700/700 697/697/697 696/696/696 699/699/699
g nrg3_ZoneWallSurface
o WallSurface_01
v 3.3782725 0 -11.768695
v 3.3782725 0.72179532 -11.768695
v 3.3782725 1.4435906 -11.768695
v 3.3782725 2.165386 -11.768695
v 3.3782725 2.8871813 -11.768695
v 3.3782725 3.6089766 -11.768695
v 3.3782725 4.3307719 -11.768695
v 3.3782725 5.0525675 -11.768695
v 4.4670906 0 -10.230309
v 4.4670906 0.72179532 -10.230309
v 4.4670906 1.4435906 -10.230309
v 4.4670906 2.165386 -10.230309
v 4.4670906 2.8871813 -10.230309
v 4.4670906 3.6089766 -10.230309
v 4.4670906 4.3307719 -10.230309
v 4.4670906 5.0525675 -10.230309
v 5.5559092 0 -8.691925
v 5.5559092 0.72179532 -8.691925
v 5.5559092 1.4435906 -8.691925
v 5.5559092 2.165386 -8.691925
v 5.5559092 2.8871813 -8.691925
v 5.5559092 3.6089766 -8.691925
v 5.5559092 4.3307719 -8.691925
v 5.5559092 5.0525675 -8.691925
v 6.6447272 0 -7.1535397
v 6.6447272 2.8871813 -7.1535397
v 6.6447272 3.6089766 -7.1535397
v 6.6447272 4.3307719 -7.1535397
v 6.6447272 5.0525675 -7.1535397
v 7.7335453 0 -5.6151547
v 7.7335453 2.8871813 -5.6151547
v 7.7335453 3.6089766 -5.6151547
v 7.7335453 4.3307719 -5.6151547
v 7.7335453 5.0525675 -5.6151547
v 8.8223639 0 -4.0767698
v 8.8223639 0.72179532 -4.0767698
v 8.8223639 1.4435906 -4.0767698
v 8.8223639 2.165386 -4.0767698
v 8.8223639 2.8871813 -4.0767698
v 8.8223639 3.6089766 -4.0767698
v 8.8223639 4.3307719 -4.0767698
v 8.8223639 5.0525675 -4.0767698
v 9.9111814 0 -2.5383849
v 9.9111814 0.72179532 -2.5383849
v 9.9111814 1.4435906 -2.5383849
v 9.9111814 2.165386 -2.5383849
v 9.9111814 2.8871813 -2.5383849
v 9.9111814 3.6089766 -2.5383849
v 9.9111814 4.3307719 -2.5383849
v 9.9111814 5.0525675 -2.5383849
v 11 0 -1
v 11 0.72179532 -1
v 11 1.4435906 -1
v 11 2.165386 -1
v 11 2.8871813 -1
v 11 3.6089766 -1
v 11 4.3307719 -1
v 11 5.0525675 -1
v 6.7298603 0.074000001 -7.0332561
v 6.7298603 1.233 -7.0332561
v 6.7298603 2.392 -7.0332561
v 7.2873497 2.392 -6.2455821
v 7.8448396 2.392 -5.4579082
v 7.8448396 1.233 -5.4579082
v 7.8448396 0.074000001 -5.4579082
v 7.2873497 0.074000001 -6.2455821
v 6.6447272 1.4435906 -7.1535397
v 6.6447272 2.165386 -7.1535397
vt 0 0
vt 0 0.14285715
vt 0 0.2857143
vt 0 0.42857143
vt 0 0.5714286
vt 0 0.71428573
vt 0 0.85714287
vt 0 1
vt 0.14285715 0
vt 0.14285715 0.14285715
vt 0.14285715 0.2857143
vt 0.14285715 0.42857143
vt 0.14285715 0.5714286
vt 0.14285715 0.71428573
vt 0.14285715 0.85714287
vt 0.14285715 1
vt 0.2857143 0
vt 0.2857143 0.14285715
vt 0.2857143 0.2857143
vt 0.2857143 0.42857143
vt 0.2857143 0.5714286
vt 0.2857143 0.71428573
vt 0.2857143 0.85714287
vt 0.2857143 1
vt 0.42857143 0
vt 0.42857143 0.5714286
vt 0.42857143 0.71428573
vt 0.42857143 0.85714287
vt 0.42857143 1
vt 0.5714286 0
vt 0.5714286 0.5714286
vt 0.5714286 0.71428573
vt 0.5714286 0.85714287
vt 0.5714286 1
vt 0.71428573 0
vt 0.71428573 0.14285715
vt 0.71428573 0.2857143
vt 0.71428573 0.42857143
vt 0.71428573 0.5714286
vt 0.71428573 0.71428573
vt 0.71428573 0.85714287
vt 0.71428573 1
vt 0.85714287 0
vt 0.85714287 0.14285715
vt 0.85714287 0.2857143
vt 0.85714287 0.42857143
vt 0.85714287 0.5714286
vt 0.85714287 0.71428573
vt 0.85714287 0.85714287
vt 0.85714287 1
vt 1 0
vt 1 0.14285715
vt 1 0.2857143
vt 1 0.42857143
vt 1 0.5714286
vt 1 0.71428573
vt 1 0.85714287
vt 1 1
vt 0.43974119 0.01464602
vt 0.43974119 0.24403435
vt 0.43974119 0.47342268
vt 0.51288599 0.47342268
vt 0.58603078 0.47342268
vt 0.58603078 0.24403435
vt 0.58603078 0.01464602
vt 0.51288599 0.01464602
vt 0.42857143 0.2857143
vt 0.42857143 0.42857143
vn -0.81624246 0 0.5777095
vn -0.81624246 0 0.5777095
vn -0.81624246 0 0.5777095
vn -0.81624246 0 0.5777095
vn -0.81624246 0 0.5777095
vn -0.81624246 0 0.5777095
vn -0.81624246 0 0.5777095
vn -0.81624246 0 0.5777095
vn -0.81624246 0 0.5777095
vn -0.81624246 0 0.5777095
vn -0.81624246 0 0.5777095
vn -0.81624246 0 0.5777095
vn -0.81624246 0 0.5777095
vn -0.81624246 0 0.5777095
vn -0.81624246 0 0.5777095
vn -0.81624246 0 0.5777095
vn -0.81624246 0 0.5777095
vn -0.81624246 0 0.5777095
vn -0.81624246 0 0.5777095
vn -0.81624246 0 0.5777095
vn -0.81624246 0 0.5777095
vn -0.81624246 0 0.5777095
vn -0.81624246 0 0.5777095
vn -0.81624246 0 0.5777095
vn -0.81624246 0 0.5777095
vn -0.81624246 0 0.5777095
vn -0.81624246 0 0.5777095
vn -0.81624246 0 0.5777095
vn -0.81624246 0 0.5777095
vn -0.81624246 0 0.5777095
vn -0.81624246 0 0.5777095
vn -0.81624246 0 0.5777095
vn -0.81624246 0 0.5777095
vn -0.81624246 0 0.5777095
vn -0.81624246 0 0.5777095
vn -0.81624246 0 0.5777095
vn -0.81624246 0 0.5777095
vn -0.81624246 0 0.5777095
vn -0.81624246 0 0.5777095
vn -0.81624246 0 0.5777095
vn -0.81624246 0 0.5777095
vn -0.81624246 0 0.5777095
vn -0.81624246 0 0.5777095
vn -0.81624246 0 0.5777095
vn -0.81624246 0 0.5777095
vn -0.81624246 0 0.5777095
vn -0.81624246 0 0.5777095
vn -0.81624246 0 0.5777095
vn -0.81624246 0 0.5777095
vn -0.81624246 0 0.5777095
vn -0.81624246 0 0.5777095
vn -0.81624246 0 0.5777095
vn -0.81624246 0 0.5777095
vn -0.81624246 0 0.5777095
vn -0.81624246 0 0.5777095
vn -0.81624246 0 0.5777095
vn -0.81624246 0 0.5777095
vn -0.81624246 0 0.5777095
vn -0.81624246 0 0.5777095
vn -0.81624246 0 0.5777095
vn -0.81624246 0 0.5777095
vn -0.81624246 0 0.5777095
vn -0.81624246 0 0.5777095
vn -0.81624246 0 0.5777095
vn -0.81624246 0 0.5777095
vn -0.81624246 0 0.5777095
vn -0.81624246 0 0.5777095
vn -0.81624246 0 0.5777095
f 710/710/710 702/702/702 701/701/701 709/709/709
f 711/711/711 703/703/703 702/702/702 710/710/710
f 712/712/712 704/704/704 703/703/703 711/711/711
f 713/713/713 705/705/705 704/704/704 712/712/712
f 714/714/714 706/706/706 705/705/705 713/713/713
f 715/715/715 707/707/707 706/706/706 714/714/714
f 716/716/716 708/708/708 707/707/707 715/715/715
f 718/718/718 710/710/710 709/709/709 717/717/717
f 719/719/719 711/711/711 710/710/710 718/718/718
f 720/720/720 712/712/712 711/711/711 719/719/719
f 721/721/721 713/713/713 712/712/712 720/720/720
f 722/722/722 714/714/714 713/713/713 721/721/721
f 723/723/723 715/715/715 714/714/714 722/722/722
f 724/724/724 716/716/716 715/715/715 723/723/723
f 727/727/727 722/722/722 721/721/721 726/726/726
f 728/728/728 723/723/723 722/722/722 727/727/727
f 729/729/729 724/724/724 723/723/723 728/728/728
f 732/732/732 727/727/727 726/726/726 731/731/731
f 733/733/733 728/728/728 727/727/727 732/732/732
f 734/734/734 729/729/729 728/728/728 733/733/733
f 740/740/740 732/732/732 731/731/731 739/739/739
f 741/741/741 733/733/733 732/732/732 740/740/740
f 742/742/742 734/734/734 733/733/733 741/741/741
f 744/744/744 736/736/736 735/735/735 743/743/743
f 745/745/745 737/737/737 736/736/736 744/744/744
f 746/746/746 738/738/738 737/737/737 745/745/745
f 747/747/747 739/739/739 738/738/738 746/746/746
f 748/748/748 740/740/740 739/739/739 747/747/747
f 749/749/749 741/741/741 740/740/740 748/748/748
f 750/750/750 742/742/742 741/741/741 749/749/749
f 752/752/752 744/744/744 743/743/743 751/751/751
f 753/753/753 745/745/745 744/744/744 752/752/752
f 754/754/754 746/746/746 745/745/745 753/753/753
f 755/755/755 747/747/747 746/746/746 754/754/754
f 756/756/756 748/748/748 747/747/747 755/755/755
f 757/757/757 749/749/749 748/748/748 756/756/756
f 758/758/758 750/750/750 749/749/749 757/757/757
f 759/759/759 718/718/718 717/717/717
f 760/760/760 719/719/719 718/718/718
f 718/718/718 759/759/759 760/760/760
f 766/766/766 759/759/759 725/725/725
f 725/725/725 759/759/759 717/717/717
f 767/767/767 719/719/719 760/760/760
f 721/721/721 720/720/720 768/768/768 726/726/726
f 720/720/720 719/719/719 767/767/767 768/768/768
f 760/760/760 768/768/768 767/767/767
f 762/762/762 726/726/726 761/761/761
f 726/726/726 768/768/768 761/761/761
f 768/768/768 760/760/760 761/761/761
f 765/765/765 766/766/766 730/730/730
f 725/725/725 730/730/730 766/766/766
f 735/735/735 765/765/765 730/730/730
f 764/764/764 765/765/765 736/736/736
f 735/735/735 736/736/736 765/765/765
f 737/737/737 764/764/764 736/736/736
f 731/731/731 762/762/762 763/763/763
f 739/739/739 731/731/731 763/763/763
f 726/726/726 762/762/762 731/731/731
f 763/763/763 764/764/764 737/737/737 738/738/738
f 763/763/763 738/738/738 739/739/739
g nrg3_ZoneDoor
o Door_01|parent=WallSurface_01
v 7.8448396 2.392 -5.4579082
v 6.7298603 0.074000001 -7.0332561
v 7.2873497 0.074000001 -6.2455821
v 7.8448396 0.074000001 -5.4579082
v 7.8448396 1.233 -5.4579082
v 7.2873497 2.392 -6.2455821
v 6.7298603 2.392 -7.0332561
v 6.7298603 1.233 -7.0332561
vt 1 1
vt 0 0
vt 0.5 0
vt 1 0
vt 1 0.5
vt 0.5 1
vt 0 1
vt 0 0.5
vn -0.81624246 0 0.5777095
vn -0.81624246 0 0.5777095
vn -0.81624246 0 0.5777095
vn -0.81624246 0 0.5777095
vn -0.81624246 0 0.5777095
vn -0.81624246 0 0.5777095
vn -0.81624246 0 0.5777095
vn -0.81624246 0 0.5777095
f 776/776/776 770/770/770 771/771/771
f 776/776/776 774/774/774 775/775/775
f 774/774/774 776/776/776 771/771/771
f 771/771/771 773/773/773 774/774/774
f 773/773/773 769/769/769 774/774/774
f 772/772/772 773/773/773 771/771/771
