ISO-10303-21;
HEADER;
/* Generated by software containing ST-Developer
 * from STEP Tools, Inc. (www.steptools.com) 
 */
/* OPTION: using custom schema-name function */

FILE_DESCRIPTION(
/* description */ (''),
/* implementation_level */ '2;1');

FILE_NAME(
/* name */ 'Owner-Occupier1_LOD2_STEP',
/* time_stamp */ '2026-04-10T17:26:27+02:00',
/* author */ (''),
/* organization */ (''),
/* preprocessor_version */ 'ST-DEVELOPER v19.2',
/* originating_system */ 'Rhino 8.29',
/* authorisation */ '');

FILE_SCHEMA (('AUTOMOTIVE_DESIGN'));
ENDSEC;

DATA;
#10=SHAPE_REPRESENTATION_RELATIONSHIP('','',#252,#78);
#11=COLOUR_RGB('',1.,0.964705882352941,0.56078431372549);
#12=COLOUR_RGB('',1.,0.749019607843137,0.749019607843137);
#13=COLOUR_RGB('',1.,0.749019607843137,0.749019607843137);
#14=COLOUR_RGB('',1.,0.749019607843137,0.749019607843137);
#15=COLOUR_RGB('',1.,0.749019607843137,0.749019607843137);
#16=COLOUR_RGB('',0.498039215686275,1.,0.);
#17=COLOUR_RGB('',0.498039215686275,1.,0.);
#18=FILL_AREA_STYLE_COLOUR('',#11);
#19=FILL_AREA_STYLE_COLOUR('',#12);
#20=FILL_AREA_STYLE_COLOUR('',#13);
#21=FILL_AREA_STYLE_COLOUR('',#14);
#22=FILL_AREA_STYLE_COLOUR('',#15);
#23=FILL_AREA_STYLE_COLOUR('',#16);
#24=FILL_AREA_STYLE_COLOUR('',#17);
#25=FILL_AREA_STYLE('',(#18));
#26=FILL_AREA_STYLE('',(#19));
#27=FILL_AREA_STYLE('',(#20));
#28=FILL_AREA_STYLE('',(#21));
#29=FILL_AREA_STYLE('',(#22));
#30=FILL_AREA_STYLE('',(#23));
#31=FILL_AREA_STYLE('',(#24));
#32=SURFACE_STYLE_FILL_AREA(#25);
#33=SURFACE_STYLE_FILL_AREA(#26);
#34=SURFACE_STYLE_FILL_AREA(#27);
#35=SURFACE_STYLE_FILL_AREA(#28);
#36=SURFACE_STYLE_FILL_AREA(#29);
#37=SURFACE_STYLE_FILL_AREA(#30);
#38=SURFACE_STYLE_FILL_AREA(#31);
#39=SURFACE_SIDE_STYLE('GroundSurface_01',(#32));
#40=SURFACE_SIDE_STYLE('WallSurface_04',(#33));
#41=SURFACE_SIDE_STYLE('WallSurface_01',(#34));
#42=SURFACE_SIDE_STYLE('WallSurface_02',(#35));
#43=SURFACE_SIDE_STYLE('WallSurface_03',(#36));
#44=SURFACE_SIDE_STYLE('RoofSurface_01',(#37));
#45=SURFACE_SIDE_STYLE('RoofSurface_02',(#38));
#46=SURFACE_STYLE_USAGE(.BOTH.,#39);
#47=SURFACE_STYLE_USAGE(.BOTH.,#40);
#48=SURFACE_STYLE_USAGE(.BOTH.,#41);
#49=SURFACE_STYLE_USAGE(.BOTH.,#42);
#50=SURFACE_STYLE_USAGE(.BOTH.,#43);
#51=SURFACE_STYLE_USAGE(.BOTH.,#44);
#52=SURFACE_STYLE_USAGE(.BOTH.,#45);
#53=MECHANICAL_DESIGN_GEOMETRIC_PRESENTATION_REPRESENTATION('',(#61,#62,
#63,#64,#65,#66,#67),#251);
#54=PRESENTATION_STYLE_ASSIGNMENT((#46));
#55=PRESENTATION_STYLE_ASSIGNMENT((#47));
#56=PRESENTATION_STYLE_ASSIGNMENT((#48));
#57=PRESENTATION_STYLE_ASSIGNMENT((#49));
#58=PRESENTATION_STYLE_ASSIGNMENT((#50));
#59=PRESENTATION_STYLE_ASSIGNMENT((#51));
#60=PRESENTATION_STYLE_ASSIGNMENT((#52));
#61=STYLED_ITEM('',(#54),#71);
#62=STYLED_ITEM('',(#55),#72);
#63=STYLED_ITEM('',(#56),#73);
#64=STYLED_ITEM('',(#57),#74);
#65=STYLED_ITEM('',(#58),#75);
#66=STYLED_ITEM('',(#59),#76);
#67=STYLED_ITEM('',(#60),#77);
#68=PRESENTATION_LAYER_ASSIGNMENT('bldg_lod2_GroundSurface','',(#71));
#69=PRESENTATION_LAYER_ASSIGNMENT('bldg_lod2_WallSurface','',(#72,#73,#74,
#75));
#70=PRESENTATION_LAYER_ASSIGNMENT('bldg_lod2_RoofSurface','',(#76,#77));
#71=SHELL_BASED_SURFACE_MODEL('GroundSurface_01',(#79));
#72=SHELL_BASED_SURFACE_MODEL('WallSurface_04',(#80));
#73=SHELL_BASED_SURFACE_MODEL('WallSurface_01',(#81));
#74=SHELL_BASED_SURFACE_MODEL('WallSurface_02',(#82));
#75=SHELL_BASED_SURFACE_MODEL('WallSurface_03',(#83));
#76=SHELL_BASED_SURFACE_MODEL('RoofSurface_01',(#84));
#77=SHELL_BASED_SURFACE_MODEL('RoofSurface_02',(#85));
#78=MANIFOLD_SURFACE_SHAPE_REPRESENTATION('shell_rep_0',(#71,#72,#73,#74,
#75,#76,#77,#261),#251);
#79=OPEN_SHELL('',(#86));
#80=OPEN_SHELL('',(#87));
#81=OPEN_SHELL('',(#88));
#82=OPEN_SHELL('',(#89));
#83=OPEN_SHELL('',(#90));
#84=OPEN_SHELL('',(#91));
#85=OPEN_SHELL('',(#92));
#86=ADVANCED_FACE('',(#93),#227,.T.);
#87=ADVANCED_FACE('',(#94),#228,.T.);
#88=ADVANCED_FACE('',(#95),#229,.T.);
#89=ADVANCED_FACE('',(#96),#230,.T.);
#90=ADVANCED_FACE('',(#97),#231,.T.);
#91=ADVANCED_FACE('',(#98),#232,.T.);
#92=ADVANCED_FACE('',(#99),#233,.T.);
#93=FACE_OUTER_BOUND('',#100,.T.);
#94=FACE_OUTER_BOUND('',#101,.T.);
#95=FACE_OUTER_BOUND('',#102,.T.);
#96=FACE_OUTER_BOUND('',#103,.T.);
#97=FACE_OUTER_BOUND('',#104,.T.);
#98=FACE_OUTER_BOUND('',#105,.T.);
#99=FACE_OUTER_BOUND('',#106,.T.);
#100=EDGE_LOOP('',(#107,#108,#109,#110));
#101=EDGE_LOOP('',(#111,#112,#113,#114));
#102=EDGE_LOOP('',(#115,#116,#117,#118,#119));
#103=EDGE_LOOP('',(#120,#121,#122,#123));
#104=EDGE_LOOP('',(#124,#125,#126,#127,#128));
#105=EDGE_LOOP('',(#129,#130,#131,#132));
#106=EDGE_LOOP('',(#133,#134,#135,#136));
#107=ORIENTED_EDGE('',*,*,#140,.F.);
#108=ORIENTED_EDGE('',*,*,#139,.F.);
#109=ORIENTED_EDGE('',*,*,#138,.F.);
#110=ORIENTED_EDGE('',*,*,#137,.F.);
#111=ORIENTED_EDGE('',*,*,#141,.T.);
#112=ORIENTED_EDGE('',*,*,#144,.T.);
#113=ORIENTED_EDGE('',*,*,#142,.T.);
#114=ORIENTED_EDGE('',*,*,#143,.T.);
#115=ORIENTED_EDGE('',*,*,#148,.T.);
#116=ORIENTED_EDGE('',*,*,#147,.T.);
#117=ORIENTED_EDGE('',*,*,#149,.F.);
#118=ORIENTED_EDGE('',*,*,#145,.T.);
#119=ORIENTED_EDGE('',*,*,#146,.F.);
#120=ORIENTED_EDGE('',*,*,#150,.T.);
#121=ORIENTED_EDGE('',*,*,#152,.T.);
#122=ORIENTED_EDGE('',*,*,#151,.T.);
#123=ORIENTED_EDGE('',*,*,#153,.F.);
#124=ORIENTED_EDGE('',*,*,#157,.F.);
#125=ORIENTED_EDGE('',*,*,#156,.T.);
#126=ORIENTED_EDGE('',*,*,#158,.F.);
#127=ORIENTED_EDGE('',*,*,#155,.T.);
#128=ORIENTED_EDGE('',*,*,#154,.F.);
#129=ORIENTED_EDGE('',*,*,#161,.T.);
#130=ORIENTED_EDGE('',*,*,#159,.F.);
#131=ORIENTED_EDGE('',*,*,#162,.F.);
#132=ORIENTED_EDGE('',*,*,#160,.F.);
#133=ORIENTED_EDGE('',*,*,#165,.T.);
#134=ORIENTED_EDGE('',*,*,#163,.T.);
#135=ORIENTED_EDGE('',*,*,#166,.F.);
#136=ORIENTED_EDGE('',*,*,#164,.F.);
#137=EDGE_CURVE('',#197,#198,#167,.T.);
#138=EDGE_CURVE('',#198,#199,#168,.T.);
#139=EDGE_CURVE('',#199,#200,#169,.T.);
#140=EDGE_CURVE('',#200,#197,#170,.T.);
#141=EDGE_CURVE('',#201,#202,#171,.T.);
#142=EDGE_CURVE('',#204,#203,#172,.T.);
#143=EDGE_CURVE('',#203,#201,#173,.T.);
#144=EDGE_CURVE('',#202,#204,#174,.T.);
#145=EDGE_CURVE('',#206,#205,#175,.T.);
#146=EDGE_CURVE('',#207,#205,#176,.T.);
#147=EDGE_CURVE('',#208,#209,#177,.T.);
#148=EDGE_CURVE('',#207,#208,#178,.T.);
#149=EDGE_CURVE('',#206,#209,#179,.T.);
#150=EDGE_CURVE('',#210,#211,#180,.T.);
#151=EDGE_CURVE('',#212,#213,#181,.T.);
#152=EDGE_CURVE('',#211,#212,#182,.T.);
#153=EDGE_CURVE('',#210,#213,#183,.T.);
#154=EDGE_CURVE('',#215,#214,#184,.T.);
#155=EDGE_CURVE('',#216,#214,#185,.T.);
#156=EDGE_CURVE('',#217,#218,#186,.T.);
#157=EDGE_CURVE('',#217,#215,#187,.T.);
#158=EDGE_CURVE('',#216,#218,#188,.T.);
#159=EDGE_CURVE('',#219,#220,#189,.T.);
#160=EDGE_CURVE('',#221,#222,#190,.T.);
#161=EDGE_CURVE('',#221,#220,#191,.T.);
#162=EDGE_CURVE('',#222,#219,#192,.T.);
#163=EDGE_CURVE('',#223,#224,#193,.T.);
#164=EDGE_CURVE('',#225,#226,#194,.T.);
#165=EDGE_CURVE('',#225,#223,#195,.T.);
#166=EDGE_CURVE('',#226,#224,#196,.T.);
#167=B_SPLINE_CURVE_WITH_KNOTS('',1,(#279,#280),.UNSPECIFIED.,.F.,.F.,(2,
2),(0.,8.2329915205591),.UNSPECIFIED.);
#168=B_SPLINE_CURVE_WITH_KNOTS('',1,(#281,#282),.UNSPECIFIED.,.F.,.F.,(2,
2),(0.,13.1930100000196),.UNSPECIFIED.);
#169=B_SPLINE_CURVE_WITH_KNOTS('',1,(#283,#284),.UNSPECIFIED.,.F.,.F.,(2,
2),(0.,8.23299000001221),.UNSPECIFIED.);
#170=B_SPLINE_CURVE_WITH_KNOTS('',1,(#285,#286),.UNSPECIFIED.,.F.,.F.,(2,
2),(0.,13.1930104976064),.UNSPECIFIED.);
#171=B_SPLINE_CURVE_WITH_KNOTS('',1,(#292,#293),.UNSPECIFIED.,.F.,.F.,(2,
2),(0.,13193.0100000196),.UNSPECIFIED.);
#172=B_SPLINE_CURVE_WITH_KNOTS('',1,(#294,#295),.UNSPECIFIED.,.F.,.F.,(2,
2),(0.,13.1930104976064),.UNSPECIFIED.);
#173=B_SPLINE_CURVE_WITH_KNOTS('',1,(#296,#297),.UNSPECIFIED.,.F.,.F.,(2,
2),(0.,5.54456737011157),.UNSPECIFIED.);
#174=B_SPLINE_CURVE_WITH_KNOTS('',1,(#298,#299),.UNSPECIFIED.,.F.,.F.,(2,
2),(-5.54456737011159,0.),.UNSPECIFIED.);
#175=B_SPLINE_CURVE_WITH_KNOTS('',1,(#306,#307),.UNSPECIFIED.,.F.,.F.,(2,
2),(-5854.10655914872,0.),.UNSPECIFIED.);
#176=B_SPLINE_CURVE_WITH_KNOTS('',1,(#308,#309),.UNSPECIFIED.,.F.,.F.,(2,
2),(-5854.10655914872,0.),.UNSPECIFIED.);
#177=B_SPLINE_CURVE_WITH_KNOTS('',1,(#310,#311),.UNSPECIFIED.,.F.,.F.,(2,
2),(0.,8.23299000001221),.UNSPECIFIED.);
#178=B_SPLINE_CURVE_WITH_KNOTS('',1,(#312,#313),.UNSPECIFIED.,.F.,.F.,(2,
2),(-5.49864310860727,0.),.UNSPECIFIED.);
#179=B_SPLINE_CURVE_WITH_KNOTS('',1,(#314,#315),.UNSPECIFIED.,.F.,.F.,(2,
2),(-5.54456737011159,0.),.UNSPECIFIED.);
#180=B_SPLINE_CURVE_WITH_KNOTS('',1,(#321,#322),.UNSPECIFIED.,.F.,.F.,(2,
2),(0.,13193.0100000196),.UNSPECIFIED.);
#181=B_SPLINE_CURVE_WITH_KNOTS('',1,(#323,#324),.UNSPECIFIED.,.F.,.F.,(2,
2),(0.,13.1930100000196),.UNSPECIFIED.);
#182=B_SPLINE_CURVE_WITH_KNOTS('',1,(#325,#326),.UNSPECIFIED.,.F.,.F.,(2,
2),(-5.49864310860729,0.),.UNSPECIFIED.);
#183=B_SPLINE_CURVE_WITH_KNOTS('',1,(#327,#328),.UNSPECIFIED.,.F.,.F.,(2,
2),(-5.49864310860727,0.),.UNSPECIFIED.);
#184=B_SPLINE_CURVE_WITH_KNOTS('',1,(#335,#336),.UNSPECIFIED.,.F.,.F.,(2,
2),(-5854.10655914872,0.),.UNSPECIFIED.);
#185=B_SPLINE_CURVE_WITH_KNOTS('',1,(#337,#338),.UNSPECIFIED.,.F.,.F.,(2,
2),(-5854.10655914872,0.),.UNSPECIFIED.);
#186=B_SPLINE_CURVE_WITH_KNOTS('',1,(#339,#340),.UNSPECIFIED.,.F.,.F.,(2,
2),(0.,8.2329915205591),.UNSPECIFIED.);
#187=B_SPLINE_CURVE_WITH_KNOTS('',1,(#341,#342),.UNSPECIFIED.,.F.,.F.,(2,
2),(0.,5.54456737011157),.UNSPECIFIED.);
#188=B_SPLINE_CURVE_WITH_KNOTS('',1,(#343,#344),.UNSPECIFIED.,.F.,.F.,(2,
2),(-5.49864310860729,0.),.UNSPECIFIED.);
#189=B_SPLINE_CURVE_WITH_KNOTS('',1,(#350,#351),.UNSPECIFIED.,.F.,.F.,(2,
2),(0.,13193.0100000196),.UNSPECIFIED.);
#190=B_SPLINE_CURVE_WITH_KNOTS('',1,(#352,#353),.UNSPECIFIED.,.F.,.F.,(2,
2),(0.,13193.0100000196),.UNSPECIFIED.);
#191=B_SPLINE_CURVE_WITH_KNOTS('',1,(#354,#355),.UNSPECIFIED.,.F.,.F.,(2,
2),(-5854.10655914872,0.),.UNSPECIFIED.);
#192=B_SPLINE_CURVE_WITH_KNOTS('',1,(#356,#357),.UNSPECIFIED.,.F.,.F.,(2,
2),(-5854.10655914872,0.),.UNSPECIFIED.);
#193=B_SPLINE_CURVE_WITH_KNOTS('',1,(#363,#364),.UNSPECIFIED.,.F.,.F.,(2,
2),(0.,13193.0100000196),.UNSPECIFIED.);
#194=B_SPLINE_CURVE_WITH_KNOTS('',1,(#365,#366),.UNSPECIFIED.,.F.,.F.,(2,
2),(0.,13193.0100000196),.UNSPECIFIED.);
#195=B_SPLINE_CURVE_WITH_KNOTS('',1,(#367,#368),.UNSPECIFIED.,.F.,.F.,(2,
2),(-5854.10655914872,0.),.UNSPECIFIED.);
#196=B_SPLINE_CURVE_WITH_KNOTS('',1,(#369,#370),.UNSPECIFIED.,.F.,.F.,(2,
2),(-5854.10655914872,0.),.UNSPECIFIED.);
#197=VERTEX_POINT('',#275);
#198=VERTEX_POINT('',#276);
#199=VERTEX_POINT('',#277);
#200=VERTEX_POINT('',#278);
#201=VERTEX_POINT('',#288);
#202=VERTEX_POINT('',#289);
#203=VERTEX_POINT('',#290);
#204=VERTEX_POINT('',#291);
#205=VERTEX_POINT('',#301);
#206=VERTEX_POINT('',#302);
#207=VERTEX_POINT('',#303);
#208=VERTEX_POINT('',#304);
#209=VERTEX_POINT('',#305);
#210=VERTEX_POINT('',#317);
#211=VERTEX_POINT('',#318);
#212=VERTEX_POINT('',#319);
#213=VERTEX_POINT('',#320);
#214=VERTEX_POINT('',#330);
#215=VERTEX_POINT('',#331);
#216=VERTEX_POINT('',#332);
#217=VERTEX_POINT('',#333);
#218=VERTEX_POINT('',#334);
#219=VERTEX_POINT('',#346);
#220=VERTEX_POINT('',#347);
#221=VERTEX_POINT('',#348);
#222=VERTEX_POINT('',#349);
#223=VERTEX_POINT('',#359);
#224=VERTEX_POINT('',#360);
#225=VERTEX_POINT('',#361);
#226=VERTEX_POINT('',#362);
#227=PLANE('',#254);
#228=PLANE('',#255);
#229=PLANE('',#256);
#230=PLANE('',#257);
#231=PLANE('',#258);
#232=PLANE('',#259);
#233=PLANE('',#260);
#234=SHAPE_DEFINITION_REPRESENTATION(#235,#252);
#235=PRODUCT_DEFINITION_SHAPE($,$,#237);
#236=PRODUCT_DEFINITION_CONTEXT('3D Mechanical Parts',#241,'design');
#237=PRODUCT_DEFINITION('A','First version',#238,#236);
#238=PRODUCT_DEFINITION_FORMATION_WITH_SPECIFIED_SOURCE('A',
'First version',#243,.MADE.);
#239=PRODUCT_RELATED_PRODUCT_CATEGORY('tool','tool',(#243));
#240=APPLICATION_PROTOCOL_DEFINITION('Draft International Standard',
'automotive_design',1999,#241);
#241=APPLICATION_CONTEXT(
'data for automotive mechanical design processes');
#242=PRODUCT_CONTEXT('3D Mechanical Parts',#241,'mechanical');
#243=PRODUCT('Document','Document','',(#242));
#244=(
LENGTH_UNIT()
NAMED_UNIT(*)
SI_UNIT($,.METRE.)
);
#245=(
NAMED_UNIT(*)
PLANE_ANGLE_UNIT()
SI_UNIT($,.RADIAN.)
);
#246=DIMENSIONAL_EXPONENTS(0.,0.,0.,0.,0.,0.,0.);
#247=PLANE_ANGLE_MEASURE_WITH_UNIT(PLANE_ANGLE_MEASURE(0.01745329252),#245);
#248=(
CONVERSION_BASED_UNIT('DEGREES',#247)
NAMED_UNIT(#246)
PLANE_ANGLE_UNIT()
);
#249=(
NAMED_UNIT(*)
SI_UNIT($,.STERADIAN.)
SOLID_ANGLE_UNIT()
);
#250=UNCERTAINTY_MEASURE_WITH_UNIT(LENGTH_MEASURE(0.01),#244,
'DISTANCE_ACCURACY_VALUE',
'Maximum model space distance between geometric entities at asserted c
onnectivities');
#251=(
GEOMETRIC_REPRESENTATION_CONTEXT(3)
GLOBAL_UNCERTAINTY_ASSIGNED_CONTEXT((#250))
GLOBAL_UNIT_ASSIGNED_CONTEXT((#249,#248,#244))
REPRESENTATION_CONTEXT('ID1','3D')
);
#252=SHAPE_REPRESENTATION('Document',(#253,#261),#251);
#253=AXIS2_PLACEMENT_3D($,#273,#262,#263);
#254=AXIS2_PLACEMENT_3D('',#274,#264,$);
#255=AXIS2_PLACEMENT_3D('',#287,#265,$);
#256=AXIS2_PLACEMENT_3D('',#300,#266,$);
#257=AXIS2_PLACEMENT_3D('',#316,#267,$);
#258=AXIS2_PLACEMENT_3D('',#329,#268,$);
#259=AXIS2_PLACEMENT_3D('',#345,#269,$);
#260=AXIS2_PLACEMENT_3D('',#358,#270,$);
#261=AXIS2_PLACEMENT_3D($,#371,#271,#272);
#262=DIRECTION('',(0.,0.,1.));
#263=DIRECTION('',(1.,0.,0.));
#264=DIRECTION('',(0.,0.,-1.));
#265=DIRECTION('',(-0.816242500331346,-0.577709425795384,0.));
#266=DIRECTION('',(-0.577709519870563,0.81624243374804,-9.06211143623148E-17));
#267=DIRECTION('',(0.816242433748034,0.577709519870572,0.));
#268=DIRECTION('',(0.577709569202741,-0.816242398832347,4.71471883114112E-17));
#269=DIRECTION('',(0.577167554655598,0.408500191975913,0.707110463087996));
#270=DIRECTION('',(-0.577173565319649,-0.408504446126025,0.707103099265924));
#271=DIRECTION('',(0.,0.,1.));
#272=DIRECTION('',(1.,0.,0.));
#273=CARTESIAN_POINT('',(0.,0.,0.));
#274=CARTESIAN_POINT('',(3.37827197906135,11.7686953653982,-0.49199999999994));
#275=CARTESIAN_POINT('',(10.9999990463257,0.999998715414195,-0.49199999999994));
#276=CARTESIAN_POINT('',(17.7201157946332,5.75627670000621,-0.49199999999994));
#277=CARTESIAN_POINT('',(10.0983883218742,16.5249712908844,-0.49199999999994));
#278=CARTESIAN_POINT('',(3.37827252724099,11.7686945908782,-0.49199999999994));
#279=CARTESIAN_POINT('',(10.9999990463257,0.999998715414195,-0.49199999999994));
#280=CARTESIAN_POINT('',(17.7201157946332,5.75627670000621,-0.49199999999994));
#281=CARTESIAN_POINT('',(17.7201157946332,5.75627670000621,-0.49199999999994));
#282=CARTESIAN_POINT('',(10.0983883218742,16.5249712908844,-0.49199999999994));
#283=CARTESIAN_POINT('',(10.0983883218742,16.5249712908844,-0.49199999999994));
#284=CARTESIAN_POINT('',(3.37827252724099,11.7686945908782,-0.49199999999994));
#285=CARTESIAN_POINT('',(3.37827252724099,11.7686945908782,-0.49199999999994));
#286=CARTESIAN_POINT('',(10.9999990463257,0.999998715414195,-0.49199999999994));
#287=CARTESIAN_POINT('',(10.9999990463257,0.999998715414195,-0.49199999999994));
#288=CARTESIAN_POINT('',(10.9999999999999,1.00000000000004,5.05256737011163));
#289=CARTESIAN_POINT('',(3.37827252724097,11.7686945908782,5.05256737011165));
#290=CARTESIAN_POINT('',(10.9999990463257,0.999998715414195,-0.49199999999994));
#291=CARTESIAN_POINT('',(3.37827252724099,11.7686945908782,-0.49199999999994));
#292=CARTESIAN_POINT('',(10.9999999999999,1.00000000000004,5.05256737011163));
#293=CARTESIAN_POINT('',(3.37827252724097,11.7686945908782,5.05256737011165));
#294=CARTESIAN_POINT('',(3.37827252724099,11.7686945908782,-0.49199999999994));
#295=CARTESIAN_POINT('',(10.9999990463257,0.999998715414195,-0.49199999999994));
#296=CARTESIAN_POINT('',(10.9999990463257,0.999998715414195,-0.49199999999994));
#297=CARTESIAN_POINT('',(10.9999999999999,1.00000000000004,5.05256737011163));
#298=CARTESIAN_POINT('',(3.37827252724097,11.7686945908782,5.05256737011165));
#299=CARTESIAN_POINT('',(3.37827252724099,11.7686945908782,-0.49199999999994));
#300=CARTESIAN_POINT('',(3.37827252724099,11.7686945908782,-0.49199999999994));
#301=CARTESIAN_POINT('',(6.71955276736927,14.1335427333767,9.14610000001439));
#302=CARTESIAN_POINT('',(3.37827252724097,11.7686945908782,5.05256737011165));
#303=CARTESIAN_POINT('',(10.0983883218743,16.5249712908845,5.00664310860733));
#304=CARTESIAN_POINT('',(10.0983883218742,16.5249712908844,-0.49199999999994));
#305=CARTESIAN_POINT('',(3.37827252724099,11.7686945908782,-0.49199999999994));
#306=CARTESIAN_POINT('',(3.37827252724097,11.7686945908782,5.05256737011165));
#307=CARTESIAN_POINT('',(6.71955276736927,14.1335427333767,9.14610000001439));
#308=CARTESIAN_POINT('',(10.0983883218743,16.5249712908845,5.00664310860733));
#309=CARTESIAN_POINT('',(6.71955276736927,14.1335427333767,9.14610000001439));
#310=CARTESIAN_POINT('',(10.0983883218742,16.5249712908844,-0.49199999999994));
#311=CARTESIAN_POINT('',(3.37827252724099,11.7686945908782,-0.49199999999994));
#312=CARTESIAN_POINT('',(10.0983883218743,16.5249712908845,5.00664310860733));
#313=CARTESIAN_POINT('',(10.0983883218742,16.5249712908844,-0.49199999999994));
#314=CARTESIAN_POINT('',(3.37827252724097,11.7686945908782,5.05256737011165));
#315=CARTESIAN_POINT('',(3.37827252724099,11.7686945908782,-0.49199999999994));
#316=CARTESIAN_POINT('',(10.0983883218742,16.5249712908844,-0.49199999999994));
#317=CARTESIAN_POINT('',(10.0983883218743,16.5249712908845,5.00664310860733));
#318=CARTESIAN_POINT('',(17.7201157946332,5.75627670000628,5.00664310860735));
#319=CARTESIAN_POINT('',(17.7201157946332,5.75627670000621,-0.49199999999994));
#320=CARTESIAN_POINT('',(10.0983883218742,16.5249712908844,-0.49199999999994));
#321=CARTESIAN_POINT('',(10.0983883218743,16.5249712908845,5.00664310860733));
#322=CARTESIAN_POINT('',(17.7201157946332,5.75627670000628,5.00664310860735));
#323=CARTESIAN_POINT('',(17.7201157946332,5.75627670000621,-0.49199999999994));
#324=CARTESIAN_POINT('',(10.0983883218742,16.5249712908844,-0.49199999999994));
#325=CARTESIAN_POINT('',(17.7201157946332,5.75627670000628,5.00664310860735));
#326=CARTESIAN_POINT('',(17.7201157946332,5.75627670000621,-0.49199999999994));
#327=CARTESIAN_POINT('',(10.0983883218743,16.5249712908845,5.00664310860733));
#328=CARTESIAN_POINT('',(10.0983883218742,16.5249712908844,-0.49199999999994));
#329=CARTESIAN_POINT('',(17.7201157946332,5.75627670000621,-0.49199999999994));
#330=CARTESIAN_POINT('',(14.3412802401282,3.36484814249854,9.14610000001439));
#331=CARTESIAN_POINT('',(10.9999999999999,1.00000000000004,5.05256737011163));
#332=CARTESIAN_POINT('',(17.7201157946332,5.75627670000628,5.00664310860735));
#333=CARTESIAN_POINT('',(10.9999990463257,0.999998715414195,-0.49199999999994));
#334=CARTESIAN_POINT('',(17.7201157946332,5.75627670000621,-0.49199999999994));
#335=CARTESIAN_POINT('',(10.9999999999999,1.00000000000004,5.05256737011163));
#336=CARTESIAN_POINT('',(14.3412802401282,3.36484814249854,9.14610000001439));
#337=CARTESIAN_POINT('',(17.7201157946332,5.75627670000628,5.00664310860735));
#338=CARTESIAN_POINT('',(14.3412802401282,3.36484814249854,9.14610000001439));
#339=CARTESIAN_POINT('',(10.9999990463257,0.999998715414195,-0.49199999999994));
#340=CARTESIAN_POINT('',(17.7201157946332,5.75627670000621,-0.49199999999994));
#341=CARTESIAN_POINT('',(10.9999990463257,0.999998715414195,-0.49199999999994));
#342=CARTESIAN_POINT('',(10.9999999999999,1.00000000000004,5.05256737011163));
#343=CARTESIAN_POINT('',(17.7201157946332,5.75627670000628,5.00664310860735));
#344=CARTESIAN_POINT('',(17.7201157946332,5.75627670000621,-0.49199999999994));
#345=CARTESIAN_POINT('',(10.0983883218743,16.5249712908845,5.00664310860733));
#346=CARTESIAN_POINT('',(14.3412802401282,3.36484814249854,9.14610000001439));
#347=CARTESIAN_POINT('',(6.71955276736927,14.1335427333767,9.14610000001439));
#348=CARTESIAN_POINT('',(10.0983883218743,16.5249712908845,5.00664310860733));
#349=CARTESIAN_POINT('',(17.7201157946332,5.75627670000628,5.00664310860735));
#350=CARTESIAN_POINT('',(14.3412802401282,3.36484814249854,9.14610000001439));
#351=CARTESIAN_POINT('',(6.71955276736927,14.1335427333767,9.14610000001439));
#352=CARTESIAN_POINT('',(10.0983883218743,16.5249712908845,5.00664310860733));
#353=CARTESIAN_POINT('',(17.7201157946332,5.75627670000628,5.00664310860735));
#354=CARTESIAN_POINT('',(10.0983883218743,16.5249712908845,5.00664310860733));
#355=CARTESIAN_POINT('',(6.71955276736927,14.1335427333767,9.14610000001439));
#356=CARTESIAN_POINT('',(17.7201157946332,5.75627670000628,5.00664310860735));
#357=CARTESIAN_POINT('',(14.3412802401282,3.36484814249854,9.14610000001439));
#358=CARTESIAN_POINT('',(10.9999999999999,1.00000000000004,5.05256737011163));
#359=CARTESIAN_POINT('',(14.3412802401282,3.36484814249854,9.14610000001439));
#360=CARTESIAN_POINT('',(6.71955276736927,14.1335427333767,9.14610000001439));
#361=CARTESIAN_POINT('',(10.9999999999999,1.00000000000004,5.05256737011163));
#362=CARTESIAN_POINT('',(3.37827252724097,11.7686945908782,5.05256737011165));
#363=CARTESIAN_POINT('',(14.3412802401282,3.36484814249854,9.14610000001439));
#364=CARTESIAN_POINT('',(6.71955276736927,14.1335427333767,9.14610000001439));
#365=CARTESIAN_POINT('',(10.9999999999999,1.00000000000004,5.05256737011163));
#366=CARTESIAN_POINT('',(3.37827252724097,11.7686945908782,5.05256737011165));
#367=CARTESIAN_POINT('',(10.9999999999999,1.00000000000004,5.05256737011163));
#368=CARTESIAN_POINT('',(14.3412802401282,3.36484814249854,9.14610000001439));
#369=CARTESIAN_POINT('',(3.37827252724097,11.7686945908782,5.05256737011165));
#370=CARTESIAN_POINT('',(6.71955276736927,14.1335427333767,9.14610000001439));
#371=CARTESIAN_POINT('',(0.,0.,0.));
ENDSEC;
END-ISO-10303-21;
