ISO-10303-21;
HEADER;
/* Generated by software containing ST-Developer
 * from STEP Tools, Inc. (www.steptools.com) 
 */
/* OPTION: using custom schema-name function */

FILE_DESCRIPTION(
/* description */ (''),
/* implementation_level */ '2;1');

FILE_NAME(
/* name */ 'Owner-Occupier1_ZonePart2_STEP',
/* time_stamp */ '2026-04-18T22:14:11+02:00',
/* author */ (''),
/* organization */ (''),
/* preprocessor_version */ 'ST-DEVELOPER v19.2',
/* originating_system */ 'Rhino 8.29',
/* authorisation */ '');

FILE_SCHEMA (('AUTOMOTIVE_DESIGN'));
ENDSEC;

DATA;
#10=SHAPE_REPRESENTATION_RELATIONSHIP('','',#467,#36);
#11=FACE_BOUND('',#89,.T.);
#12=FACE_BOUND('',#90,.T.);
#13=FACE_BOUND('',#92,.T.);
#14=FACE_BOUND('',#93,.T.);
#15=FACE_BOUND('',#94,.T.);
#16=FACE_BOUND('',#95,.T.);
#17=PRESENTATION_LAYER_ASSIGNMENT('nrg3_ZonePart2_WindowSurface','',(#22,
#23,#24,#25,#26,#27));
#18=PRESENTATION_LAYER_ASSIGNMENT(
'nrg3_ZonePart2_ZoneAtticFloorSurface','',(#28));
#19=PRESENTATION_LAYER_ASSIGNMENT('nrg3_ZonePart2_ZoneRoofSurface','',(#29,
#30));
#20=PRESENTATION_LAYER_ASSIGNMENT('nrg3_ZonePart2_ZoneWallSurface','',(#31,
#32,#33,#34));
#21=PRESENTATION_LAYER_ASSIGNMENT(
'nrg3_ZonePart1+2_ZoneIntermediateFloorSurface','',(#35));
#22=SHELL_BASED_SURFACE_MODEL('Window_05|parent=WallSurface_04',(#37));
#23=SHELL_BASED_SURFACE_MODEL('Window_04|parent=WallSurface_04',(#38));
#24=SHELL_BASED_SURFACE_MODEL('Window_03|parent=WallSurface_04',(#39));
#25=SHELL_BASED_SURFACE_MODEL('Window_02|parent=WallSurface_04',(#40));
#26=SHELL_BASED_SURFACE_MODEL('Window_08|parent=WallSurface_02',(#41));
#27=SHELL_BASED_SURFACE_MODEL('Window_07|parent=WallSurface_02',(#42));
#28=SHELL_BASED_SURFACE_MODEL('GroundSurface_01',(#43));
#29=SHELL_BASED_SURFACE_MODEL('RoofSurface_02',(#44));
#30=SHELL_BASED_SURFACE_MODEL('RoofSurface_01',(#45));
#31=SHELL_BASED_SURFACE_MODEL('WallSurface_02',(#46));
#32=SHELL_BASED_SURFACE_MODEL('WallSurface_04',(#47));
#33=SHELL_BASED_SURFACE_MODEL('WallSurface_03',(#48));
#34=SHELL_BASED_SURFACE_MODEL('WallSurface_01',(#49));
#35=SHELL_BASED_SURFACE_MODEL('GroundSurface_01',(#50));
#36=MANIFOLD_SURFACE_SHAPE_REPRESENTATION('shell_rep_0',(#22,#23,#24,#25,
#26,#27,#28,#29,#30,#31,#32,#33,#34,#35,#483),#466);
#37=OPEN_SHELL('',(#51));
#38=OPEN_SHELL('',(#52));
#39=OPEN_SHELL('',(#53));
#40=OPEN_SHELL('',(#54));
#41=OPEN_SHELL('',(#55));
#42=OPEN_SHELL('',(#56));
#43=OPEN_SHELL('',(#57));
#44=OPEN_SHELL('',(#58));
#45=OPEN_SHELL('',(#59));
#46=OPEN_SHELL('',(#60));
#47=OPEN_SHELL('',(#61));
#48=OPEN_SHELL('',(#62));
#49=OPEN_SHELL('',(#63));
#50=OPEN_SHELL('',(#64));
#51=ADVANCED_FACE('',(#65),#435,.T.);
#52=ADVANCED_FACE('',(#66),#436,.T.);
#53=ADVANCED_FACE('',(#67),#437,.T.);
#54=ADVANCED_FACE('',(#68),#438,.T.);
#55=ADVANCED_FACE('',(#69),#439,.T.);
#56=ADVANCED_FACE('',(#70),#440,.T.);
#57=ADVANCED_FACE('',(#71),#441,.T.);
#58=ADVANCED_FACE('',(#72),#442,.T.);
#59=ADVANCED_FACE('',(#73),#443,.T.);
#60=ADVANCED_FACE('',(#74,#11,#12),#444,.T.);
#61=ADVANCED_FACE('',(#75,#13,#14,#15,#16),#445,.T.);
#62=ADVANCED_FACE('',(#76),#446,.T.);
#63=ADVANCED_FACE('',(#77),#447,.T.);
#64=ADVANCED_FACE('',(#78),#448,.T.);
#65=FACE_OUTER_BOUND('',#79,.T.);
#66=FACE_OUTER_BOUND('',#80,.T.);
#67=FACE_OUTER_BOUND('',#81,.T.);
#68=FACE_OUTER_BOUND('',#82,.T.);
#69=FACE_OUTER_BOUND('',#83,.T.);
#70=FACE_OUTER_BOUND('',#84,.T.);
#71=FACE_OUTER_BOUND('',#85,.T.);
#72=FACE_OUTER_BOUND('',#86,.T.);
#73=FACE_OUTER_BOUND('',#87,.T.);
#74=FACE_OUTER_BOUND('',#88,.T.);
#75=FACE_OUTER_BOUND('',#91,.T.);
#76=FACE_OUTER_BOUND('',#96,.T.);
#77=FACE_OUTER_BOUND('',#97,.T.);
#78=FACE_OUTER_BOUND('',#98,.T.);
#79=EDGE_LOOP('',(#99,#100,#101,#102));
#80=EDGE_LOOP('',(#103,#104,#105,#106));
#81=EDGE_LOOP('',(#107,#108,#109,#110));
#82=EDGE_LOOP('',(#111,#112,#113,#114));
#83=EDGE_LOOP('',(#115,#116,#117,#118));
#84=EDGE_LOOP('',(#119,#120,#121,#122));
#85=EDGE_LOOP('',(#123,#124,#125,#126));
#86=EDGE_LOOP('',(#127,#128,#129,#130));
#87=EDGE_LOOP('',(#131,#132,#133,#134));
#88=EDGE_LOOP('',(#135,#136,#137,#138,#139,#140));
#89=EDGE_LOOP('',(#141,#142,#143,#144));
#90=EDGE_LOOP('',(#145,#146,#147,#148));
#91=EDGE_LOOP('',(#149,#150,#151,#152,#153,#154));
#92=EDGE_LOOP('',(#155,#156,#157,#158));
#93=EDGE_LOOP('',(#159,#160,#161,#162));
#94=EDGE_LOOP('',(#163,#164,#165,#166));
#95=EDGE_LOOP('',(#167,#168,#169,#170));
#96=EDGE_LOOP('',(#171,#172,#173,#174));
#97=EDGE_LOOP('',(#175,#176,#177,#178));
#98=EDGE_LOOP('',(#179,#180,#181,#182));
#99=ORIENTED_EDGE('',*,*,#183,.T.);
#100=ORIENTED_EDGE('',*,*,#184,.T.);
#101=ORIENTED_EDGE('',*,*,#185,.T.);
#102=ORIENTED_EDGE('',*,*,#186,.T.);
#103=ORIENTED_EDGE('',*,*,#187,.T.);
#104=ORIENTED_EDGE('',*,*,#188,.T.);
#105=ORIENTED_EDGE('',*,*,#189,.T.);
#106=ORIENTED_EDGE('',*,*,#190,.T.);
#107=ORIENTED_EDGE('',*,*,#191,.T.);
#108=ORIENTED_EDGE('',*,*,#192,.T.);
#109=ORIENTED_EDGE('',*,*,#193,.T.);
#110=ORIENTED_EDGE('',*,*,#194,.T.);
#111=ORIENTED_EDGE('',*,*,#195,.T.);
#112=ORIENTED_EDGE('',*,*,#196,.T.);
#113=ORIENTED_EDGE('',*,*,#197,.T.);
#114=ORIENTED_EDGE('',*,*,#198,.T.);
#115=ORIENTED_EDGE('',*,*,#199,.T.);
#116=ORIENTED_EDGE('',*,*,#200,.T.);
#117=ORIENTED_EDGE('',*,*,#201,.T.);
#118=ORIENTED_EDGE('',*,*,#202,.T.);
#119=ORIENTED_EDGE('',*,*,#203,.T.);
#120=ORIENTED_EDGE('',*,*,#204,.T.);
#121=ORIENTED_EDGE('',*,*,#205,.T.);
#122=ORIENTED_EDGE('',*,*,#206,.T.);
#123=ORIENTED_EDGE('',*,*,#207,.T.);
#124=ORIENTED_EDGE('',*,*,#209,.F.);
#125=ORIENTED_EDGE('',*,*,#208,.T.);
#126=ORIENTED_EDGE('',*,*,#210,.F.);
#127=ORIENTED_EDGE('',*,*,#214,.T.);
#128=ORIENTED_EDGE('',*,*,#213,.F.);
#129=ORIENTED_EDGE('',*,*,#211,.F.);
#130=ORIENTED_EDGE('',*,*,#212,.T.);
#131=ORIENTED_EDGE('',*,*,#218,.T.);
#132=ORIENTED_EDGE('',*,*,#217,.F.);
#133=ORIENTED_EDGE('',*,*,#215,.F.);
#134=ORIENTED_EDGE('',*,*,#216,.T.);
#135=ORIENTED_EDGE('',*,*,#229,.T.);
#136=ORIENTED_EDGE('',*,*,#232,.T.);
#137=ORIENTED_EDGE('',*,*,#220,.T.);
#138=ORIENTED_EDGE('',*,*,#230,.F.);
#139=ORIENTED_EDGE('',*,*,#231,.T.);
#140=ORIENTED_EDGE('',*,*,#219,.T.);
#141=ORIENTED_EDGE('',*,*,#221,.T.);
#142=ORIENTED_EDGE('',*,*,#225,.T.);
#143=ORIENTED_EDGE('',*,*,#224,.T.);
#144=ORIENTED_EDGE('',*,*,#223,.T.);
#145=ORIENTED_EDGE('',*,*,#222,.T.);
#146=ORIENTED_EDGE('',*,*,#228,.T.);
#147=ORIENTED_EDGE('',*,*,#227,.T.);
#148=ORIENTED_EDGE('',*,*,#226,.T.);
#149=ORIENTED_EDGE('',*,*,#251,.T.);
#150=ORIENTED_EDGE('',*,*,#233,.F.);
#151=ORIENTED_EDGE('',*,*,#253,.F.);
#152=ORIENTED_EDGE('',*,*,#252,.F.);
#153=ORIENTED_EDGE('',*,*,#234,.F.);
#154=ORIENTED_EDGE('',*,*,#254,.F.);
#155=ORIENTED_EDGE('',*,*,#235,.T.);
#156=ORIENTED_EDGE('',*,*,#241,.T.);
#157=ORIENTED_EDGE('',*,*,#240,.T.);
#158=ORIENTED_EDGE('',*,*,#239,.T.);
#159=ORIENTED_EDGE('',*,*,#236,.T.);
#160=ORIENTED_EDGE('',*,*,#244,.T.);
#161=ORIENTED_EDGE('',*,*,#243,.T.);
#162=ORIENTED_EDGE('',*,*,#242,.T.);
#163=ORIENTED_EDGE('',*,*,#237,.T.);
#164=ORIENTED_EDGE('',*,*,#247,.T.);
#165=ORIENTED_EDGE('',*,*,#246,.T.);
#166=ORIENTED_EDGE('',*,*,#245,.T.);
#167=ORIENTED_EDGE('',*,*,#238,.T.);
#168=ORIENTED_EDGE('',*,*,#250,.T.);
#169=ORIENTED_EDGE('',*,*,#249,.T.);
#170=ORIENTED_EDGE('',*,*,#248,.T.);
#171=ORIENTED_EDGE('',*,*,#257,.T.);
#172=ORIENTED_EDGE('',*,*,#258,.T.);
#173=ORIENTED_EDGE('',*,*,#255,.T.);
#174=ORIENTED_EDGE('',*,*,#256,.T.);
#175=ORIENTED_EDGE('',*,*,#261,.T.);
#176=ORIENTED_EDGE('',*,*,#262,.T.);
#177=ORIENTED_EDGE('',*,*,#259,.T.);
#178=ORIENTED_EDGE('',*,*,#260,.T.);
#179=ORIENTED_EDGE('',*,*,#266,.F.);
#180=ORIENTED_EDGE('',*,*,#265,.F.);
#181=ORIENTED_EDGE('',*,*,#264,.F.);
#182=ORIENTED_EDGE('',*,*,#263,.F.);
#183=EDGE_CURVE('',#351,#352,#267,.T.);
#184=EDGE_CURVE('',#352,#353,#268,.T.);
#185=EDGE_CURVE('',#353,#354,#269,.T.);
#186=EDGE_CURVE('',#354,#351,#270,.T.);
#187=EDGE_CURVE('',#355,#356,#271,.T.);
#188=EDGE_CURVE('',#356,#357,#272,.T.);
#189=EDGE_CURVE('',#357,#358,#273,.T.);
#190=EDGE_CURVE('',#358,#355,#274,.T.);
#191=EDGE_CURVE('',#359,#360,#275,.T.);
#192=EDGE_CURVE('',#360,#361,#276,.T.);
#193=EDGE_CURVE('',#361,#362,#277,.T.);
#194=EDGE_CURVE('',#362,#359,#278,.T.);
#195=EDGE_CURVE('',#363,#364,#279,.T.);
#196=EDGE_CURVE('',#364,#365,#280,.T.);
#197=EDGE_CURVE('',#365,#366,#281,.T.);
#198=EDGE_CURVE('',#366,#363,#282,.T.);
#199=EDGE_CURVE('',#367,#368,#283,.T.);
#200=EDGE_CURVE('',#368,#369,#284,.T.);
#201=EDGE_CURVE('',#369,#370,#285,.T.);
#202=EDGE_CURVE('',#370,#367,#286,.T.);
#203=EDGE_CURVE('',#371,#372,#287,.T.);
#204=EDGE_CURVE('',#372,#373,#288,.T.);
#205=EDGE_CURVE('',#373,#374,#289,.T.);
#206=EDGE_CURVE('',#374,#371,#290,.T.);
#207=EDGE_CURVE('',#375,#376,#291,.T.);
#208=EDGE_CURVE('',#377,#378,#292,.T.);
#209=EDGE_CURVE('',#377,#376,#293,.T.);
#210=EDGE_CURVE('',#375,#378,#294,.T.);
#211=EDGE_CURVE('',#379,#380,#295,.T.);
#212=EDGE_CURVE('',#379,#381,#296,.T.);
#213=EDGE_CURVE('',#380,#382,#297,.T.);
#214=EDGE_CURVE('',#381,#382,#298,.T.);
#215=EDGE_CURVE('',#383,#384,#299,.T.);
#216=EDGE_CURVE('',#383,#385,#300,.T.);
#217=EDGE_CURVE('',#384,#386,#301,.T.);
#218=EDGE_CURVE('',#385,#386,#302,.T.);
#219=EDGE_CURVE('',#387,#397,#303,.T.);
#220=EDGE_CURVE('',#388,#400,#304,.T.);
#221=EDGE_CURVE('',#389,#393,#305,.T.);
#222=EDGE_CURVE('',#390,#396,#306,.T.);
#223=EDGE_CURVE('',#391,#389,#307,.T.);
#224=EDGE_CURVE('',#392,#391,#308,.T.);
#225=EDGE_CURVE('',#393,#392,#309,.T.);
#226=EDGE_CURVE('',#394,#390,#310,.T.);
#227=EDGE_CURVE('',#395,#394,#311,.T.);
#228=EDGE_CURVE('',#396,#395,#312,.T.);
#229=EDGE_CURVE('',#397,#398,#313,.T.);
#230=EDGE_CURVE('',#399,#400,#314,.T.);
#231=EDGE_CURVE('',#399,#387,#315,.T.);
#232=EDGE_CURVE('',#398,#388,#316,.T.);
#233=EDGE_CURVE('',#401,#420,#317,.T.);
#234=EDGE_CURVE('',#402,#421,#318,.T.);
#235=EDGE_CURVE('',#403,#409,#319,.T.);
#236=EDGE_CURVE('',#404,#412,#320,.T.);
#237=EDGE_CURVE('',#405,#415,#321,.T.);
#238=EDGE_CURVE('',#406,#418,#322,.T.);
#239=EDGE_CURVE('',#407,#403,#323,.T.);
#240=EDGE_CURVE('',#408,#407,#324,.T.);
#241=EDGE_CURVE('',#409,#408,#325,.T.);
#242=EDGE_CURVE('',#410,#404,#326,.T.);
#243=EDGE_CURVE('',#411,#410,#327,.T.);
#244=EDGE_CURVE('',#412,#411,#328,.T.);
#245=EDGE_CURVE('',#413,#405,#329,.T.);
#246=EDGE_CURVE('',#414,#413,#330,.T.);
#247=EDGE_CURVE('',#415,#414,#331,.T.);
#248=EDGE_CURVE('',#416,#406,#332,.T.);
#249=EDGE_CURVE('',#417,#416,#333,.T.);
#250=EDGE_CURVE('',#418,#417,#334,.T.);
#251=EDGE_CURVE('',#419,#420,#335,.T.);
#252=EDGE_CURVE('',#421,#422,#336,.T.);
#253=EDGE_CURVE('',#422,#401,#337,.T.);
#254=EDGE_CURVE('',#419,#402,#338,.T.);
#255=EDGE_CURVE('',#423,#424,#339,.T.);
#256=EDGE_CURVE('',#424,#425,#340,.T.);
#257=EDGE_CURVE('',#425,#426,#341,.T.);
#258=EDGE_CURVE('',#426,#423,#342,.T.);
#259=EDGE_CURVE('',#427,#428,#343,.T.);
#260=EDGE_CURVE('',#428,#429,#344,.T.);
#261=EDGE_CURVE('',#429,#430,#345,.T.);
#262=EDGE_CURVE('',#430,#427,#346,.T.);
#263=EDGE_CURVE('',#431,#432,#347,.T.);
#264=EDGE_CURVE('',#432,#433,#348,.T.);
#265=EDGE_CURVE('',#433,#434,#349,.T.);
#266=EDGE_CURVE('',#434,#431,#350,.T.);
#267=B_SPLINE_CURVE_WITH_KNOTS('',1,(#508,#509),.UNSPECIFIED.,.F.,.F.,(2,
2),(0.,0.810000000001196),.UNSPECIFIED.);
#268=B_SPLINE_CURVE_WITH_KNOTS('',1,(#510,#511),.UNSPECIFIED.,.F.,.F.,(2,
2),(0.,1.2800000000019),.UNSPECIFIED.);
#269=B_SPLINE_CURVE_WITH_KNOTS('',1,(#512,#513),.UNSPECIFIED.,.F.,.F.,(2,
2),(0.,0.810000000001196),.UNSPECIFIED.);
#270=B_SPLINE_CURVE_WITH_KNOTS('',1,(#514,#515),.UNSPECIFIED.,.F.,.F.,(2,
2),(0.,1.2800000000019),.UNSPECIFIED.);
#271=B_SPLINE_CURVE_WITH_KNOTS('',1,(#521,#522),.UNSPECIFIED.,.F.,.F.,(2,
2),(0.,0.810030000001206),.UNSPECIFIED.);
#272=B_SPLINE_CURVE_WITH_KNOTS('',1,(#523,#524),.UNSPECIFIED.,.F.,.F.,(2,
2),(0.,1.2800000000019),.UNSPECIFIED.);
#273=B_SPLINE_CURVE_WITH_KNOTS('',1,(#525,#526),.UNSPECIFIED.,.F.,.F.,(2,
2),(0.,0.810030000001206),.UNSPECIFIED.);
#274=B_SPLINE_CURVE_WITH_KNOTS('',1,(#527,#528),.UNSPECIFIED.,.F.,.F.,(2,
2),(0.,1.2800000000019),.UNSPECIFIED.);
#275=B_SPLINE_CURVE_WITH_KNOTS('',1,(#534,#535),.UNSPECIFIED.,.F.,.F.,(2,
2),(0.,0.810000000001196),.UNSPECIFIED.);
#276=B_SPLINE_CURVE_WITH_KNOTS('',1,(#536,#537),.UNSPECIFIED.,.F.,.F.,(2,
2),(0.,1.2800000000019),.UNSPECIFIED.);
#277=B_SPLINE_CURVE_WITH_KNOTS('',1,(#538,#539),.UNSPECIFIED.,.F.,.F.,(2,
2),(0.,0.810000000001196),.UNSPECIFIED.);
#278=B_SPLINE_CURVE_WITH_KNOTS('',1,(#540,#541),.UNSPECIFIED.,.F.,.F.,(2,
2),(0.,1.2800000000019),.UNSPECIFIED.);
#279=B_SPLINE_CURVE_WITH_KNOTS('',1,(#547,#548),.UNSPECIFIED.,.F.,.F.,(2,
2),(0.,0.810000000001224),.UNSPECIFIED.);
#280=B_SPLINE_CURVE_WITH_KNOTS('',1,(#549,#550),.UNSPECIFIED.,.F.,.F.,(2,
2),(0.,1.2800000000019),.UNSPECIFIED.);
#281=B_SPLINE_CURVE_WITH_KNOTS('',1,(#551,#552),.UNSPECIFIED.,.F.,.F.,(2,
2),(0.,0.810000000001224),.UNSPECIFIED.);
#282=B_SPLINE_CURVE_WITH_KNOTS('',1,(#553,#554),.UNSPECIFIED.,.F.,.F.,(2,
2),(0.,1.2800000000019),.UNSPECIFIED.);
#283=B_SPLINE_CURVE_WITH_KNOTS('',1,(#560,#561),.UNSPECIFIED.,.F.,.F.,(2,
2),(0.,1.75000000000261),.UNSPECIFIED.);
#284=B_SPLINE_CURVE_WITH_KNOTS('',1,(#562,#563),.UNSPECIFIED.,.F.,.F.,(2,
2),(0.,2.21300000000328),.UNSPECIFIED.);
#285=B_SPLINE_CURVE_WITH_KNOTS('',1,(#564,#565),.UNSPECIFIED.,.F.,.F.,(2,
2),(0.,1.75000000000261),.UNSPECIFIED.);
#286=B_SPLINE_CURVE_WITH_KNOTS('',1,(#566,#567),.UNSPECIFIED.,.F.,.F.,(2,
2),(0.,2.21300000000328),.UNSPECIFIED.);
#287=B_SPLINE_CURVE_WITH_KNOTS('',1,(#573,#574),.UNSPECIFIED.,.F.,.F.,(2,
2),(0.,1.75000000000261),.UNSPECIFIED.);
#288=B_SPLINE_CURVE_WITH_KNOTS('',1,(#575,#576),.UNSPECIFIED.,.F.,.F.,(2,
2),(0.,2.21300000000328),.UNSPECIFIED.);
#289=B_SPLINE_CURVE_WITH_KNOTS('',1,(#577,#578),.UNSPECIFIED.,.F.,.F.,(2,
2),(0.,1.75000000000261),.UNSPECIFIED.);
#290=B_SPLINE_CURVE_WITH_KNOTS('',1,(#579,#580),.UNSPECIFIED.,.F.,.F.,(2,
2),(0.,2.21300000000328),.UNSPECIFIED.);
#291=B_SPLINE_CURVE_WITH_KNOTS('',1,(#586,#587),.UNSPECIFIED.,.F.,.F.,(2,
2),(0.,13193.009967946),.UNSPECIFIED.);
#292=B_SPLINE_CURVE_WITH_KNOTS('',1,(#588,#589),.UNSPECIFIED.,.F.,.F.,(2,
2),(0.000218108235970789,13193.0100000196),.UNSPECIFIED.);
#293=B_SPLINE_CURVE_WITH_KNOTS('',1,(#590,#591),.UNSPECIFIED.,.F.,.F.,(2,
2),(1.01542357575766,7.17162357612015),.UNSPECIFIED.);
#294=B_SPLINE_CURVE_WITH_KNOTS('',1,(#592,#593),.UNSPECIFIED.,.F.,.F.,(2,
2),(1.06136794443896,7.21756794480145),.UNSPECIFIED.);
#295=B_SPLINE_CURVE_WITH_KNOTS('',1,(#599,#600),.UNSPECIFIED.,.F.,.F.,(2,
2),(0.,13193.0100000196),.UNSPECIFIED.);
#296=B_SPLINE_CURVE_WITH_KNOTS('',1,(#601,#602),.UNSPECIFIED.,.F.,.F.,(2,
2),(-5854.10655914872,-4401.94986310086),.UNSPECIFIED.);
#297=B_SPLINE_CURVE_WITH_KNOTS('',1,(#603,#604),.UNSPECIFIED.,.F.,.F.,(2,
2),(-5854.10655914872,-4401.94986310092),.UNSPECIFIED.);
#298=B_SPLINE_CURVE_WITH_KNOTS('',1,(#605,#606),.UNSPECIFIED.,.F.,.F.,(2,
2),(0.000218108235970789,13193.0100000196),.UNSPECIFIED.);
#299=B_SPLINE_CURVE_WITH_KNOTS('',1,(#612,#613),.UNSPECIFIED.,.F.,.F.,(2,
2),(0.,13193.0100000196),.UNSPECIFIED.);
#300=B_SPLINE_CURVE_WITH_KNOTS('',1,(#614,#615),.UNSPECIFIED.,.F.,.F.,(2,
2),(-5854.10655914872,-4353.11343311863),.UNSPECIFIED.);
#301=B_SPLINE_CURVE_WITH_KNOTS('',1,(#616,#617),.UNSPECIFIED.,.F.,.F.,(2,
2),(-5854.10655914872,-4353.11343311865),.UNSPECIFIED.);
#302=B_SPLINE_CURVE_WITH_KNOTS('',1,(#618,#619),.UNSPECIFIED.,.F.,.F.,(2,
2),(0.,13193.009967946),.UNSPECIFIED.);
#303=B_SPLINE_CURVE_WITH_KNOTS('',1,(#635,#636),.UNSPECIFIED.,.F.,.F.,(2,
2),(0.,1.89864310860729),.UNSPECIFIED.);
#304=B_SPLINE_CURVE_WITH_KNOTS('',1,(#637,#638),.UNSPECIFIED.,.F.,.F.,(2,
2),(0.,1.43603111945755),.UNSPECIFIED.);
#305=B_SPLINE_CURVE_WITH_KNOTS('',1,(#639,#640),.UNSPECIFIED.,.F.,.F.,(2,
2),(0.,1.75000000000261),.UNSPECIFIED.);
#306=B_SPLINE_CURVE_WITH_KNOTS('',1,(#641,#642),.UNSPECIFIED.,.F.,.F.,(2,
2),(0.,1.75000000000261),.UNSPECIFIED.);
#307=B_SPLINE_CURVE_WITH_KNOTS('',1,(#643,#644),.UNSPECIFIED.,.F.,.F.,(2,
2),(5.71300000000851,7.9260000000118),.UNSPECIFIED.);
#308=B_SPLINE_CURVE_WITH_KNOTS('',1,(#645,#646),.UNSPECIFIED.,.F.,.F.,(2,
2),(3.9630000000059,5.71300000000851),.UNSPECIFIED.);
#309=B_SPLINE_CURVE_WITH_KNOTS('',1,(#647,#648),.UNSPECIFIED.,.F.,.F.,(2,
2),(1.75000000000261,3.9630000000059),.UNSPECIFIED.);
#310=B_SPLINE_CURVE_WITH_KNOTS('',1,(#649,#650),.UNSPECIFIED.,.F.,.F.,(2,
2),(5.71300000000851,7.9260000000118),.UNSPECIFIED.);
#311=B_SPLINE_CURVE_WITH_KNOTS('',1,(#651,#652),.UNSPECIFIED.,.F.,.F.,(2,
2),(3.9630000000059,5.71300000000851),.UNSPECIFIED.);
#312=B_SPLINE_CURVE_WITH_KNOTS('',1,(#653,#654),.UNSPECIFIED.,.F.,.F.,(2,
2),(1.75000000000261,3.9630000000059),.UNSPECIFIED.);
#313=B_SPLINE_CURVE_WITH_KNOTS('',1,(#655,#656),.UNSPECIFIED.,.F.,.F.,(2,
2),(0.,8.23299000001221),.UNSPECIFIED.);
#314=B_SPLINE_CURVE_WITH_KNOTS('',1,(#657,#658),.UNSPECIFIED.,.F.,.F.,(2,
2),(1.06136794443901,7.21756794480143),.UNSPECIFIED.);
#315=B_SPLINE_CURVE_WITH_KNOTS('',1,(#659,#660),.UNSPECIFIED.,.F.,.F.,(2,
2),(4.35311343311866,5.85410655914874),.UNSPECIFIED.);
#316=B_SPLINE_CURVE_WITH_KNOTS('',1,(#661,#662),.UNSPECIFIED.,.F.,.F.,(2,
2),(3.59999999999999,5.54456737011157),.UNSPECIFIED.);
#317=B_SPLINE_CURVE_WITH_KNOTS('',1,(#686,#687),.UNSPECIFIED.,.F.,.F.,(2,
2),(0.,1.89864310860728),.UNSPECIFIED.);
#318=B_SPLINE_CURVE_WITH_KNOTS('',1,(#688,#689),.UNSPECIFIED.,.F.,.F.,(2,
2),(0.,1.43603111945761),.UNSPECIFIED.);
#319=B_SPLINE_CURVE_WITH_KNOTS('',1,(#690,#691),.UNSPECIFIED.,.F.,.F.,(2,
2),(0.,0.810000000001196),.UNSPECIFIED.);
#320=B_SPLINE_CURVE_WITH_KNOTS('',1,(#692,#693),.UNSPECIFIED.,.F.,.F.,(2,
2),(0.,0.810030000001206),.UNSPECIFIED.);
#321=B_SPLINE_CURVE_WITH_KNOTS('',1,(#694,#695),.UNSPECIFIED.,.F.,.F.,(2,
2),(0.,0.810000000001196),.UNSPECIFIED.);
#322=B_SPLINE_CURVE_WITH_KNOTS('',1,(#696,#697),.UNSPECIFIED.,.F.,.F.,(2,
2),(0.,0.810000000001224),.UNSPECIFIED.);
#323=B_SPLINE_CURVE_WITH_KNOTS('',1,(#698,#699),.UNSPECIFIED.,.F.,.F.,(2,
2),(2.90000000000429,4.18000000000619),.UNSPECIFIED.);
#324=B_SPLINE_CURVE_WITH_KNOTS('',1,(#700,#701),.UNSPECIFIED.,.F.,.F.,(2,
2),(2.09000000000309,2.90000000000429),.UNSPECIFIED.);
#325=B_SPLINE_CURVE_WITH_KNOTS('',1,(#702,#703),.UNSPECIFIED.,.F.,.F.,(2,
2),(0.810000000001196,2.09000000000309),.UNSPECIFIED.);
#326=B_SPLINE_CURVE_WITH_KNOTS('',1,(#704,#705),.UNSPECIFIED.,.F.,.F.,(2,
2),(2.90006000000431,4.18006000000621),.UNSPECIFIED.);
#327=B_SPLINE_CURVE_WITH_KNOTS('',1,(#706,#707),.UNSPECIFIED.,.F.,.F.,(2,
2),(2.0900300000031,2.90006000000431),.UNSPECIFIED.);
#328=B_SPLINE_CURVE_WITH_KNOTS('',1,(#708,#709),.UNSPECIFIED.,.F.,.F.,(2,
2),(0.810030000001206,2.0900300000031),.UNSPECIFIED.);
#329=B_SPLINE_CURVE_WITH_KNOTS('',1,(#710,#711),.UNSPECIFIED.,.F.,.F.,(2,
2),(2.90000000000429,4.18000000000619),.UNSPECIFIED.);
#330=B_SPLINE_CURVE_WITH_KNOTS('',1,(#712,#713),.UNSPECIFIED.,.F.,.F.,(2,
2),(2.09000000000309,2.90000000000429),.UNSPECIFIED.);
#331=B_SPLINE_CURVE_WITH_KNOTS('',1,(#714,#715),.UNSPECIFIED.,.F.,.F.,(2,
2),(0.810000000001196,2.09000000000309),.UNSPECIFIED.);
#332=B_SPLINE_CURVE_WITH_KNOTS('',1,(#716,#717),.UNSPECIFIED.,.F.,.F.,(2,
2),(2.90000000000435,4.18000000000625),.UNSPECIFIED.);
#333=B_SPLINE_CURVE_WITH_KNOTS('',1,(#718,#719),.UNSPECIFIED.,.F.,.F.,(2,
2),(2.09000000000312,2.90000000000435),.UNSPECIFIED.);
#334=B_SPLINE_CURVE_WITH_KNOTS('',1,(#720,#721),.UNSPECIFIED.,.F.,.F.,(2,
2),(0.810000000001224,2.09000000000312),.UNSPECIFIED.);
#335=B_SPLINE_CURVE_WITH_KNOTS('',1,(#722,#723),.UNSPECIFIED.,.F.,.F.,(2,
2),(1.52054690445551E-6,8.2329915205591),.UNSPECIFIED.);
#336=B_SPLINE_CURVE_WITH_KNOTS('',1,(#724,#725),.UNSPECIFIED.,.F.,.F.,(2,
2),(1.01542357575768,7.17162357612008),.UNSPECIFIED.);
#337=B_SPLINE_CURVE_WITH_KNOTS('',1,(#726,#727),.UNSPECIFIED.,.F.,.F.,(2,
2),(4.35311343311864,5.85410655914871),.UNSPECIFIED.);
#338=B_SPLINE_CURVE_WITH_KNOTS('',1,(#728,#729),.UNSPECIFIED.,.F.,.F.,(2,
2),(3.6,5.54456737011157),.UNSPECIFIED.);
#339=B_SPLINE_CURVE_WITH_KNOTS('',1,(#735,#736),.UNSPECIFIED.,.F.,.F.,(2,
2),(0.,13.1930100000196),.UNSPECIFIED.);
#340=B_SPLINE_CURVE_WITH_KNOTS('',1,(#737,#738),.UNSPECIFIED.,.F.,.F.,(2,
2),(0.,1.89864310860727),.UNSPECIFIED.);
#341=B_SPLINE_CURVE_WITH_KNOTS('',1,(#739,#740),.UNSPECIFIED.,.F.,.F.,(2,
2),(0.,13.1930100000196),.UNSPECIFIED.);
#342=B_SPLINE_CURVE_WITH_KNOTS('',1,(#741,#742),.UNSPECIFIED.,.F.,.F.,(2,
2),(3.59999999999998,5.49864310860725),.UNSPECIFIED.);
#343=B_SPLINE_CURVE_WITH_KNOTS('',1,(#748,#749),.UNSPECIFIED.,.F.,.F.,(2,
2),(0.,13.1930100000196),.UNSPECIFIED.);
#344=B_SPLINE_CURVE_WITH_KNOTS('',1,(#750,#751),.UNSPECIFIED.,.F.,.F.,(2,
2),(0.,1.94456737011159),.UNSPECIFIED.);
#345=B_SPLINE_CURVE_WITH_KNOTS('',1,(#752,#753),.UNSPECIFIED.,.F.,.F.,(2,
2),(0.,13.1930100000195),.UNSPECIFIED.);
#346=B_SPLINE_CURVE_WITH_KNOTS('',1,(#754,#755),.UNSPECIFIED.,.F.,.F.,(2,
2),(3.10800000000006,5.05256737011163),.UNSPECIFIED.);
#347=B_SPLINE_CURVE_WITH_KNOTS('',1,(#761,#762),.UNSPECIFIED.,.F.,.F.,(2,
2),(0.,8.2329915205591),.UNSPECIFIED.);
#348=B_SPLINE_CURVE_WITH_KNOTS('',1,(#763,#764),.UNSPECIFIED.,.F.,.F.,(2,
2),(0.,13.1930100000196),.UNSPECIFIED.);
#349=B_SPLINE_CURVE_WITH_KNOTS('',1,(#765,#766),.UNSPECIFIED.,.F.,.F.,(2,
2),(0.,8.23299000001221),.UNSPECIFIED.);
#350=B_SPLINE_CURVE_WITH_KNOTS('',1,(#767,#768),.UNSPECIFIED.,.F.,.F.,(2,
2),(0.,13.1930104976064),.UNSPECIFIED.);
#351=VERTEX_POINT('',#504);
#352=VERTEX_POINT('',#505);
#353=VERTEX_POINT('',#506);
#354=VERTEX_POINT('',#507);
#355=VERTEX_POINT('',#517);
#356=VERTEX_POINT('',#518);
#357=VERTEX_POINT('',#519);
#358=VERTEX_POINT('',#520);
#359=VERTEX_POINT('',#530);
#360=VERTEX_POINT('',#531);
#361=VERTEX_POINT('',#532);
#362=VERTEX_POINT('',#533);
#363=VERTEX_POINT('',#543);
#364=VERTEX_POINT('',#544);
#365=VERTEX_POINT('',#545);
#366=VERTEX_POINT('',#546);
#367=VERTEX_POINT('',#556);
#368=VERTEX_POINT('',#557);
#369=VERTEX_POINT('',#558);
#370=VERTEX_POINT('',#559);
#371=VERTEX_POINT('',#569);
#372=VERTEX_POINT('',#570);
#373=VERTEX_POINT('',#571);
#374=VERTEX_POINT('',#572);
#375=VERTEX_POINT('',#582);
#376=VERTEX_POINT('',#583);
#377=VERTEX_POINT('',#584);
#378=VERTEX_POINT('',#585);
#379=VERTEX_POINT('',#595);
#380=VERTEX_POINT('',#596);
#381=VERTEX_POINT('',#597);
#382=VERTEX_POINT('',#598);
#383=VERTEX_POINT('',#608);
#384=VERTEX_POINT('',#609);
#385=VERTEX_POINT('',#610);
#386=VERTEX_POINT('',#611);
#387=VERTEX_POINT('',#621);
#388=VERTEX_POINT('',#622);
#389=VERTEX_POINT('',#623);
#390=VERTEX_POINT('',#624);
#391=VERTEX_POINT('',#625);
#392=VERTEX_POINT('',#626);
#393=VERTEX_POINT('',#627);
#394=VERTEX_POINT('',#628);
#395=VERTEX_POINT('',#629);
#396=VERTEX_POINT('',#630);
#397=VERTEX_POINT('',#631);
#398=VERTEX_POINT('',#632);
#399=VERTEX_POINT('',#633);
#400=VERTEX_POINT('',#634);
#401=VERTEX_POINT('',#664);
#402=VERTEX_POINT('',#665);
#403=VERTEX_POINT('',#666);
#404=VERTEX_POINT('',#667);
#405=VERTEX_POINT('',#668);
#406=VERTEX_POINT('',#669);
#407=VERTEX_POINT('',#670);
#408=VERTEX_POINT('',#671);
#409=VERTEX_POINT('',#672);
#410=VERTEX_POINT('',#673);
#411=VERTEX_POINT('',#674);
#412=VERTEX_POINT('',#675);
#413=VERTEX_POINT('',#676);
#414=VERTEX_POINT('',#677);
#415=VERTEX_POINT('',#678);
#416=VERTEX_POINT('',#679);
#417=VERTEX_POINT('',#680);
#418=VERTEX_POINT('',#681);
#419=VERTEX_POINT('',#682);
#420=VERTEX_POINT('',#683);
#421=VERTEX_POINT('',#684);
#422=VERTEX_POINT('',#685);
#423=VERTEX_POINT('',#731);
#424=VERTEX_POINT('',#732);
#425=VERTEX_POINT('',#733);
#426=VERTEX_POINT('',#734);
#427=VERTEX_POINT('',#744);
#428=VERTEX_POINT('',#745);
#429=VERTEX_POINT('',#746);
#430=VERTEX_POINT('',#747);
#431=VERTEX_POINT('',#757);
#432=VERTEX_POINT('',#758);
#433=VERTEX_POINT('',#759);
#434=VERTEX_POINT('',#760);
#435=PLANE('',#469);
#436=PLANE('',#470);
#437=PLANE('',#471);
#438=PLANE('',#472);
#439=PLANE('',#473);
#440=PLANE('',#474);
#441=PLANE('',#475);
#442=PLANE('',#476);
#443=PLANE('',#477);
#444=PLANE('',#478);
#445=PLANE('',#479);
#446=PLANE('',#480);
#447=PLANE('',#481);
#448=PLANE('',#482);
#449=SHAPE_DEFINITION_REPRESENTATION(#450,#467);
#450=PRODUCT_DEFINITION_SHAPE($,$,#452);
#451=PRODUCT_DEFINITION_CONTEXT('3D Mechanical Parts',#456,'design');
#452=PRODUCT_DEFINITION('A','First version',#453,#451);
#453=PRODUCT_DEFINITION_FORMATION_WITH_SPECIFIED_SOURCE('A',
'First version',#458,.MADE.);
#454=PRODUCT_RELATED_PRODUCT_CATEGORY('tool','tool',(#458));
#455=APPLICATION_PROTOCOL_DEFINITION('Draft International Standard',
'automotive_design',1999,#456);
#456=APPLICATION_CONTEXT(
'data for automotive mechanical design processes');
#457=PRODUCT_CONTEXT('3D Mechanical Parts',#456,'mechanical');
#458=PRODUCT('Document','Document','',(#457));
#459=(
LENGTH_UNIT()
NAMED_UNIT(*)
SI_UNIT($,.METRE.)
);
#460=(
NAMED_UNIT(*)
PLANE_ANGLE_UNIT()
SI_UNIT($,.RADIAN.)
);
#461=DIMENSIONAL_EXPONENTS(0.,0.,0.,0.,0.,0.,0.);
#462=PLANE_ANGLE_MEASURE_WITH_UNIT(PLANE_ANGLE_MEASURE(0.01745329252),#460);
#463=(
CONVERSION_BASED_UNIT('DEGREES',#462)
NAMED_UNIT(#461)
PLANE_ANGLE_UNIT()
);
#464=(
NAMED_UNIT(*)
SI_UNIT($,.STERADIAN.)
SOLID_ANGLE_UNIT()
);
#465=UNCERTAINTY_MEASURE_WITH_UNIT(LENGTH_MEASURE(0.01),#459,
'DISTANCE_ACCURACY_VALUE',
'Maximum model space distance between geometric entities at asserted c
onnectivities');
#466=(
GEOMETRIC_REPRESENTATION_CONTEXT(3)
GLOBAL_UNCERTAINTY_ASSIGNED_CONTEXT((#465))
GLOBAL_UNIT_ASSIGNED_CONTEXT((#464,#463,#459))
REPRESENTATION_CONTEXT('ID1','3D')
);
#467=SHAPE_REPRESENTATION('Document',(#468,#483),#466);
#468=AXIS2_PLACEMENT_3D($,#502,#484,#485);
#469=AXIS2_PLACEMENT_3D('',#503,#486,$);
#470=AXIS2_PLACEMENT_3D('',#516,#487,$);
#471=AXIS2_PLACEMENT_3D('',#529,#488,$);
#472=AXIS2_PLACEMENT_3D('',#542,#489,$);
#473=AXIS2_PLACEMENT_3D('',#555,#490,$);
#474=AXIS2_PLACEMENT_3D('',#568,#491,$);
#475=AXIS2_PLACEMENT_3D('',#581,#492,$);
#476=AXIS2_PLACEMENT_3D('',#594,#493,$);
#477=AXIS2_PLACEMENT_3D('',#607,#494,$);
#478=AXIS2_PLACEMENT_3D('',#620,#495,$);
#479=AXIS2_PLACEMENT_3D('',#663,#496,$);
#480=AXIS2_PLACEMENT_3D('',#730,#497,$);
#481=AXIS2_PLACEMENT_3D('',#743,#498,$);
#482=AXIS2_PLACEMENT_3D('',#756,#499,$);
#483=AXIS2_PLACEMENT_3D($,#769,#500,#501);
#484=DIRECTION('',(0.,0.,1.));
#485=DIRECTION('',(1.,0.,0.));
#486=DIRECTION('',(0.577709519870574,-0.816242433748032,-3.01249341910217E-16));
#487=DIRECTION('',(0.577709519870572,-0.816242433748034,-9.95600699039204E-16));
#488=DIRECTION('',(0.57770951987057,-0.816242433748035,-8.14358470314568E-16));
#489=DIRECTION('',(0.577709519870567,-0.816242433748037,-1.0862218134015E-15));
#490=DIRECTION('',(-0.577709519870549,0.81624243374805,-9.81523479100698E-16));
#491=DIRECTION('',(-0.577709519870564,0.81624243374804,-4.90761739550348E-16));
#492=DIRECTION('',(0.,0.,-1.));
#493=DIRECTION('',(-0.577173565319649,-0.408504446126025,0.707103099265924));
#494=DIRECTION('',(0.577167554655598,0.408500191975913,0.707110463087996));
#495=DIRECTION('',(-0.577709519870561,0.816242433748042,3.09519510825718E-16));
#496=DIRECTION('',(0.577709519870571,-0.816242433748035,7.59864788501143E-16));
#497=DIRECTION('',(0.816242433748034,0.577709519870571,-1.60056250075213E-15));
#498=DIRECTION('',(-0.816242433748034,-0.577709519870572,-2.97979612212305E-15));
#499=DIRECTION('',(0.,0.,-1.));
#500=DIRECTION('',(0.,0.,1.));
#501=DIRECTION('',(1.,0.,0.));
#502=CARTESIAN_POINT('',(0.,0.,0.));
#503=CARTESIAN_POINT('',(15.777892395753,4.38163422875779,4.05500000000681));
#504=CARTESIAN_POINT('',(15.777892395753,4.38163422875779,4.05500000000681));
#505=CARTESIAN_POINT('',(16.4390487670899,4.84957893985364,4.0550000000068));
#506=CARTESIAN_POINT('',(16.4390487670899,4.84957893985364,5.3350000000087));
#507=CARTESIAN_POINT('',(15.777892395753,4.38163422875779,5.3350000000087));
#508=CARTESIAN_POINT('',(15.777892395753,4.38163422875779,4.05500000000681));
#509=CARTESIAN_POINT('',(16.4390487670899,4.84957893985364,4.0550000000068));
#510=CARTESIAN_POINT('',(16.4390487670899,4.84957893985364,4.0550000000068));
#511=CARTESIAN_POINT('',(16.4390487670899,4.84957893985364,5.3350000000087));
#512=CARTESIAN_POINT('',(16.4390487670899,4.84957893985364,5.3350000000087));
#513=CARTESIAN_POINT('',(15.777892395753,4.38163422875779,5.3350000000087));
#514=CARTESIAN_POINT('',(15.777892395753,4.38163422875779,5.3350000000087));
#515=CARTESIAN_POINT('',(15.777892395753,4.38163422875779,4.05500000000681));
#516=CARTESIAN_POINT('',(14.9306074333212,3.78195557584578,4.0550000000068));
#517=CARTESIAN_POINT('',(14.9306074333212,3.78195557584578,4.0550000000068));
#518=CARTESIAN_POINT('',(15.5917882919311,4.24991761822724,4.0550000000068));
#519=CARTESIAN_POINT('',(15.5917882919312,4.24991761822724,5.3350000000087));
#520=CARTESIAN_POINT('',(14.9306074333212,3.78195557584578,5.3350000000087));
#521=CARTESIAN_POINT('',(14.9306074333212,3.78195557584578,4.0550000000068));
#522=CARTESIAN_POINT('',(15.5917882919311,4.24991761822724,4.0550000000068));
#523=CARTESIAN_POINT('',(15.5917882919311,4.24991761822724,4.0550000000068));
#524=CARTESIAN_POINT('',(15.5917882919312,4.24991761822724,5.3350000000087));
#525=CARTESIAN_POINT('',(15.5917882919312,4.24991761822724,5.3350000000087));
#526=CARTESIAN_POINT('',(14.9306074333212,3.78195557584578,5.3350000000087));
#527=CARTESIAN_POINT('',(14.9306074333212,3.78195557584578,5.3350000000087));
#528=CARTESIAN_POINT('',(14.9306074333212,3.78195557584578,4.0550000000068));
#529=CARTESIAN_POINT('',(13.0907964706421,2.47979569435122,4.0550000000068));
#530=CARTESIAN_POINT('',(13.0907964706421,2.47979569435122,4.0550000000068));
#531=CARTESIAN_POINT('',(13.751952841979,2.94774040544706,4.0550000000068));
#532=CARTESIAN_POINT('',(13.751952841979,2.94774040544706,5.3350000000087));
#533=CARTESIAN_POINT('',(13.0907964706421,2.4797956943512,5.3350000000087));
#534=CARTESIAN_POINT('',(13.0907964706421,2.47979569435122,4.0550000000068));
#535=CARTESIAN_POINT('',(13.751952841979,2.94774040544706,4.0550000000068));
#536=CARTESIAN_POINT('',(13.751952841979,2.94774040544706,4.0550000000068));
#537=CARTESIAN_POINT('',(13.751952841979,2.94774040544706,5.3350000000087));
#538=CARTESIAN_POINT('',(13.751952841979,2.94774040544706,5.3350000000087));
#539=CARTESIAN_POINT('',(13.0907964706421,2.4797956943512,5.3350000000087));
#540=CARTESIAN_POINT('',(13.0907964706421,2.4797956943512,5.3350000000087));
#541=CARTESIAN_POINT('',(13.0907964706421,2.47979569435122,4.0550000000068));
#542=CARTESIAN_POINT('',(12.2435369491577,1.88013291358949,4.0550000000068));
#543=CARTESIAN_POINT('',(12.2435369491577,1.88013291358949,4.0550000000068));
#544=CARTESIAN_POINT('',(12.9046933204946,2.34807762468536,4.05500000000679));
#545=CARTESIAN_POINT('',(12.9046933204946,2.34807762468534,5.33500000000869));
#546=CARTESIAN_POINT('',(12.2435369491577,1.88013291358948,5.33500000000869));
#547=CARTESIAN_POINT('',(12.2435369491577,1.88013291358949,4.0550000000068));
#548=CARTESIAN_POINT('',(12.9046933204946,2.34807762468536,4.05500000000679));
#549=CARTESIAN_POINT('',(12.9046933204946,2.34807762468536,4.05500000000679));
#550=CARTESIAN_POINT('',(12.9046933204946,2.34807762468534,5.33500000000869));
#551=CARTESIAN_POINT('',(12.9046933204946,2.34807762468534,5.33500000000869));
#552=CARTESIAN_POINT('',(12.2435369491577,1.88013291358948,5.33500000000869));
#553=CARTESIAN_POINT('',(12.2435369491577,1.88013291358948,5.33500000000869));
#554=CARTESIAN_POINT('',(12.2435369491577,1.88013291358949,4.0550000000068));
#555=CARTESIAN_POINT('',(6.10328902804316,13.6973720458738,3.19200000000553));
#556=CARTESIAN_POINT('',(6.10328902804316,13.6973720458738,3.19200000000553));
#557=CARTESIAN_POINT('',(4.67486476898193,12.6863803860988,3.19200000000553));
#558=CARTESIAN_POINT('',(4.67486476898193,12.6863803860988,5.40500000000881));
#559=CARTESIAN_POINT('',(6.10328902804316,13.6973720458738,5.40500000000881));
#560=CARTESIAN_POINT('',(6.10328902804316,13.6973720458738,3.19200000000553));
#561=CARTESIAN_POINT('',(4.67486476898193,12.6863803860988,3.19200000000553));
#562=CARTESIAN_POINT('',(4.67486476898193,12.6863803860988,3.19200000000553));
#563=CARTESIAN_POINT('',(4.67486476898193,12.6863803860988,5.40500000000881));
#564=CARTESIAN_POINT('',(4.67486476898193,12.6863803860988,5.40500000000881));
#565=CARTESIAN_POINT('',(6.10328902804316,13.6973720458738,5.40500000000881));
#566=CARTESIAN_POINT('',(6.10328902804316,13.6973720458738,5.40500000000881));
#567=CARTESIAN_POINT('',(6.10328902804316,13.6973720458738,3.19200000000553));
#568=CARTESIAN_POINT('',(8.7642387350744,15.5807033449557,3.19200000000553));
#569=CARTESIAN_POINT('',(8.7642387350744,15.5807033449557,3.19200000000553));
#570=CARTESIAN_POINT('',(7.33581447601321,14.5697116851807,3.19200000000553));
#571=CARTESIAN_POINT('',(7.33581447601319,14.5697116851807,5.40500000000881));
#572=CARTESIAN_POINT('',(8.7642387350744,15.5807033449557,5.40500000000881));
#573=CARTESIAN_POINT('',(8.7642387350744,15.5807033449557,3.19200000000553));
#574=CARTESIAN_POINT('',(7.33581447601321,14.5697116851807,3.19200000000553));
#575=CARTESIAN_POINT('',(7.33581447601321,14.5697116851807,3.19200000000553));
#576=CARTESIAN_POINT('',(7.33581447601319,14.5697116851807,5.40500000000881));
#577=CARTESIAN_POINT('',(7.33581447601319,14.5697116851807,5.40500000000881));
#578=CARTESIAN_POINT('',(8.7642387350744,15.5807033449557,5.40500000000881));
#579=CARTESIAN_POINT('',(8.7642387350744,15.5807033449557,5.40500000000881));
#580=CARTESIAN_POINT('',(8.7642387350744,15.5807033449557,3.19200000000553));
#581=CARTESIAN_POINT('',(3.37827197906135,11.7686953653982,6.06800000000006));
#582=CARTESIAN_POINT('',(9.23205476780323,15.9118089252965,6.06800000000006));
#583=CARTESIAN_POINT('',(16.8537822776206,5.14311428205879,6.06800000000006));
#584=CARTESIAN_POINT('',(11.828830821633,1.58661863192346,6.06800000000006));
#585=CARTESIAN_POINT('',(4.20710309686766,12.35531357886,6.06800000000006));
#586=CARTESIAN_POINT('',(9.23205476780323,15.9118089252965,6.06800000000006));
#587=CARTESIAN_POINT('',(16.8537822776206,5.14311428205879,6.06800000000006));
#588=CARTESIAN_POINT('',(11.828830821633,1.58661863192346,6.06800000000006));
#589=CARTESIAN_POINT('',(4.20710309686766,12.35531357886,6.06800000000006));
#590=CARTESIAN_POINT('',(11.828830821633,1.58661863192346,6.06800000000006));
#591=CARTESIAN_POINT('',(16.8537822776206,5.14311428205879,6.06800000000006));
#592=CARTESIAN_POINT('',(9.23205476780323,15.9118089252965,6.06800000000006));
#593=CARTESIAN_POINT('',(4.20710309686766,12.35531357886,6.06800000000006));
#594=CARTESIAN_POINT('',(10.9999999999999,1.00000000000004,5.05256737011163));
#595=CARTESIAN_POINT('',(10.9999999999999,1.00000000000004,5.05256737011163));
#596=CARTESIAN_POINT('',(3.37827252724097,11.7686945908782,5.05256737011165));
#597=CARTESIAN_POINT('',(11.8288305696266,1.58661898798186,6.06800000000009));
#598=CARTESIAN_POINT('',(4.20710309686764,12.35531357886,6.06800000000006));
#599=CARTESIAN_POINT('',(10.9999999999999,1.00000000000004,5.05256737011163));
#600=CARTESIAN_POINT('',(3.37827252724097,11.7686945908782,5.05256737011165));
#601=CARTESIAN_POINT('',(10.9999999999999,1.00000000000004,5.05256737011163));
#602=CARTESIAN_POINT('',(11.8288305696266,1.58661898798186,6.06800000000009));
#603=CARTESIAN_POINT('',(3.37827252724097,11.7686945908782,5.05256737011165));
#604=CARTESIAN_POINT('',(4.20710309686764,12.35531357886,6.06800000000006));
#605=CARTESIAN_POINT('',(11.8288305696266,1.58661898798186,6.06800000000009));
#606=CARTESIAN_POINT('',(4.20710309686764,12.35531357886,6.06800000000006));
#607=CARTESIAN_POINT('',(10.0983883218743,16.5249712908845,5.00664310860733));
#608=CARTESIAN_POINT('',(10.0983883218743,16.5249712908845,5.00664310860733));
#609=CARTESIAN_POINT('',(17.7201157946332,5.75627670000628,5.00664310860734));
#610=CARTESIAN_POINT('',(9.2320547678032,15.9118089252966,6.06800000000006));
#611=CARTESIAN_POINT('',(16.8537822405622,5.14311433441841,6.06800000000005));
#612=CARTESIAN_POINT('',(10.0983883218743,16.5249712908845,5.00664310860733));
#613=CARTESIAN_POINT('',(17.7201157946332,5.75627670000628,5.00664310860734));
#614=CARTESIAN_POINT('',(10.0983883218743,16.5249712908845,5.00664310860733));
#615=CARTESIAN_POINT('',(9.2320547678032,15.9118089252966,6.06800000000006));
#616=CARTESIAN_POINT('',(17.7201157946332,5.75627670000628,5.00664310860734));
#617=CARTESIAN_POINT('',(16.8537822405622,5.14311433441841,6.06800000000005));
#618=CARTESIAN_POINT('',(9.2320547678032,15.9118089252966,6.06800000000006));
#619=CARTESIAN_POINT('',(16.8537822405622,5.14311433441841,6.06800000000005));
#620=CARTESIAN_POINT('',(3.31107136929472,11.7211318238781,9.24248100001452));
#621=CARTESIAN_POINT('',(10.0983883218743,16.5249712908844,5.00664310860734));
#622=CARTESIAN_POINT('',(3.37827252724102,11.7686945908782,5.05256737011165));
#623=CARTESIAN_POINT('',(4.67486547082734,12.6863803860988,3.19200000000553));
#624=CARTESIAN_POINT('',(7.33581580484989,14.5697134208796,3.19200000000553));
#625=CARTESIAN_POINT('',(4.67486547082734,12.6863803860988,5.40500000000881));
#626=CARTESIAN_POINT('',(6.10328972988856,13.6973720458738,5.40500000000881));
#627=CARTESIAN_POINT('',(6.10328972988856,13.6973720458738,3.19200000000553));
#628=CARTESIAN_POINT('',(7.33581580484989,14.5697134208796,5.40500000000881));
#629=CARTESIAN_POINT('',(8.7642400639111,15.5807050806546,5.40500000000881));
#630=CARTESIAN_POINT('',(8.76424006391107,15.5807050806546,3.19200000000553));
#631=CARTESIAN_POINT('',(10.0983883218743,16.5249712908844,3.10800000000006));
#632=CARTESIAN_POINT('',(3.37827252724101,11.7686945908782,3.10800000000007));
#633=CARTESIAN_POINT('',(9.2320547678032,15.9118089252965,6.06800000000006));
#634=CARTESIAN_POINT('',(4.20710309686769,12.35531357886,6.06800000000006));
#635=CARTESIAN_POINT('',(10.0983883218743,16.5249712908844,5.00664310860734));
#636=CARTESIAN_POINT('',(10.0983883218743,16.5249712908844,3.10800000000006));
#637=CARTESIAN_POINT('',(3.37827252724102,11.7686945908782,5.05256737011165));
#638=CARTESIAN_POINT('',(4.20710309686769,12.35531357886,6.06800000000006));
#639=CARTESIAN_POINT('',(4.67486547082734,12.6863803860988,3.19200000000553));
#640=CARTESIAN_POINT('',(6.10328972988856,13.6973720458738,3.19200000000553));
#641=CARTESIAN_POINT('',(7.33581580484989,14.5697134208796,3.19200000000553));
#642=CARTESIAN_POINT('',(8.76424006391107,15.5807050806546,3.19200000000553));
#643=CARTESIAN_POINT('',(4.67486547082734,12.6863803860988,5.40500000000881));
#644=CARTESIAN_POINT('',(4.67486547082734,12.6863803860988,3.19200000000553));
#645=CARTESIAN_POINT('',(6.10328972988856,13.6973720458738,5.40500000000881));
#646=CARTESIAN_POINT('',(4.67486547082734,12.6863803860988,5.40500000000881));
#647=CARTESIAN_POINT('',(6.10328972988856,13.6973720458738,3.19200000000553));
#648=CARTESIAN_POINT('',(6.10328972988856,13.6973720458738,5.40500000000881));
#649=CARTESIAN_POINT('',(7.33581580484989,14.5697134208796,5.40500000000881));
#650=CARTESIAN_POINT('',(7.33581580484989,14.5697134208796,3.19200000000553));
#651=CARTESIAN_POINT('',(8.7642400639111,15.5807050806546,5.40500000000881));
#652=CARTESIAN_POINT('',(7.33581580484989,14.5697134208796,5.40500000000881));
#653=CARTESIAN_POINT('',(8.76424006391107,15.5807050806546,3.19200000000553));
#654=CARTESIAN_POINT('',(8.7642400639111,15.5807050806546,5.40500000000881));
#655=CARTESIAN_POINT('',(10.0983883218743,16.5249712908844,3.10800000000006));
#656=CARTESIAN_POINT('',(3.37827252724101,11.7686945908782,3.10800000000007));
#657=CARTESIAN_POINT('',(9.2320547678032,15.9118089252965,6.06800000000006));
#658=CARTESIAN_POINT('',(4.20710309686769,12.35531357886,6.06800000000006));
#659=CARTESIAN_POINT('',(9.2320547678032,15.9118089252965,6.06800000000006));
#660=CARTESIAN_POINT('',(10.0983883218743,16.5249712908844,5.00664310860734));
#661=CARTESIAN_POINT('',(3.37827252724101,11.7686945908782,3.10800000000007));
#662=CARTESIAN_POINT('',(3.37827252724102,11.7686945908782,5.05256737011165));
#663=CARTESIAN_POINT('',(17.7873169525795,5.80383946700639,-0.588381000000068));
#664=CARTESIAN_POINT('',(17.7201157946332,5.7562767000063,5.00664310860734));
#665=CARTESIAN_POINT('',(10.9999999999999,1.00000000000004,5.05256737011163));
#666=CARTESIAN_POINT('',(16.4390477821368,4.84957893985364,4.05500000000681));
#667=CARTESIAN_POINT('',(15.5917881359051,4.24991645822709,4.0550000000068));
#668=CARTESIAN_POINT('',(13.7519532029612,2.94774186915129,4.0550000000068));
#669=CARTESIAN_POINT('',(12.9046935567295,2.34807938752476,4.0550000000068));
#670=CARTESIAN_POINT('',(16.4390477821368,4.84957893985364,5.3350000000087));
#671=CARTESIAN_POINT('',(15.7778914107999,4.38163422875779,5.3350000000087));
#672=CARTESIAN_POINT('',(15.7778914107999,4.38163422875779,4.0550000000068));
#673=CARTESIAN_POINT('',(15.591788135905,4.24991645822709,5.3350000000087));
#674=CARTESIAN_POINT('',(14.9306072772951,3.78195441584563,5.3350000000087));
#675=CARTESIAN_POINT('',(14.9306072772952,3.78195441584563,4.0550000000068));
#676=CARTESIAN_POINT('',(13.7519532029612,2.94774186915132,5.3350000000087));
#677=CARTESIAN_POINT('',(13.0907968316243,2.47979715805545,5.3350000000087));
#678=CARTESIAN_POINT('',(13.0907968316243,2.47979715805545,4.0550000000068));
#679=CARTESIAN_POINT('',(12.9046935567295,2.34807938752478,5.33500000000869));
#680=CARTESIAN_POINT('',(12.2435371853926,1.88013467642891,5.33500000000869));
#681=CARTESIAN_POINT('',(12.2435371853926,1.8801346764289,4.05500000000679));
#682=CARTESIAN_POINT('',(11.,1.00000000000003,3.10800000000006));
#683=CARTESIAN_POINT('',(17.7201157946332,5.75627670000629,3.10800000000006));
#684=CARTESIAN_POINT('',(11.8288305696266,1.58661898798186,6.06800000000009));
#685=CARTESIAN_POINT('',(16.8537822405621,5.14311433441842,6.06800000000006));
#686=CARTESIAN_POINT('',(17.7201157946332,5.7562767000063,5.00664310860734));
#687=CARTESIAN_POINT('',(17.7201157946332,5.75627670000629,3.10800000000006));
#688=CARTESIAN_POINT('',(10.9999999999999,1.00000000000004,5.05256737011163));
#689=CARTESIAN_POINT('',(11.8288305696266,1.58661898798186,6.06800000000009));
#690=CARTESIAN_POINT('',(16.4390477821368,4.84957893985364,4.05500000000681));
#691=CARTESIAN_POINT('',(15.7778914107999,4.38163422875779,4.0550000000068));
#692=CARTESIAN_POINT('',(15.5917881359051,4.24991645822709,4.0550000000068));
#693=CARTESIAN_POINT('',(14.9306072772952,3.78195441584563,4.0550000000068));
#694=CARTESIAN_POINT('',(13.7519532029612,2.94774186915129,4.0550000000068));
#695=CARTESIAN_POINT('',(13.0907968316243,2.47979715805545,4.0550000000068));
#696=CARTESIAN_POINT('',(12.9046935567295,2.34807938752476,4.0550000000068));
#697=CARTESIAN_POINT('',(12.2435371853926,1.8801346764289,4.05500000000679));
#698=CARTESIAN_POINT('',(16.4390477821368,4.84957893985364,5.3350000000087));
#699=CARTESIAN_POINT('',(16.4390477821368,4.84957893985364,4.05500000000681));
#700=CARTESIAN_POINT('',(15.7778914107999,4.38163422875779,5.3350000000087));
#701=CARTESIAN_POINT('',(16.4390477821368,4.84957893985364,5.3350000000087));
#702=CARTESIAN_POINT('',(15.7778914107999,4.38163422875779,4.0550000000068));
#703=CARTESIAN_POINT('',(15.7778914107999,4.38163422875779,5.3350000000087));
#704=CARTESIAN_POINT('',(15.591788135905,4.24991645822709,5.3350000000087));
#705=CARTESIAN_POINT('',(15.5917881359051,4.24991645822709,4.0550000000068));
#706=CARTESIAN_POINT('',(14.9306072772951,3.78195441584563,5.3350000000087));
#707=CARTESIAN_POINT('',(15.591788135905,4.24991645822709,5.3350000000087));
#708=CARTESIAN_POINT('',(14.9306072772952,3.78195441584563,4.0550000000068));
#709=CARTESIAN_POINT('',(14.9306072772951,3.78195441584563,5.3350000000087));
#710=CARTESIAN_POINT('',(13.7519532029612,2.94774186915132,5.3350000000087));
#711=CARTESIAN_POINT('',(13.7519532029612,2.94774186915129,4.0550000000068));
#712=CARTESIAN_POINT('',(13.0907968316243,2.47979715805545,5.3350000000087));
#713=CARTESIAN_POINT('',(13.7519532029612,2.94774186915132,5.3350000000087));
#714=CARTESIAN_POINT('',(13.0907968316243,2.47979715805545,4.0550000000068));
#715=CARTESIAN_POINT('',(13.0907968316243,2.47979715805545,5.3350000000087));
#716=CARTESIAN_POINT('',(12.9046935567295,2.34807938752478,5.33500000000869));
#717=CARTESIAN_POINT('',(12.9046935567295,2.34807938752476,4.0550000000068));
#718=CARTESIAN_POINT('',(12.2435371853926,1.88013467642891,5.33500000000869));
#719=CARTESIAN_POINT('',(12.9046935567295,2.34807938752478,5.33500000000869));
#720=CARTESIAN_POINT('',(12.2435371853926,1.8801346764289,4.05500000000679));
#721=CARTESIAN_POINT('',(12.2435371853926,1.88013467642891,5.33500000000869));
#722=CARTESIAN_POINT('',(11.,1.00000000000003,3.10800000000006));
#723=CARTESIAN_POINT('',(17.7201157946332,5.75627670000629,3.10800000000006));
#724=CARTESIAN_POINT('',(11.8288305696266,1.58661898798186,6.06800000000009));
#725=CARTESIAN_POINT('',(16.8537822405621,5.14311433441842,6.06800000000006));
#726=CARTESIAN_POINT('',(16.8537822405621,5.14311433441842,6.06800000000006));
#727=CARTESIAN_POINT('',(17.7201157946332,5.7562767000063,5.00664310860734));
#728=CARTESIAN_POINT('',(11.,1.00000000000003,3.10800000000006));
#729=CARTESIAN_POINT('',(10.9999999999999,1.00000000000004,5.05256737011163));
#730=CARTESIAN_POINT('',(17.7201157946332,5.75627670000626,-0.491999999999924));
#731=CARTESIAN_POINT('',(10.0983883218743,16.5249712908844,5.00664310860733));
#732=CARTESIAN_POINT('',(17.7201157946332,5.75627670000627,5.00664310860733));
#733=CARTESIAN_POINT('',(17.7201157946332,5.75627670000627,3.10800000000006));
#734=CARTESIAN_POINT('',(10.0983883218743,16.5249712908844,3.10800000000006));
#735=CARTESIAN_POINT('',(10.0983883218743,16.5249712908844,5.00664310860733));
#736=CARTESIAN_POINT('',(17.7201157946332,5.75627670000627,5.00664310860733));
#737=CARTESIAN_POINT('',(17.7201157946332,5.75627670000627,5.00664310860733));
#738=CARTESIAN_POINT('',(17.7201157946332,5.75627670000627,3.10800000000006));
#739=CARTESIAN_POINT('',(17.7201157946332,5.75627670000627,3.10800000000006));
#740=CARTESIAN_POINT('',(10.0983883218743,16.5249712908844,3.10800000000006));
#741=CARTESIAN_POINT('',(10.0983883218743,16.5249712908844,3.10800000000006));
#742=CARTESIAN_POINT('',(10.0983883218743,16.5249712908844,5.00664310860733));
#743=CARTESIAN_POINT('',(3.37827252724096,11.7686945908782,0.));
#744=CARTESIAN_POINT('',(10.9999999999999,1.00000000000004,5.05256737011163));
#745=CARTESIAN_POINT('',(3.37827252724102,11.7686945908782,5.05256737011165));
#746=CARTESIAN_POINT('',(3.37827252724101,11.7686945908782,3.10800000000006));
#747=CARTESIAN_POINT('',(11.,1.00000000000003,3.10800000000006));
#748=CARTESIAN_POINT('',(10.9999999999999,1.00000000000004,5.05256737011163));
#749=CARTESIAN_POINT('',(3.37827252724102,11.7686945908782,5.05256737011165));
#750=CARTESIAN_POINT('',(3.37827252724102,11.7686945908782,5.05256737011165));
#751=CARTESIAN_POINT('',(3.37827252724101,11.7686945908782,3.10800000000006));
#752=CARTESIAN_POINT('',(3.37827252724101,11.7686945908782,3.10800000000006));
#753=CARTESIAN_POINT('',(11.,1.00000000000003,3.10800000000006));
#754=CARTESIAN_POINT('',(11.,1.00000000000003,3.10800000000006));
#755=CARTESIAN_POINT('',(10.9999999999999,1.00000000000004,5.05256737011163));
#756=CARTESIAN_POINT('',(3.37827197906135,11.7686953653982,3.10800000000006));
#757=CARTESIAN_POINT('',(10.9999990463257,0.999998715414195,3.10800000000006));
#758=CARTESIAN_POINT('',(17.7201157946332,5.75627670000621,3.10800000000006));
#759=CARTESIAN_POINT('',(10.0983883218742,16.5249712908844,3.10800000000006));
#760=CARTESIAN_POINT('',(3.37827252724099,11.7686945908782,3.10800000000006));
#761=CARTESIAN_POINT('',(10.9999990463257,0.999998715414195,3.10800000000006));
#762=CARTESIAN_POINT('',(17.7201157946332,5.75627670000621,3.10800000000006));
#763=CARTESIAN_POINT('',(17.7201157946332,5.75627670000621,3.10800000000006));
#764=CARTESIAN_POINT('',(10.0983883218742,16.5249712908844,3.10800000000006));
#765=CARTESIAN_POINT('',(10.0983883218742,16.5249712908844,3.10800000000006));
#766=CARTESIAN_POINT('',(3.37827252724099,11.7686945908782,3.10800000000006));
#767=CARTESIAN_POINT('',(3.37827252724099,11.7686945908782,3.10800000000006));
#768=CARTESIAN_POINT('',(10.9999990463257,0.999998715414195,3.10800000000006));
#769=CARTESIAN_POINT('',(0.,0.,0.));
ENDSEC;
END-ISO-10303-21;
