ISO-10303-21;
HEADER;
/* Generated by software containing ST-Developer
 * from STEP Tools, Inc. (www.steptools.com) 
 */
/* OPTION: using custom schema-name function */

FILE_DESCRIPTION(
/* description */ (''),
/* implementation_level */ '2;1');

FILE_NAME(
/* name */ 'Owner-Occupier1_ZonePart1_STEP',
/* time_stamp */ '2026-04-10T17:27:25+02:00',
/* author */ (''),
/* organization */ (''),
/* preprocessor_version */ 'ST-DEVELOPER v19.2',
/* originating_system */ 'Rhino 8.29',
/* authorisation */ '');

FILE_SCHEMA (('AUTOMOTIVE_DESIGN'));
ENDSEC;

DATA;
#10=SHAPE_REPRESENTATION_RELATIONSHIP('','',#135,#19);
#11=PRESENTATION_LAYER_ASSIGNMENT(
'nrg3_ZonePart2+3_ZoneAtticFloorSurface','',(#14));
#12=PRESENTATION_LAYER_ASSIGNMENT('nrg3_ZonePart3_ZoneRoofSurface','',(#15,
#16));
#13=PRESENTATION_LAYER_ASSIGNMENT('nrg3_ZonePart3_ZoneWallSurface','',(#17,
#18));
#14=SHELL_BASED_SURFACE_MODEL('GroundSurface_01',(#20));
#15=SHELL_BASED_SURFACE_MODEL('RoofSurface_02',(#21));
#16=SHELL_BASED_SURFACE_MODEL('RoofSurface_01',(#22));
#17=SHELL_BASED_SURFACE_MODEL('WallSurface_02',(#23));
#18=SHELL_BASED_SURFACE_MODEL('WallSurface_04',(#24));
#19=MANIFOLD_SURFACE_SHAPE_REPRESENTATION('shell_rep_0',(#14,#15,#16,#17,
#18,#142),#134);
#20=OPEN_SHELL('',(#25));
#21=OPEN_SHELL('',(#26));
#22=OPEN_SHELL('',(#27));
#23=OPEN_SHELL('',(#28));
#24=OPEN_SHELL('',(#29));
#25=ADVANCED_FACE('',(#30),#112,.T.);
#26=ADVANCED_FACE('',(#31),#113,.T.);
#27=ADVANCED_FACE('',(#32),#114,.T.);
#28=ADVANCED_FACE('',(#33),#115,.T.);
#29=ADVANCED_FACE('',(#34),#116,.T.);
#30=FACE_OUTER_BOUND('',#35,.T.);
#31=FACE_OUTER_BOUND('',#36,.T.);
#32=FACE_OUTER_BOUND('',#37,.T.);
#33=FACE_OUTER_BOUND('',#38,.T.);
#34=FACE_OUTER_BOUND('',#39,.T.);
#35=EDGE_LOOP('',(#40,#41,#42,#43));
#36=EDGE_LOOP('',(#44,#45,#46,#47));
#37=EDGE_LOOP('',(#48,#49,#50,#51));
#38=EDGE_LOOP('',(#52,#53,#54));
#39=EDGE_LOOP('',(#55,#56,#57));
#40=ORIENTED_EDGE('',*,*,#58,.T.);
#41=ORIENTED_EDGE('',*,*,#60,.F.);
#42=ORIENTED_EDGE('',*,*,#59,.T.);
#43=ORIENTED_EDGE('',*,*,#61,.F.);
#44=ORIENTED_EDGE('',*,*,#64,.T.);
#45=ORIENTED_EDGE('',*,*,#62,.T.);
#46=ORIENTED_EDGE('',*,*,#65,.F.);
#47=ORIENTED_EDGE('',*,*,#63,.F.);
#48=ORIENTED_EDGE('',*,*,#68,.T.);
#49=ORIENTED_EDGE('',*,*,#66,.T.);
#50=ORIENTED_EDGE('',*,*,#69,.F.);
#51=ORIENTED_EDGE('',*,*,#67,.F.);
#52=ORIENTED_EDGE('',*,*,#71,.T.);
#53=ORIENTED_EDGE('',*,*,#72,.T.);
#54=ORIENTED_EDGE('',*,*,#70,.T.);
#55=ORIENTED_EDGE('',*,*,#74,.T.);
#56=ORIENTED_EDGE('',*,*,#73,.F.);
#57=ORIENTED_EDGE('',*,*,#75,.F.);
#58=EDGE_CURVE('',#94,#95,#76,.T.);
#59=EDGE_CURVE('',#96,#97,#77,.T.);
#60=EDGE_CURVE('',#96,#95,#78,.T.);
#61=EDGE_CURVE('',#94,#97,#79,.T.);
#62=EDGE_CURVE('',#98,#99,#80,.T.);
#63=EDGE_CURVE('',#100,#101,#81,.T.);
#64=EDGE_CURVE('',#100,#98,#82,.T.);
#65=EDGE_CURVE('',#101,#99,#83,.T.);
#66=EDGE_CURVE('',#102,#103,#84,.T.);
#67=EDGE_CURVE('',#104,#105,#85,.T.);
#68=EDGE_CURVE('',#104,#102,#86,.T.);
#69=EDGE_CURVE('',#105,#103,#87,.T.);
#70=EDGE_CURVE('',#106,#107,#88,.T.);
#71=EDGE_CURVE('',#107,#108,#89,.T.);
#72=EDGE_CURVE('',#108,#106,#90,.T.);
#73=EDGE_CURVE('',#109,#111,#91,.T.);
#74=EDGE_CURVE('',#110,#111,#92,.T.);
#75=EDGE_CURVE('',#110,#109,#93,.T.);
#76=B_SPLINE_CURVE_WITH_KNOTS('',1,(#158,#159),.UNSPECIFIED.,.F.,.F.,(2,
2),(0.,13193.009967946),.UNSPECIFIED.);
#77=B_SPLINE_CURVE_WITH_KNOTS('',1,(#160,#161),.UNSPECIFIED.,.F.,.F.,(2,
2),(0.000218108235970789,13193.0100000196),.UNSPECIFIED.);
#78=B_SPLINE_CURVE_WITH_KNOTS('',1,(#162,#163),.UNSPECIFIED.,.F.,.F.,(2,
2),(1.01542357575766,7.17162357612015),.UNSPECIFIED.);
#79=B_SPLINE_CURVE_WITH_KNOTS('',1,(#164,#165),.UNSPECIFIED.,.F.,.F.,(2,
2),(1.06136794443896,7.21756794480145),.UNSPECIFIED.);
#80=B_SPLINE_CURVE_WITH_KNOTS('',1,(#171,#172),.UNSPECIFIED.,.F.,.F.,(2,
2),(0.,13193.0100000196),.UNSPECIFIED.);
#81=B_SPLINE_CURVE_WITH_KNOTS('',1,(#173,#174),.UNSPECIFIED.,.F.,.F.,(2,
2),(0.000218108235970789,13193.0100000196),.UNSPECIFIED.);
#82=B_SPLINE_CURVE_WITH_KNOTS('',1,(#175,#176),.UNSPECIFIED.,.F.,.F.,(2,
2),(-4401.94986310086,0.),.UNSPECIFIED.);
#83=B_SPLINE_CURVE_WITH_KNOTS('',1,(#177,#178),.UNSPECIFIED.,.F.,.F.,(2,
2),(-4401.94986310092,0.),.UNSPECIFIED.);
#84=B_SPLINE_CURVE_WITH_KNOTS('',1,(#184,#185),.UNSPECIFIED.,.F.,.F.,(2,
2),(0.,13193.0100000196),.UNSPECIFIED.);
#85=B_SPLINE_CURVE_WITH_KNOTS('',1,(#186,#187),.UNSPECIFIED.,.F.,.F.,(2,
2),(0.,13193.009967946),.UNSPECIFIED.);
#86=B_SPLINE_CURVE_WITH_KNOTS('',1,(#188,#189),.UNSPECIFIED.,.F.,.F.,(2,
2),(-4353.11343311863,0.),.UNSPECIFIED.);
#87=B_SPLINE_CURVE_WITH_KNOTS('',1,(#190,#191),.UNSPECIFIED.,.F.,.F.,(2,
2),(-4353.11343311865,0.),.UNSPECIFIED.);
#88=B_SPLINE_CURVE_WITH_KNOTS('',1,(#196,#197),.UNSPECIFIED.,.F.,.F.,(2,
2),(0.,4.35311343311866),.UNSPECIFIED.);
#89=B_SPLINE_CURVE_WITH_KNOTS('',1,(#198,#199),.UNSPECIFIED.,.F.,.F.,(2,
2),(1.06136794443901,7.21756794480143),.UNSPECIFIED.);
#90=B_SPLINE_CURVE_WITH_KNOTS('',1,(#200,#201),.UNSPECIFIED.,.F.,.F.,(2,
2),(1.43603111945755,5.7890992194147),.UNSPECIFIED.);
#91=B_SPLINE_CURVE_WITH_KNOTS('',1,(#206,#207),.UNSPECIFIED.,.F.,.F.,(2,
2),(0.,4.35311343311864),.UNSPECIFIED.);
#92=B_SPLINE_CURVE_WITH_KNOTS('',1,(#208,#209),.UNSPECIFIED.,.F.,.F.,(2,
2),(1.01542357575768,7.17162357612008),.UNSPECIFIED.);
#93=B_SPLINE_CURVE_WITH_KNOTS('',1,(#210,#211),.UNSPECIFIED.,.F.,.F.,(2,
2),(1.43603111945761,5.78909921941472),.UNSPECIFIED.);
#94=VERTEX_POINT('',#154);
#95=VERTEX_POINT('',#155);
#96=VERTEX_POINT('',#156);
#97=VERTEX_POINT('',#157);
#98=VERTEX_POINT('',#167);
#99=VERTEX_POINT('',#168);
#100=VERTEX_POINT('',#169);
#101=VERTEX_POINT('',#170);
#102=VERTEX_POINT('',#180);
#103=VERTEX_POINT('',#181);
#104=VERTEX_POINT('',#182);
#105=VERTEX_POINT('',#183);
#106=VERTEX_POINT('',#193);
#107=VERTEX_POINT('',#194);
#108=VERTEX_POINT('',#195);
#109=VERTEX_POINT('',#203);
#110=VERTEX_POINT('',#204);
#111=VERTEX_POINT('',#205);
#112=PLANE('',#137);
#113=PLANE('',#138);
#114=PLANE('',#139);
#115=PLANE('',#140);
#116=PLANE('',#141);
#117=SHAPE_DEFINITION_REPRESENTATION(#118,#135);
#118=PRODUCT_DEFINITION_SHAPE($,$,#120);
#119=PRODUCT_DEFINITION_CONTEXT('3D Mechanical Parts',#124,'design');
#120=PRODUCT_DEFINITION('A','First version',#121,#119);
#121=PRODUCT_DEFINITION_FORMATION_WITH_SPECIFIED_SOURCE('A',
'First version',#126,.MADE.);
#122=PRODUCT_RELATED_PRODUCT_CATEGORY('tool','tool',(#126));
#123=APPLICATION_PROTOCOL_DEFINITION('Draft International Standard',
'automotive_design',1999,#124);
#124=APPLICATION_CONTEXT(
'data for automotive mechanical design processes');
#125=PRODUCT_CONTEXT('3D Mechanical Parts',#124,'mechanical');
#126=PRODUCT('Document','Document','',(#125));
#127=(
LENGTH_UNIT()
NAMED_UNIT(*)
SI_UNIT($,.METRE.)
);
#128=(
NAMED_UNIT(*)
PLANE_ANGLE_UNIT()
SI_UNIT($,.RADIAN.)
);
#129=DIMENSIONAL_EXPONENTS(0.,0.,0.,0.,0.,0.,0.);
#130=PLANE_ANGLE_MEASURE_WITH_UNIT(PLANE_ANGLE_MEASURE(0.01745329252),#128);
#131=(
CONVERSION_BASED_UNIT('DEGREES',#130)
NAMED_UNIT(#129)
PLANE_ANGLE_UNIT()
);
#132=(
NAMED_UNIT(*)
SI_UNIT($,.STERADIAN.)
SOLID_ANGLE_UNIT()
);
#133=UNCERTAINTY_MEASURE_WITH_UNIT(LENGTH_MEASURE(0.01),#127,
'DISTANCE_ACCURACY_VALUE',
'Maximum model space distance between geometric entities at asserted c
onnectivities');
#134=(
GEOMETRIC_REPRESENTATION_CONTEXT(3)
GLOBAL_UNCERTAINTY_ASSIGNED_CONTEXT((#133))
GLOBAL_UNIT_ASSIGNED_CONTEXT((#132,#131,#127))
REPRESENTATION_CONTEXT('ID1','3D')
);
#135=SHAPE_REPRESENTATION('Document',(#136,#142),#134);
#136=AXIS2_PLACEMENT_3D($,#152,#143,#144);
#137=AXIS2_PLACEMENT_3D('',#153,#145,$);
#138=AXIS2_PLACEMENT_3D('',#166,#146,$);
#139=AXIS2_PLACEMENT_3D('',#179,#147,$);
#140=AXIS2_PLACEMENT_3D('',#192,#148,$);
#141=AXIS2_PLACEMENT_3D('',#202,#149,$);
#142=AXIS2_PLACEMENT_3D($,#212,#150,#151);
#143=DIRECTION('',(0.,0.,1.));
#144=DIRECTION('',(1.,0.,0.));
#145=DIRECTION('',(0.,0.,-1.));
#146=DIRECTION('',(-0.577173565319649,-0.408504446126025,0.707103099265924));
#147=DIRECTION('',(0.577167554655598,0.408500191975913,0.707110463087996));
#148=DIRECTION('',(-0.577709519870561,0.816242433748042,3.09519510825718E-16));
#149=DIRECTION('',(0.577709519870571,-0.816242433748035,7.59864788501143E-16));
#150=DIRECTION('',(0.,0.,1.));
#151=DIRECTION('',(1.,0.,0.));
#152=CARTESIAN_POINT('',(0.,0.,0.));
#153=CARTESIAN_POINT('',(3.37827197906135,11.7686953653982,6.06800000000006));
#154=CARTESIAN_POINT('',(9.23205476780323,15.9118089252965,6.06800000000006));
#155=CARTESIAN_POINT('',(16.8537822776206,5.14311428205879,6.06800000000006));
#156=CARTESIAN_POINT('',(11.828830821633,1.58661863192346,6.06800000000006));
#157=CARTESIAN_POINT('',(4.20710309686766,12.35531357886,6.06800000000006));
#158=CARTESIAN_POINT('',(9.23205476780323,15.9118089252965,6.06800000000006));
#159=CARTESIAN_POINT('',(16.8537822776206,5.14311428205879,6.06800000000006));
#160=CARTESIAN_POINT('',(11.828830821633,1.58661863192346,6.06800000000006));
#161=CARTESIAN_POINT('',(4.20710309686766,12.35531357886,6.06800000000006));
#162=CARTESIAN_POINT('',(11.828830821633,1.58661863192346,6.06800000000006));
#163=CARTESIAN_POINT('',(16.8537822776206,5.14311428205879,6.06800000000006));
#164=CARTESIAN_POINT('',(9.23205476780323,15.9118089252965,6.06800000000006));
#165=CARTESIAN_POINT('',(4.20710309686766,12.35531357886,6.06800000000006));
#166=CARTESIAN_POINT('',(10.9999999999999,1.00000000000004,5.05256737011163));
#167=CARTESIAN_POINT('',(14.3412802401281,3.36484814249854,9.14610000001436));
#168=CARTESIAN_POINT('',(6.71955276736927,14.1335427333767,9.14610000001439));
#169=CARTESIAN_POINT('',(11.8288305696266,1.58661898798186,6.06800000000009));
#170=CARTESIAN_POINT('',(4.20710309686764,12.35531357886,6.06800000000006));
#171=CARTESIAN_POINT('',(14.3412802401281,3.36484814249854,9.14610000001436));
#172=CARTESIAN_POINT('',(6.71955276736927,14.1335427333767,9.14610000001439));
#173=CARTESIAN_POINT('',(11.8288305696266,1.58661898798186,6.06800000000009));
#174=CARTESIAN_POINT('',(4.20710309686764,12.35531357886,6.06800000000006));
#175=CARTESIAN_POINT('',(11.8288305696266,1.58661898798186,6.06800000000009));
#176=CARTESIAN_POINT('',(14.3412802401281,3.36484814249854,9.14610000001436));
#177=CARTESIAN_POINT('',(4.20710309686764,12.35531357886,6.06800000000006));
#178=CARTESIAN_POINT('',(6.71955276736927,14.1335427333767,9.14610000001439));
#179=CARTESIAN_POINT('',(10.0983883218743,16.5249712908845,5.00664310860733));
#180=CARTESIAN_POINT('',(6.71955276736927,14.1335427333767,9.14610000001439));
#181=CARTESIAN_POINT('',(14.3412802401282,3.36484814249854,9.1461000000144));
#182=CARTESIAN_POINT('',(9.2320547678032,15.9118089252966,6.06800000000006));
#183=CARTESIAN_POINT('',(16.8537822405622,5.14311433441841,6.06800000000005));
#184=CARTESIAN_POINT('',(6.71955276736927,14.1335427333767,9.14610000001439));
#185=CARTESIAN_POINT('',(14.3412802401282,3.36484814249854,9.1461000000144));
#186=CARTESIAN_POINT('',(9.2320547678032,15.9118089252966,6.06800000000006));
#187=CARTESIAN_POINT('',(16.8537822405622,5.14311433441841,6.06800000000005));
#188=CARTESIAN_POINT('',(9.2320547678032,15.9118089252966,6.06800000000006));
#189=CARTESIAN_POINT('',(6.71955276736927,14.1335427333767,9.14610000001439));
#190=CARTESIAN_POINT('',(16.8537822405622,5.14311433441841,6.06800000000005));
#191=CARTESIAN_POINT('',(14.3412802401282,3.36484814249854,9.1461000000144));
#192=CARTESIAN_POINT('',(3.31107136929472,11.7211318238781,9.24248100001452));
#193=CARTESIAN_POINT('',(6.71955276736927,14.1335427333766,9.14610000001437));
#194=CARTESIAN_POINT('',(9.2320547678032,15.9118089252965,6.06800000000006));
#195=CARTESIAN_POINT('',(4.20710309686769,12.35531357886,6.06800000000006));
#196=CARTESIAN_POINT('',(6.71955276736927,14.1335427333766,9.14610000001437));
#197=CARTESIAN_POINT('',(9.2320547678032,15.9118089252965,6.06800000000006));
#198=CARTESIAN_POINT('',(9.2320547678032,15.9118089252965,6.06800000000006));
#199=CARTESIAN_POINT('',(4.20710309686769,12.35531357886,6.06800000000006));
#200=CARTESIAN_POINT('',(4.20710309686769,12.35531357886,6.06800000000006));
#201=CARTESIAN_POINT('',(6.71955276736927,14.1335427333766,9.14610000001437));
#202=CARTESIAN_POINT('',(17.7873169525795,5.80383946700639,-0.588381000000068));
#203=CARTESIAN_POINT('',(14.3412802401281,3.36484814249854,9.14610000001436));
#204=CARTESIAN_POINT('',(11.8288305696266,1.58661898798186,6.06800000000009));
#205=CARTESIAN_POINT('',(16.8537822405621,5.14311433441842,6.06800000000006));
#206=CARTESIAN_POINT('',(14.3412802401281,3.36484814249854,9.14610000001436));
#207=CARTESIAN_POINT('',(16.8537822405621,5.14311433441842,6.06800000000006));
#208=CARTESIAN_POINT('',(11.8288305696266,1.58661898798186,6.06800000000009));
#209=CARTESIAN_POINT('',(16.8537822405621,5.14311433441842,6.06800000000006));
#210=CARTESIAN_POINT('',(11.8288305696266,1.58661898798186,6.06800000000009));
#211=CARTESIAN_POINT('',(14.3412802401281,3.36484814249854,9.14610000001436));
#212=CARTESIAN_POINT('',(0.,0.,0.));
ENDSEC;
END-ISO-10303-21;
