ISO-10303-21;
HEADER;
/* Generated by software containing ST-Developer
 * from STEP Tools, Inc. (www.steptools.com) 
 */
/* OPTION: using custom schema-name function */

FILE_DESCRIPTION(
/* description */ (''),
/* implementation_level */ '2;1');

FILE_NAME(
/* name */ 'NL-single-family-house_LOD2_STEP',
/* time_stamp */ '2026-04-18T22:45:48+02:00',
/* author */ (''),
/* organization */ (''),
/* preprocessor_version */ 'ST-DEVELOPER v19.2',
/* originating_system */ 'Rhino 8.29',
/* authorisation */ '');

FILE_SCHEMA (('AUTOMOTIVE_DESIGN'));
ENDSEC;

DATA;
#10=SHAPE_REPRESENTATION_RELATIONSHIP('','',#275,#80);
#11=COLOUR_RGB('',1.,0.964705882352941,0.56078431372549);
#12=COLOUR_RGB('',1.,0.749019607843137,0.749019607843137);
#13=COLOUR_RGB('',1.,0.749019607843137,0.749019607843137);
#14=COLOUR_RGB('',1.,0.749019607843137,0.749019607843137);
#15=COLOUR_RGB('',1.,0.749019607843137,0.749019607843137);
#16=COLOUR_RGB('',0.498039215686275,1.,0.);
#17=COLOUR_RGB('',0.498039215686275,1.,0.);
#18=FILL_AREA_STYLE_COLOUR('',#11);
#19=FILL_AREA_STYLE_COLOUR('',#12);
#20=FILL_AREA_STYLE_COLOUR('',#13);
#21=FILL_AREA_STYLE_COLOUR('',#14);
#22=FILL_AREA_STYLE_COLOUR('',#15);
#23=FILL_AREA_STYLE_COLOUR('',#16);
#24=FILL_AREA_STYLE_COLOUR('',#17);
#25=FILL_AREA_STYLE('',(#18));
#26=FILL_AREA_STYLE('',(#19));
#27=FILL_AREA_STYLE('',(#20));
#28=FILL_AREA_STYLE('',(#21));
#29=FILL_AREA_STYLE('',(#22));
#30=FILL_AREA_STYLE('',(#23));
#31=FILL_AREA_STYLE('',(#24));
#32=SURFACE_STYLE_FILL_AREA(#25);
#33=SURFACE_STYLE_FILL_AREA(#26);
#34=SURFACE_STYLE_FILL_AREA(#27);
#35=SURFACE_STYLE_FILL_AREA(#28);
#36=SURFACE_STYLE_FILL_AREA(#29);
#37=SURFACE_STYLE_FILL_AREA(#30);
#38=SURFACE_STYLE_FILL_AREA(#31);
#39=SURFACE_SIDE_STYLE('GroundSurface_01',(#32));
#40=SURFACE_SIDE_STYLE('WallSurface_04',(#33));
#41=SURFACE_SIDE_STYLE('WallSurface_01',(#34));
#42=SURFACE_SIDE_STYLE('WallSurface_02',(#35));
#43=SURFACE_SIDE_STYLE('WallSurface_03',(#36));
#44=SURFACE_SIDE_STYLE('RoofSurface_01',(#37));
#45=SURFACE_SIDE_STYLE('RoofSurface_02',(#38));
#46=SURFACE_STYLE_USAGE(.BOTH.,#39);
#47=SURFACE_STYLE_USAGE(.BOTH.,#40);
#48=SURFACE_STYLE_USAGE(.BOTH.,#41);
#49=SURFACE_STYLE_USAGE(.BOTH.,#42);
#50=SURFACE_STYLE_USAGE(.BOTH.,#43);
#51=SURFACE_STYLE_USAGE(.BOTH.,#44);
#52=SURFACE_STYLE_USAGE(.BOTH.,#45);
#53=MECHANICAL_DESIGN_GEOMETRIC_PRESENTATION_REPRESENTATION('',(#61,#62,
#63,#64,#65,#66,#67),#274);
#54=PRESENTATION_STYLE_ASSIGNMENT((#46));
#55=PRESENTATION_STYLE_ASSIGNMENT((#47));
#56=PRESENTATION_STYLE_ASSIGNMENT((#48));
#57=PRESENTATION_STYLE_ASSIGNMENT((#49));
#58=PRESENTATION_STYLE_ASSIGNMENT((#50));
#59=PRESENTATION_STYLE_ASSIGNMENT((#51));
#60=PRESENTATION_STYLE_ASSIGNMENT((#52));
#61=STYLED_ITEM('',(#54),#73);
#62=STYLED_ITEM('',(#55),#74);
#63=STYLED_ITEM('',(#56),#75);
#64=STYLED_ITEM('',(#57),#76);
#65=STYLED_ITEM('',(#58),#77);
#66=STYLED_ITEM('',(#59),#78);
#67=STYLED_ITEM('',(#60),#79);
#68=PRESENTATION_LAYER_ASSIGNMENT('bldg_lod2_PVPanelSurface','',(#72));
#69=PRESENTATION_LAYER_ASSIGNMENT('bldg_lod2_GroundSurface','',(#73));
#70=PRESENTATION_LAYER_ASSIGNMENT('bldg_lod2_WallSurface','',(#74,#75,#76,
#77));
#71=PRESENTATION_LAYER_ASSIGNMENT('bldg_lod2_RoofSurface','',(#78,#79));
#72=SHELL_BASED_SURFACE_MODEL('shell_1',(#81));
#73=SHELL_BASED_SURFACE_MODEL('GroundSurface_01',(#82));
#74=SHELL_BASED_SURFACE_MODEL('WallSurface_04',(#83));
#75=SHELL_BASED_SURFACE_MODEL('WallSurface_01',(#84));
#76=SHELL_BASED_SURFACE_MODEL('WallSurface_02',(#85));
#77=SHELL_BASED_SURFACE_MODEL('WallSurface_03',(#86));
#78=SHELL_BASED_SURFACE_MODEL('RoofSurface_01',(#87));
#79=SHELL_BASED_SURFACE_MODEL('RoofSurface_02',(#88));
#80=MANIFOLD_SURFACE_SHAPE_REPRESENTATION('shell_rep_0',(#72,#73,#74,#75,
#76,#77,#78,#79,#285),#274);
#81=OPEN_SHELL('',(#89));
#82=OPEN_SHELL('',(#90));
#83=OPEN_SHELL('',(#91));
#84=OPEN_SHELL('',(#92));
#85=OPEN_SHELL('',(#93));
#86=OPEN_SHELL('',(#94));
#87=OPEN_SHELL('',(#95));
#88=OPEN_SHELL('',(#96));
#89=ADVANCED_FACE('',(#97),#249,.T.);
#90=ADVANCED_FACE('',(#98),#250,.T.);
#91=ADVANCED_FACE('',(#99),#251,.T.);
#92=ADVANCED_FACE('',(#100),#252,.T.);
#93=ADVANCED_FACE('',(#101),#253,.T.);
#94=ADVANCED_FACE('',(#102),#254,.T.);
#95=ADVANCED_FACE('',(#103),#255,.T.);
#96=ADVANCED_FACE('',(#104),#256,.T.);
#97=FACE_OUTER_BOUND('',#105,.T.);
#98=FACE_OUTER_BOUND('',#106,.T.);
#99=FACE_OUTER_BOUND('',#107,.T.);
#100=FACE_OUTER_BOUND('',#108,.T.);
#101=FACE_OUTER_BOUND('',#109,.T.);
#102=FACE_OUTER_BOUND('',#110,.T.);
#103=FACE_OUTER_BOUND('',#111,.T.);
#104=FACE_OUTER_BOUND('',#112,.T.);
#105=EDGE_LOOP('',(#113,#114,#115,#116));
#106=EDGE_LOOP('',(#117,#118,#119,#120));
#107=EDGE_LOOP('',(#121,#122,#123,#124));
#108=EDGE_LOOP('',(#125,#126,#127,#128,#129));
#109=EDGE_LOOP('',(#130,#131,#132,#133));
#110=EDGE_LOOP('',(#134,#135,#136,#137,#138));
#111=EDGE_LOOP('',(#139,#140,#141,#142));
#112=EDGE_LOOP('',(#143,#144,#145,#146));
#113=ORIENTED_EDGE('',*,*,#147,.T.);
#114=ORIENTED_EDGE('',*,*,#148,.T.);
#115=ORIENTED_EDGE('',*,*,#149,.T.);
#116=ORIENTED_EDGE('',*,*,#150,.T.);
#117=ORIENTED_EDGE('',*,*,#154,.F.);
#118=ORIENTED_EDGE('',*,*,#153,.F.);
#119=ORIENTED_EDGE('',*,*,#152,.F.);
#120=ORIENTED_EDGE('',*,*,#151,.F.);
#121=ORIENTED_EDGE('',*,*,#155,.T.);
#122=ORIENTED_EDGE('',*,*,#158,.T.);
#123=ORIENTED_EDGE('',*,*,#156,.T.);
#124=ORIENTED_EDGE('',*,*,#157,.T.);
#125=ORIENTED_EDGE('',*,*,#162,.T.);
#126=ORIENTED_EDGE('',*,*,#161,.T.);
#127=ORIENTED_EDGE('',*,*,#163,.F.);
#128=ORIENTED_EDGE('',*,*,#159,.T.);
#129=ORIENTED_EDGE('',*,*,#160,.F.);
#130=ORIENTED_EDGE('',*,*,#164,.T.);
#131=ORIENTED_EDGE('',*,*,#166,.T.);
#132=ORIENTED_EDGE('',*,*,#165,.T.);
#133=ORIENTED_EDGE('',*,*,#167,.F.);
#134=ORIENTED_EDGE('',*,*,#171,.F.);
#135=ORIENTED_EDGE('',*,*,#170,.T.);
#136=ORIENTED_EDGE('',*,*,#172,.F.);
#137=ORIENTED_EDGE('',*,*,#169,.T.);
#138=ORIENTED_EDGE('',*,*,#168,.F.);
#139=ORIENTED_EDGE('',*,*,#175,.T.);
#140=ORIENTED_EDGE('',*,*,#173,.F.);
#141=ORIENTED_EDGE('',*,*,#176,.F.);
#142=ORIENTED_EDGE('',*,*,#174,.F.);
#143=ORIENTED_EDGE('',*,*,#179,.T.);
#144=ORIENTED_EDGE('',*,*,#177,.T.);
#145=ORIENTED_EDGE('',*,*,#180,.F.);
#146=ORIENTED_EDGE('',*,*,#178,.F.);
#147=EDGE_CURVE('',#215,#216,#181,.T.);
#148=EDGE_CURVE('',#216,#217,#182,.T.);
#149=EDGE_CURVE('',#217,#218,#183,.T.);
#150=EDGE_CURVE('',#218,#215,#184,.T.);
#151=EDGE_CURVE('',#219,#220,#185,.T.);
#152=EDGE_CURVE('',#220,#221,#186,.T.);
#153=EDGE_CURVE('',#221,#222,#187,.T.);
#154=EDGE_CURVE('',#222,#219,#188,.T.);
#155=EDGE_CURVE('',#223,#224,#189,.T.);
#156=EDGE_CURVE('',#226,#225,#190,.T.);
#157=EDGE_CURVE('',#225,#223,#191,.T.);
#158=EDGE_CURVE('',#224,#226,#192,.T.);
#159=EDGE_CURVE('',#228,#227,#193,.T.);
#160=EDGE_CURVE('',#229,#227,#194,.T.);
#161=EDGE_CURVE('',#230,#231,#195,.T.);
#162=EDGE_CURVE('',#229,#230,#196,.T.);
#163=EDGE_CURVE('',#228,#231,#197,.T.);
#164=EDGE_CURVE('',#232,#233,#198,.T.);
#165=EDGE_CURVE('',#234,#235,#199,.T.);
#166=EDGE_CURVE('',#233,#234,#200,.T.);
#167=EDGE_CURVE('',#232,#235,#201,.T.);
#168=EDGE_CURVE('',#237,#236,#202,.T.);
#169=EDGE_CURVE('',#238,#236,#203,.T.);
#170=EDGE_CURVE('',#239,#240,#204,.T.);
#171=EDGE_CURVE('',#239,#237,#205,.T.);
#172=EDGE_CURVE('',#238,#240,#206,.T.);
#173=EDGE_CURVE('',#241,#242,#207,.T.);
#174=EDGE_CURVE('',#243,#244,#208,.T.);
#175=EDGE_CURVE('',#243,#242,#209,.T.);
#176=EDGE_CURVE('',#244,#241,#210,.T.);
#177=EDGE_CURVE('',#245,#246,#211,.T.);
#178=EDGE_CURVE('',#247,#248,#212,.T.);
#179=EDGE_CURVE('',#247,#245,#213,.T.);
#180=EDGE_CURVE('',#248,#246,#214,.T.);
#181=B_SPLINE_CURVE_WITH_KNOTS('',1,(#304,#305),.UNSPECIFIED.,.F.,.F.,(2,
2),(0.,6.),.UNSPECIFIED.);
#182=B_SPLINE_CURVE_WITH_KNOTS('',1,(#306,#307),.UNSPECIFIED.,.F.,.F.,(2,
2),(0.,9.90000000000737),.UNSPECIFIED.);
#183=B_SPLINE_CURVE_WITH_KNOTS('',1,(#308,#309),.UNSPECIFIED.,.F.,.F.,(2,
2),(0.,6.),.UNSPECIFIED.);
#184=B_SPLINE_CURVE_WITH_KNOTS('',1,(#310,#311),.UNSPECIFIED.,.F.,.F.,(2,
2),(0.,9.90000000000737),.UNSPECIFIED.);
#185=B_SPLINE_CURVE_WITH_KNOTS('',1,(#317,#318),.UNSPECIFIED.,.F.,.F.,(2,
2),(0.,8.2329915205591),.UNSPECIFIED.);
#186=B_SPLINE_CURVE_WITH_KNOTS('',1,(#319,#320),.UNSPECIFIED.,.F.,.F.,(2,
2),(0.,13.1930100000196),.UNSPECIFIED.);
#187=B_SPLINE_CURVE_WITH_KNOTS('',1,(#321,#322),.UNSPECIFIED.,.F.,.F.,(2,
2),(0.,8.23299000001221),.UNSPECIFIED.);
#188=B_SPLINE_CURVE_WITH_KNOTS('',1,(#323,#324),.UNSPECIFIED.,.F.,.F.,(2,
2),(0.,13.1930104976064),.UNSPECIFIED.);
#189=B_SPLINE_CURVE_WITH_KNOTS('',1,(#330,#331),.UNSPECIFIED.,.F.,.F.,(2,
2),(0.,13193.0100000196),.UNSPECIFIED.);
#190=B_SPLINE_CURVE_WITH_KNOTS('',1,(#332,#333),.UNSPECIFIED.,.F.,.F.,(2,
2),(0.,13.1930104976064),.UNSPECIFIED.);
#191=B_SPLINE_CURVE_WITH_KNOTS('',1,(#334,#335),.UNSPECIFIED.,.F.,.F.,(2,
2),(0.,5.54456737011157),.UNSPECIFIED.);
#192=B_SPLINE_CURVE_WITH_KNOTS('',1,(#336,#337),.UNSPECIFIED.,.F.,.F.,(2,
2),(-5.54456737011159,0.),.UNSPECIFIED.);
#193=B_SPLINE_CURVE_WITH_KNOTS('',1,(#344,#345),.UNSPECIFIED.,.F.,.F.,(2,
2),(-5854.10655914872,0.),.UNSPECIFIED.);
#194=B_SPLINE_CURVE_WITH_KNOTS('',1,(#346,#347),.UNSPECIFIED.,.F.,.F.,(2,
2),(-5854.10655914872,0.),.UNSPECIFIED.);
#195=B_SPLINE_CURVE_WITH_KNOTS('',1,(#348,#349),.UNSPECIFIED.,.F.,.F.,(2,
2),(0.,8.23299000001221),.UNSPECIFIED.);
#196=B_SPLINE_CURVE_WITH_KNOTS('',1,(#350,#351),.UNSPECIFIED.,.F.,.F.,(2,
2),(-5.49864310860727,0.),.UNSPECIFIED.);
#197=B_SPLINE_CURVE_WITH_KNOTS('',1,(#352,#353),.UNSPECIFIED.,.F.,.F.,(2,
2),(-5.54456737011159,0.),.UNSPECIFIED.);
#198=B_SPLINE_CURVE_WITH_KNOTS('',1,(#359,#360),.UNSPECIFIED.,.F.,.F.,(2,
2),(0.,13193.0100000196),.UNSPECIFIED.);
#199=B_SPLINE_CURVE_WITH_KNOTS('',1,(#361,#362),.UNSPECIFIED.,.F.,.F.,(2,
2),(0.,13.1930100000196),.UNSPECIFIED.);
#200=B_SPLINE_CURVE_WITH_KNOTS('',1,(#363,#364),.UNSPECIFIED.,.F.,.F.,(2,
2),(-5.49864310860729,0.),.UNSPECIFIED.);
#201=B_SPLINE_CURVE_WITH_KNOTS('',1,(#365,#366),.UNSPECIFIED.,.F.,.F.,(2,
2),(-5.49864310860727,0.),.UNSPECIFIED.);
#202=B_SPLINE_CURVE_WITH_KNOTS('',1,(#373,#374),.UNSPECIFIED.,.F.,.F.,(2,
2),(-5854.10655914872,0.),.UNSPECIFIED.);
#203=B_SPLINE_CURVE_WITH_KNOTS('',1,(#375,#376),.UNSPECIFIED.,.F.,.F.,(2,
2),(-5854.10655914872,0.),.UNSPECIFIED.);
#204=B_SPLINE_CURVE_WITH_KNOTS('',1,(#377,#378),.UNSPECIFIED.,.F.,.F.,(2,
2),(0.,8.2329915205591),.UNSPECIFIED.);
#205=B_SPLINE_CURVE_WITH_KNOTS('',1,(#379,#380),.UNSPECIFIED.,.F.,.F.,(2,
2),(0.,5.54456737011157),.UNSPECIFIED.);
#206=B_SPLINE_CURVE_WITH_KNOTS('',1,(#381,#382),.UNSPECIFIED.,.F.,.F.,(2,
2),(-5.49864310860729,0.),.UNSPECIFIED.);
#207=B_SPLINE_CURVE_WITH_KNOTS('',1,(#388,#389),.UNSPECIFIED.,.F.,.F.,(2,
2),(0.,13193.0100000196),.UNSPECIFIED.);
#208=B_SPLINE_CURVE_WITH_KNOTS('',1,(#390,#391),.UNSPECIFIED.,.F.,.F.,(2,
2),(0.,13193.0100000196),.UNSPECIFIED.);
#209=B_SPLINE_CURVE_WITH_KNOTS('',1,(#392,#393),.UNSPECIFIED.,.F.,.F.,(2,
2),(-5854.10655914872,0.),.UNSPECIFIED.);
#210=B_SPLINE_CURVE_WITH_KNOTS('',1,(#394,#395),.UNSPECIFIED.,.F.,.F.,(2,
2),(-5854.10655914872,0.),.UNSPECIFIED.);
#211=B_SPLINE_CURVE_WITH_KNOTS('',1,(#401,#402),.UNSPECIFIED.,.F.,.F.,(2,
2),(0.,13193.0100000196),.UNSPECIFIED.);
#212=B_SPLINE_CURVE_WITH_KNOTS('',1,(#403,#404),.UNSPECIFIED.,.F.,.F.,(2,
2),(0.,13193.0100000196),.UNSPECIFIED.);
#213=B_SPLINE_CURVE_WITH_KNOTS('',1,(#405,#406),.UNSPECIFIED.,.F.,.F.,(2,
2),(-5854.10655914872,0.),.UNSPECIFIED.);
#214=B_SPLINE_CURVE_WITH_KNOTS('',1,(#407,#408),.UNSPECIFIED.,.F.,.F.,(2,
2),(-5854.10655914872,0.),.UNSPECIFIED.);
#215=VERTEX_POINT('',#300);
#216=VERTEX_POINT('',#301);
#217=VERTEX_POINT('',#302);
#218=VERTEX_POINT('',#303);
#219=VERTEX_POINT('',#313);
#220=VERTEX_POINT('',#314);
#221=VERTEX_POINT('',#315);
#222=VERTEX_POINT('',#316);
#223=VERTEX_POINT('',#326);
#224=VERTEX_POINT('',#327);
#225=VERTEX_POINT('',#328);
#226=VERTEX_POINT('',#329);
#227=VERTEX_POINT('',#339);
#228=VERTEX_POINT('',#340);
#229=VERTEX_POINT('',#341);
#230=VERTEX_POINT('',#342);
#231=VERTEX_POINT('',#343);
#232=VERTEX_POINT('',#355);
#233=VERTEX_POINT('',#356);
#234=VERTEX_POINT('',#357);
#235=VERTEX_POINT('',#358);
#236=VERTEX_POINT('',#368);
#237=VERTEX_POINT('',#369);
#238=VERTEX_POINT('',#370);
#239=VERTEX_POINT('',#371);
#240=VERTEX_POINT('',#372);
#241=VERTEX_POINT('',#384);
#242=VERTEX_POINT('',#385);
#243=VERTEX_POINT('',#386);
#244=VERTEX_POINT('',#387);
#245=VERTEX_POINT('',#397);
#246=VERTEX_POINT('',#398);
#247=VERTEX_POINT('',#399);
#248=VERTEX_POINT('',#400);
#249=PLANE('',#277);
#250=PLANE('',#278);
#251=PLANE('',#279);
#252=PLANE('',#280);
#253=PLANE('',#281);
#254=PLANE('',#282);
#255=PLANE('',#283);
#256=PLANE('',#284);
#257=SHAPE_DEFINITION_REPRESENTATION(#258,#275);
#258=PRODUCT_DEFINITION_SHAPE($,$,#260);
#259=PRODUCT_DEFINITION_CONTEXT('3D Mechanical Parts',#264,'design');
#260=PRODUCT_DEFINITION('A','First version',#261,#259);
#261=PRODUCT_DEFINITION_FORMATION_WITH_SPECIFIED_SOURCE('A',
'First version',#266,.MADE.);
#262=PRODUCT_RELATED_PRODUCT_CATEGORY('tool','tool',(#266));
#263=APPLICATION_PROTOCOL_DEFINITION('Draft International Standard',
'automotive_design',1999,#264);
#264=APPLICATION_CONTEXT(
'data for automotive mechanical design processes');
#265=PRODUCT_CONTEXT('3D Mechanical Parts',#264,'mechanical');
#266=PRODUCT('Document','Document','',(#265));
#267=(
LENGTH_UNIT()
NAMED_UNIT(*)
SI_UNIT($,.METRE.)
);
#268=(
NAMED_UNIT(*)
PLANE_ANGLE_UNIT()
SI_UNIT($,.RADIAN.)
);
#269=DIMENSIONAL_EXPONENTS(0.,0.,0.,0.,0.,0.,0.);
#270=PLANE_ANGLE_MEASURE_WITH_UNIT(PLANE_ANGLE_MEASURE(0.01745329252),#268);
#271=(
CONVERSION_BASED_UNIT('DEGREES',#270)
NAMED_UNIT(#269)
PLANE_ANGLE_UNIT()
);
#272=(
NAMED_UNIT(*)
SI_UNIT($,.STERADIAN.)
SOLID_ANGLE_UNIT()
);
#273=UNCERTAINTY_MEASURE_WITH_UNIT(LENGTH_MEASURE(0.01),#267,
'DISTANCE_ACCURACY_VALUE',
'Maximum model space distance between geometric entities at asserted c
onnectivities');
#274=(
GEOMETRIC_REPRESENTATION_CONTEXT(3)
GLOBAL_UNCERTAINTY_ASSIGNED_CONTEXT((#273))
GLOBAL_UNIT_ASSIGNED_CONTEXT((#272,#271,#267))
REPRESENTATION_CONTEXT('ID1','3D')
);
#275=SHAPE_REPRESENTATION('Document',(#276,#285),#274);
#276=AXIS2_PLACEMENT_3D($,#298,#286,#287);
#277=AXIS2_PLACEMENT_3D('',#299,#288,$);
#278=AXIS2_PLACEMENT_3D('',#312,#289,$);
#279=AXIS2_PLACEMENT_3D('',#325,#290,$);
#280=AXIS2_PLACEMENT_3D('',#338,#291,$);
#281=AXIS2_PLACEMENT_3D('',#354,#292,$);
#282=AXIS2_PLACEMENT_3D('',#367,#293,$);
#283=AXIS2_PLACEMENT_3D('',#383,#294,$);
#284=AXIS2_PLACEMENT_3D('',#396,#295,$);
#285=AXIS2_PLACEMENT_3D($,#409,#296,#297);
#286=DIRECTION('',(0.,0.,1.));
#287=DIRECTION('',(1.,0.,0.));
#288=DIRECTION('',(0.577170559995446,0.408502319056506,-0.707106781186548));
#289=DIRECTION('',(0.,0.,-1.));
#290=DIRECTION('',(-0.816242500331346,-0.577709425795384,0.));
#291=DIRECTION('',(-0.577709519870563,0.81624243374804,-9.06211143623148E-17));
#292=DIRECTION('',(0.816242433748034,0.577709519870572,0.));
#293=DIRECTION('',(0.577709569202741,-0.816242398832347,4.71471883114112E-17));
#294=DIRECTION('',(0.577167554655598,0.408500191975913,0.707110463087996));
#295=DIRECTION('',(-0.577173565319649,-0.408504446126025,0.707103099265924));
#296=DIRECTION('',(0.,0.,1.));
#297=DIRECTION('',(1.,0.,0.));
#298=CARTESIAN_POINT('',(0.,0.,0.));
#299=CARTESIAN_POINT('',(4.5710763082464,13.5247710215579,7.14066494862784));
#300=CARTESIAN_POINT('',(1.10805294827372,11.0737571072188,2.89802426150856));
#301=CARTESIAN_POINT('',(4.5710763082464,13.5247710215579,7.14066494862784));
#302=CARTESIAN_POINT('',(10.2904005549693,5.4439709274463,7.14066494862784));
#303=CARTESIAN_POINT('',(6.82737719499664,2.99295701310727,2.89802426150856));
#304=CARTESIAN_POINT('',(1.10805294827372,11.0737571072188,2.89802426150856));
#305=CARTESIAN_POINT('',(4.5710763082464,13.5247710215579,7.14066494862784));
#306=CARTESIAN_POINT('',(4.5710763082464,13.5247710215579,7.14066494862784));
#307=CARTESIAN_POINT('',(10.2904005549693,5.4439709274463,7.14066494862784));
#308=CARTESIAN_POINT('',(10.2904005549693,5.4439709274463,7.14066494862784));
#309=CARTESIAN_POINT('',(6.82737719499664,2.99295701310727,2.89802426150856));
#310=CARTESIAN_POINT('',(6.82737719499664,2.99295701310727,2.89802426150856));
#311=CARTESIAN_POINT('',(1.10805294827372,11.0737571072188,2.89802426150856));
#312=CARTESIAN_POINT('',(3.37827197906135,11.7686953653982,-0.49199999999994));
#313=CARTESIAN_POINT('',(10.9999990463257,0.999998715414195,-0.49199999999994));
#314=CARTESIAN_POINT('',(17.7201157946332,5.75627670000621,-0.49199999999994));
#315=CARTESIAN_POINT('',(10.0983883218742,16.5249712908844,-0.49199999999994));
#316=CARTESIAN_POINT('',(3.37827252724099,11.7686945908782,-0.49199999999994));
#317=CARTESIAN_POINT('',(10.9999990463257,0.999998715414195,-0.49199999999994));
#318=CARTESIAN_POINT('',(17.7201157946332,5.75627670000621,-0.49199999999994));
#319=CARTESIAN_POINT('',(17.7201157946332,5.75627670000621,-0.49199999999994));
#320=CARTESIAN_POINT('',(10.0983883218742,16.5249712908844,-0.49199999999994));
#321=CARTESIAN_POINT('',(10.0983883218742,16.5249712908844,-0.49199999999994));
#322=CARTESIAN_POINT('',(3.37827252724099,11.7686945908782,-0.49199999999994));
#323=CARTESIAN_POINT('',(3.37827252724099,11.7686945908782,-0.49199999999994));
#324=CARTESIAN_POINT('',(10.9999990463257,0.999998715414195,-0.49199999999994));
#325=CARTESIAN_POINT('',(10.9999990463257,0.999998715414195,-0.49199999999994));
#326=CARTESIAN_POINT('',(10.9999999999999,1.00000000000004,5.05256737011163));
#327=CARTESIAN_POINT('',(3.37827252724097,11.7686945908782,5.05256737011165));
#328=CARTESIAN_POINT('',(10.9999990463257,0.999998715414195,-0.49199999999994));
#329=CARTESIAN_POINT('',(3.37827252724099,11.7686945908782,-0.49199999999994));
#330=CARTESIAN_POINT('',(10.9999999999999,1.00000000000004,5.05256737011163));
#331=CARTESIAN_POINT('',(3.37827252724097,11.7686945908782,5.05256737011165));
#332=CARTESIAN_POINT('',(3.37827252724099,11.7686945908782,-0.49199999999994));
#333=CARTESIAN_POINT('',(10.9999990463257,0.999998715414195,-0.49199999999994));
#334=CARTESIAN_POINT('',(10.9999990463257,0.999998715414195,-0.49199999999994));
#335=CARTESIAN_POINT('',(10.9999999999999,1.00000000000004,5.05256737011163));
#336=CARTESIAN_POINT('',(3.37827252724097,11.7686945908782,5.05256737011165));
#337=CARTESIAN_POINT('',(3.37827252724099,11.7686945908782,-0.49199999999994));
#338=CARTESIAN_POINT('',(3.37827252724099,11.7686945908782,-0.49199999999994));
#339=CARTESIAN_POINT('',(6.71955276736927,14.1335427333767,9.14610000001439));
#340=CARTESIAN_POINT('',(3.37827252724097,11.7686945908782,5.05256737011165));
#341=CARTESIAN_POINT('',(10.0983883218743,16.5249712908845,5.00664310860733));
#342=CARTESIAN_POINT('',(10.0983883218742,16.5249712908844,-0.49199999999994));
#343=CARTESIAN_POINT('',(3.37827252724099,11.7686945908782,-0.49199999999994));
#344=CARTESIAN_POINT('',(3.37827252724097,11.7686945908782,5.05256737011165));
#345=CARTESIAN_POINT('',(6.71955276736927,14.1335427333767,9.14610000001439));
#346=CARTESIAN_POINT('',(10.0983883218743,16.5249712908845,5.00664310860733));
#347=CARTESIAN_POINT('',(6.71955276736927,14.1335427333767,9.14610000001439));
#348=CARTESIAN_POINT('',(10.0983883218742,16.5249712908844,-0.49199999999994));
#349=CARTESIAN_POINT('',(3.37827252724099,11.7686945908782,-0.49199999999994));
#350=CARTESIAN_POINT('',(10.0983883218743,16.5249712908845,5.00664310860733));
#351=CARTESIAN_POINT('',(10.0983883218742,16.5249712908844,-0.49199999999994));
#352=CARTESIAN_POINT('',(3.37827252724097,11.7686945908782,5.05256737011165));
#353=CARTESIAN_POINT('',(3.37827252724099,11.7686945908782,-0.49199999999994));
#354=CARTESIAN_POINT('',(10.0983883218742,16.5249712908844,-0.49199999999994));
#355=CARTESIAN_POINT('',(10.0983883218743,16.5249712908845,5.00664310860733));
#356=CARTESIAN_POINT('',(17.7201157946332,5.75627670000628,5.00664310860735));
#357=CARTESIAN_POINT('',(17.7201157946332,5.75627670000621,-0.49199999999994));
#358=CARTESIAN_POINT('',(10.0983883218742,16.5249712908844,-0.49199999999994));
#359=CARTESIAN_POINT('',(10.0983883218743,16.5249712908845,5.00664310860733));
#360=CARTESIAN_POINT('',(17.7201157946332,5.75627670000628,5.00664310860735));
#361=CARTESIAN_POINT('',(17.7201157946332,5.75627670000621,-0.49199999999994));
#362=CARTESIAN_POINT('',(10.0983883218742,16.5249712908844,-0.49199999999994));
#363=CARTESIAN_POINT('',(17.7201157946332,5.75627670000628,5.00664310860735));
#364=CARTESIAN_POINT('',(17.7201157946332,5.75627670000621,-0.49199999999994));
#365=CARTESIAN_POINT('',(10.0983883218743,16.5249712908845,5.00664310860733));
#366=CARTESIAN_POINT('',(10.0983883218742,16.5249712908844,-0.49199999999994));
#367=CARTESIAN_POINT('',(17.7201157946332,5.75627670000621,-0.49199999999994));
#368=CARTESIAN_POINT('',(14.3412802401282,3.36484814249854,9.14610000001439));
#369=CARTESIAN_POINT('',(10.9999999999999,1.00000000000004,5.05256737011163));
#370=CARTESIAN_POINT('',(17.7201157946332,5.75627670000628,5.00664310860735));
#371=CARTESIAN_POINT('',(10.9999990463257,0.999998715414195,-0.49199999999994));
#372=CARTESIAN_POINT('',(17.7201157946332,5.75627670000621,-0.49199999999994));
#373=CARTESIAN_POINT('',(10.9999999999999,1.00000000000004,5.05256737011163));
#374=CARTESIAN_POINT('',(14.3412802401282,3.36484814249854,9.14610000001439));
#375=CARTESIAN_POINT('',(17.7201157946332,5.75627670000628,5.00664310860735));
#376=CARTESIAN_POINT('',(14.3412802401282,3.36484814249854,9.14610000001439));
#377=CARTESIAN_POINT('',(10.9999990463257,0.999998715414195,-0.49199999999994));
#378=CARTESIAN_POINT('',(17.7201157946332,5.75627670000621,-0.49199999999994));
#379=CARTESIAN_POINT('',(10.9999990463257,0.999998715414195,-0.49199999999994));
#380=CARTESIAN_POINT('',(10.9999999999999,1.00000000000004,5.05256737011163));
#381=CARTESIAN_POINT('',(17.7201157946332,5.75627670000628,5.00664310860735));
#382=CARTESIAN_POINT('',(17.7201157946332,5.75627670000621,-0.49199999999994));
#383=CARTESIAN_POINT('',(10.0983883218743,16.5249712908845,5.00664310860733));
#384=CARTESIAN_POINT('',(14.3412802401282,3.36484814249854,9.14610000001439));
#385=CARTESIAN_POINT('',(6.71955276736927,14.1335427333767,9.14610000001439));
#386=CARTESIAN_POINT('',(10.0983883218743,16.5249712908845,5.00664310860733));
#387=CARTESIAN_POINT('',(17.7201157946332,5.75627670000628,5.00664310860735));
#388=CARTESIAN_POINT('',(14.3412802401282,3.36484814249854,9.14610000001439));
#389=CARTESIAN_POINT('',(6.71955276736927,14.1335427333767,9.14610000001439));
#390=CARTESIAN_POINT('',(10.0983883218743,16.5249712908845,5.00664310860733));
#391=CARTESIAN_POINT('',(17.7201157946332,5.75627670000628,5.00664310860735));
#392=CARTESIAN_POINT('',(10.0983883218743,16.5249712908845,5.00664310860733));
#393=CARTESIAN_POINT('',(6.71955276736927,14.1335427333767,9.14610000001439));
#394=CARTESIAN_POINT('',(17.7201157946332,5.75627670000628,5.00664310860735));
#395=CARTESIAN_POINT('',(14.3412802401282,3.36484814249854,9.14610000001439));
#396=CARTESIAN_POINT('',(10.9999999999999,1.00000000000004,5.05256737011163));
#397=CARTESIAN_POINT('',(14.3412802401282,3.36484814249854,9.14610000001439));
#398=CARTESIAN_POINT('',(6.71955276736927,14.1335427333767,9.14610000001439));
#399=CARTESIAN_POINT('',(10.9999999999999,1.00000000000004,5.05256737011163));
#400=CARTESIAN_POINT('',(3.37827252724097,11.7686945908782,5.05256737011165));
#401=CARTESIAN_POINT('',(14.3412802401282,3.36484814249854,9.14610000001439));
#402=CARTESIAN_POINT('',(6.71955276736927,14.1335427333767,9.14610000001439));
#403=CARTESIAN_POINT('',(10.9999999999999,1.00000000000004,5.05256737011163));
#404=CARTESIAN_POINT('',(3.37827252724097,11.7686945908782,5.05256737011165));
#405=CARTESIAN_POINT('',(10.9999999999999,1.00000000000004,5.05256737011163));
#406=CARTESIAN_POINT('',(14.3412802401282,3.36484814249854,9.14610000001439));
#407=CARTESIAN_POINT('',(3.37827252724097,11.7686945908782,5.05256737011165));
#408=CARTESIAN_POINT('',(6.71955276736927,14.1335427333767,9.14610000001439));
#409=CARTESIAN_POINT('',(0.,0.,0.));
ENDSEC;
END-ISO-10303-21;
