ISO-10303-21;
HEADER;
/* Generated by software containing ST-Developer
 * from STEP Tools, Inc. (www.steptools.com) 
 */
/* OPTION: using custom schema-name function */

FILE_DESCRIPTION(
/* description */ (''),
/* implementation_level */ '2;1');

FILE_NAME(
/* name */ 'NL-single-family-house_ZonePart1_STEP',
/* time_stamp */ '2026-04-10T17:29:04+02:00',
/* author */ (''),
/* organization */ (''),
/* preprocessor_version */ 'ST-DEVELOPER v19.2',
/* originating_system */ 'Rhino 8.29',
/* authorisation */ '');

FILE_SCHEMA (('AUTOMOTIVE_DESIGN'));
ENDSEC;

DATA;
#10=SHAPE_REPRESENTATION_RELATIONSHIP('','',#536,#41);
#11=FACE_BOUND('',#96,.T.);
#12=FACE_BOUND('',#97,.T.);
#13=FACE_BOUND('',#99,.T.);
#14=FACE_BOUND('',#100,.T.);
#15=FACE_BOUND('',#102,.T.);
#16=FACE_BOUND('',#103,.T.);
#17=FACE_BOUND('',#105,.T.);
#18=PRESENTATION_LAYER_ASSIGNMENT('nrg3_ZonePart1_WindowSurface','',(#24,
#25));
#19=PRESENTATION_LAYER_ASSIGNMENT('nrg3_ZonePart1_ZoneWallSurface','',(#26,
#27,#28,#29));
#20=PRESENTATION_LAYER_ASSIGNMENT(
'nrg3_ZonePart1+2_ZoneIntermediateFloorSurface','',(#30));
#21=PRESENTATION_LAYER_ASSIGNMENT('nrg3_ZonePart1_GroundSurface','',(#31));
#22=PRESENTATION_LAYER_ASSIGNMENT('nrg3_ZonePart1_DoorSurface','',(#32,
#33,#35,#36,#40));
#23=PRESENTATION_LAYER_ASSIGNMENT(
'nrg3_ZonePart1_ZoneUndergroundWallSurface','',(#34,#37,#38,#39));
#24=SHELL_BASED_SURFACE_MODEL('Window_06|parent=WallSurface_04',(#42));
#25=SHELL_BASED_SURFACE_MODEL('Window_01|parent=WallSurface_04',(#43));
#26=SHELL_BASED_SURFACE_MODEL('WallSurface_02',(#44));
#27=SHELL_BASED_SURFACE_MODEL('WallSurface_04',(#45));
#28=SHELL_BASED_SURFACE_MODEL('WallSurface_03',(#46));
#29=SHELL_BASED_SURFACE_MODEL('WallSurface_01',(#47));
#30=SHELL_BASED_SURFACE_MODEL('GroundSurface_01',(#48));
#31=SHELL_BASED_SURFACE_MODEL('GroundSurface_01',(#49));
#32=SHELL_BASED_SURFACE_MODEL('Door_04|parent=WallSurface_02',(#50));
#33=SHELL_BASED_SURFACE_MODEL('Door_05|parent=WallSurface_02',(#51));
#34=SHELL_BASED_SURFACE_MODEL('WallSurface_06',(#52));
#35=SHELL_BASED_SURFACE_MODEL('Door_03|parent=WallSurface_03',(#53));
#36=SHELL_BASED_SURFACE_MODEL('Door_02|parent=WallSurface_03',(#54));
#37=SHELL_BASED_SURFACE_MODEL('WallSurface_05',(#55));
#38=SHELL_BASED_SURFACE_MODEL('WallSurface_08',(#56));
#39=SHELL_BASED_SURFACE_MODEL('WallSurface_07',(#57));
#40=SHELL_BASED_SURFACE_MODEL('Door_01|parent=WallSurface_01',(#58));
#41=MANIFOLD_SURFACE_SHAPE_REPRESENTATION('shell_rep_0',(#24,#25,#26,#27,
#28,#29,#30,#31,#32,#33,#34,#35,#36,#37,#38,#39,#40,#555),#535);
#42=OPEN_SHELL('',(#59));
#43=OPEN_SHELL('',(#60));
#44=OPEN_SHELL('',(#61));
#45=OPEN_SHELL('',(#62));
#46=OPEN_SHELL('',(#63));
#47=OPEN_SHELL('',(#64));
#48=OPEN_SHELL('',(#65));
#49=OPEN_SHELL('',(#66));
#50=OPEN_SHELL('',(#67));
#51=OPEN_SHELL('',(#68));
#52=OPEN_SHELL('',(#69));
#53=OPEN_SHELL('',(#70));
#54=OPEN_SHELL('',(#71));
#55=OPEN_SHELL('',(#72));
#56=OPEN_SHELL('',(#73));
#57=OPEN_SHELL('',(#74));
#58=OPEN_SHELL('',(#75));
#59=ADVANCED_FACE('',(#76),#501,.T.);
#60=ADVANCED_FACE('',(#77),#502,.T.);
#61=ADVANCED_FACE('',(#78,#11,#12),#503,.T.);
#62=ADVANCED_FACE('',(#79,#13,#14),#504,.T.);
#63=ADVANCED_FACE('',(#80,#15,#16),#505,.T.);
#64=ADVANCED_FACE('',(#81,#17),#506,.T.);
#65=ADVANCED_FACE('',(#82),#507,.T.);
#66=ADVANCED_FACE('',(#83),#508,.T.);
#67=ADVANCED_FACE('',(#84),#509,.T.);
#68=ADVANCED_FACE('',(#85),#510,.T.);
#69=ADVANCED_FACE('',(#86),#511,.T.);
#70=ADVANCED_FACE('',(#87),#512,.T.);
#71=ADVANCED_FACE('',(#88),#513,.T.);
#72=ADVANCED_FACE('',(#89),#514,.T.);
#73=ADVANCED_FACE('',(#90),#515,.T.);
#74=ADVANCED_FACE('',(#91),#516,.T.);
#75=ADVANCED_FACE('',(#92),#517,.T.);
#76=FACE_OUTER_BOUND('',#93,.T.);
#77=FACE_OUTER_BOUND('',#94,.T.);
#78=FACE_OUTER_BOUND('',#95,.T.);
#79=FACE_OUTER_BOUND('',#98,.T.);
#80=FACE_OUTER_BOUND('',#101,.T.);
#81=FACE_OUTER_BOUND('',#104,.T.);
#82=FACE_OUTER_BOUND('',#106,.T.);
#83=FACE_OUTER_BOUND('',#107,.T.);
#84=FACE_OUTER_BOUND('',#108,.T.);
#85=FACE_OUTER_BOUND('',#109,.T.);
#86=FACE_OUTER_BOUND('',#110,.T.);
#87=FACE_OUTER_BOUND('',#111,.T.);
#88=FACE_OUTER_BOUND('',#112,.T.);
#89=FACE_OUTER_BOUND('',#113,.T.);
#90=FACE_OUTER_BOUND('',#114,.T.);
#91=FACE_OUTER_BOUND('',#115,.T.);
#92=FACE_OUTER_BOUND('',#116,.T.);
#93=EDGE_LOOP('',(#117,#118,#119,#120));
#94=EDGE_LOOP('',(#121,#122,#123,#124));
#95=EDGE_LOOP('',(#125,#126,#127,#128));
#96=EDGE_LOOP('',(#129,#130,#131,#132));
#97=EDGE_LOOP('',(#133,#134,#135,#136));
#98=EDGE_LOOP('',(#137,#138,#139,#140));
#99=EDGE_LOOP('',(#141,#142,#143,#144));
#100=EDGE_LOOP('',(#145,#146,#147,#148));
#101=EDGE_LOOP('',(#149,#150,#151,#152));
#102=EDGE_LOOP('',(#153,#154,#155,#156));
#103=EDGE_LOOP('',(#157,#158,#159,#160));
#104=EDGE_LOOP('',(#161,#162,#163,#164));
#105=EDGE_LOOP('',(#165,#166,#167,#168));
#106=EDGE_LOOP('',(#169,#170,#171,#172));
#107=EDGE_LOOP('',(#173,#174,#175,#176));
#108=EDGE_LOOP('',(#177,#178,#179,#180));
#109=EDGE_LOOP('',(#181,#182,#183,#184));
#110=EDGE_LOOP('',(#185,#186,#187,#188));
#111=EDGE_LOOP('',(#189,#190,#191,#192));
#112=EDGE_LOOP('',(#193,#194,#195,#196));
#113=EDGE_LOOP('',(#197,#198,#199,#200));
#114=EDGE_LOOP('',(#201,#202,#203,#204));
#115=EDGE_LOOP('',(#205,#206,#207,#208));
#116=EDGE_LOOP('',(#209,#210,#211,#212));
#117=ORIENTED_EDGE('',*,*,#213,.T.);
#118=ORIENTED_EDGE('',*,*,#214,.T.);
#119=ORIENTED_EDGE('',*,*,#215,.T.);
#120=ORIENTED_EDGE('',*,*,#216,.T.);
#121=ORIENTED_EDGE('',*,*,#217,.T.);
#122=ORIENTED_EDGE('',*,*,#218,.T.);
#123=ORIENTED_EDGE('',*,*,#219,.T.);
#124=ORIENTED_EDGE('',*,*,#220,.T.);
#125=ORIENTED_EDGE('',*,*,#232,.T.);
#126=ORIENTED_EDGE('',*,*,#229,.T.);
#127=ORIENTED_EDGE('',*,*,#230,.T.);
#128=ORIENTED_EDGE('',*,*,#231,.F.);
#129=ORIENTED_EDGE('',*,*,#221,.T.);
#130=ORIENTED_EDGE('',*,*,#225,.T.);
#131=ORIENTED_EDGE('',*,*,#224,.T.);
#132=ORIENTED_EDGE('',*,*,#223,.T.);
#133=ORIENTED_EDGE('',*,*,#222,.T.);
#134=ORIENTED_EDGE('',*,*,#228,.T.);
#135=ORIENTED_EDGE('',*,*,#227,.T.);
#136=ORIENTED_EDGE('',*,*,#226,.T.);
#137=ORIENTED_EDGE('',*,*,#242,.F.);
#138=ORIENTED_EDGE('',*,*,#241,.F.);
#139=ORIENTED_EDGE('',*,*,#244,.F.);
#140=ORIENTED_EDGE('',*,*,#243,.F.);
#141=ORIENTED_EDGE('',*,*,#233,.T.);
#142=ORIENTED_EDGE('',*,*,#237,.T.);
#143=ORIENTED_EDGE('',*,*,#236,.T.);
#144=ORIENTED_EDGE('',*,*,#235,.T.);
#145=ORIENTED_EDGE('',*,*,#234,.T.);
#146=ORIENTED_EDGE('',*,*,#240,.T.);
#147=ORIENTED_EDGE('',*,*,#239,.T.);
#148=ORIENTED_EDGE('',*,*,#238,.T.);
#149=ORIENTED_EDGE('',*,*,#256,.T.);
#150=ORIENTED_EDGE('',*,*,#253,.T.);
#151=ORIENTED_EDGE('',*,*,#254,.T.);
#152=ORIENTED_EDGE('',*,*,#255,.F.);
#153=ORIENTED_EDGE('',*,*,#247,.F.);
#154=ORIENTED_EDGE('',*,*,#248,.F.);
#155=ORIENTED_EDGE('',*,*,#249,.F.);
#156=ORIENTED_EDGE('',*,*,#245,.F.);
#157=ORIENTED_EDGE('',*,*,#250,.F.);
#158=ORIENTED_EDGE('',*,*,#251,.F.);
#159=ORIENTED_EDGE('',*,*,#252,.F.);
#160=ORIENTED_EDGE('',*,*,#246,.F.);
#161=ORIENTED_EDGE('',*,*,#264,.T.);
#162=ORIENTED_EDGE('',*,*,#258,.T.);
#163=ORIENTED_EDGE('',*,*,#257,.T.);
#164=ORIENTED_EDGE('',*,*,#263,.F.);
#165=ORIENTED_EDGE('',*,*,#262,.F.);
#166=ORIENTED_EDGE('',*,*,#261,.F.);
#167=ORIENTED_EDGE('',*,*,#260,.F.);
#168=ORIENTED_EDGE('',*,*,#259,.F.);
#169=ORIENTED_EDGE('',*,*,#268,.F.);
#170=ORIENTED_EDGE('',*,*,#267,.F.);
#171=ORIENTED_EDGE('',*,*,#266,.F.);
#172=ORIENTED_EDGE('',*,*,#265,.F.);
#173=ORIENTED_EDGE('',*,*,#272,.F.);
#174=ORIENTED_EDGE('',*,*,#271,.F.);
#175=ORIENTED_EDGE('',*,*,#270,.F.);
#176=ORIENTED_EDGE('',*,*,#269,.F.);
#177=ORIENTED_EDGE('',*,*,#273,.T.);
#178=ORIENTED_EDGE('',*,*,#274,.T.);
#179=ORIENTED_EDGE('',*,*,#275,.T.);
#180=ORIENTED_EDGE('',*,*,#276,.T.);
#181=ORIENTED_EDGE('',*,*,#277,.T.);
#182=ORIENTED_EDGE('',*,*,#278,.T.);
#183=ORIENTED_EDGE('',*,*,#279,.T.);
#184=ORIENTED_EDGE('',*,*,#280,.T.);
#185=ORIENTED_EDGE('',*,*,#284,.T.);
#186=ORIENTED_EDGE('',*,*,#281,.T.);
#187=ORIENTED_EDGE('',*,*,#282,.T.);
#188=ORIENTED_EDGE('',*,*,#283,.F.);
#189=ORIENTED_EDGE('',*,*,#285,.T.);
#190=ORIENTED_EDGE('',*,*,#286,.T.);
#191=ORIENTED_EDGE('',*,*,#287,.T.);
#192=ORIENTED_EDGE('',*,*,#288,.T.);
#193=ORIENTED_EDGE('',*,*,#289,.T.);
#194=ORIENTED_EDGE('',*,*,#290,.T.);
#195=ORIENTED_EDGE('',*,*,#291,.T.);
#196=ORIENTED_EDGE('',*,*,#292,.T.);
#197=ORIENTED_EDGE('',*,*,#296,.T.);
#198=ORIENTED_EDGE('',*,*,#293,.T.);
#199=ORIENTED_EDGE('',*,*,#294,.T.);
#200=ORIENTED_EDGE('',*,*,#295,.F.);
#201=ORIENTED_EDGE('',*,*,#300,.T.);
#202=ORIENTED_EDGE('',*,*,#297,.T.);
#203=ORIENTED_EDGE('',*,*,#298,.T.);
#204=ORIENTED_EDGE('',*,*,#299,.F.);
#205=ORIENTED_EDGE('',*,*,#304,.T.);
#206=ORIENTED_EDGE('',*,*,#301,.T.);
#207=ORIENTED_EDGE('',*,*,#302,.T.);
#208=ORIENTED_EDGE('',*,*,#303,.F.);
#209=ORIENTED_EDGE('',*,*,#305,.T.);
#210=ORIENTED_EDGE('',*,*,#306,.T.);
#211=ORIENTED_EDGE('',*,*,#307,.T.);
#212=ORIENTED_EDGE('',*,*,#308,.T.);
#213=EDGE_CURVE('',#405,#406,#309,.T.);
#214=EDGE_CURVE('',#406,#407,#310,.T.);
#215=EDGE_CURVE('',#407,#408,#311,.T.);
#216=EDGE_CURVE('',#408,#405,#312,.T.);
#217=EDGE_CURVE('',#409,#410,#313,.T.);
#218=EDGE_CURVE('',#410,#411,#314,.T.);
#219=EDGE_CURVE('',#411,#412,#315,.T.);
#220=EDGE_CURVE('',#412,#409,#316,.T.);
#221=EDGE_CURVE('',#413,#417,#317,.T.);
#222=EDGE_CURVE('',#414,#420,#318,.T.);
#223=EDGE_CURVE('',#415,#413,#319,.T.);
#224=EDGE_CURVE('',#416,#415,#320,.T.);
#225=EDGE_CURVE('',#417,#416,#321,.T.);
#226=EDGE_CURVE('',#418,#414,#322,.T.);
#227=EDGE_CURVE('',#419,#418,#323,.T.);
#228=EDGE_CURVE('',#420,#419,#324,.T.);
#229=EDGE_CURVE('',#421,#422,#325,.T.);
#230=EDGE_CURVE('',#422,#424,#326,.T.);
#231=EDGE_CURVE('',#423,#424,#327,.T.);
#232=EDGE_CURVE('',#423,#421,#328,.T.);
#233=EDGE_CURVE('',#425,#429,#329,.T.);
#234=EDGE_CURVE('',#426,#432,#330,.T.);
#235=EDGE_CURVE('',#427,#425,#331,.T.);
#236=EDGE_CURVE('',#428,#427,#332,.T.);
#237=EDGE_CURVE('',#429,#428,#333,.T.);
#238=EDGE_CURVE('',#430,#426,#334,.T.);
#239=EDGE_CURVE('',#431,#430,#335,.T.);
#240=EDGE_CURVE('',#432,#431,#336,.T.);
#241=EDGE_CURVE('',#433,#434,#337,.T.);
#242=EDGE_CURVE('',#434,#435,#338,.T.);
#243=EDGE_CURVE('',#435,#436,#339,.T.);
#244=EDGE_CURVE('',#436,#433,#340,.T.);
#245=EDGE_CURVE('',#437,#441,#341,.T.);
#246=EDGE_CURVE('',#438,#444,#342,.T.);
#247=EDGE_CURVE('',#439,#437,#343,.T.);
#248=EDGE_CURVE('',#440,#439,#344,.T.);
#249=EDGE_CURVE('',#441,#440,#345,.T.);
#250=EDGE_CURVE('',#442,#438,#346,.T.);
#251=EDGE_CURVE('',#443,#442,#347,.T.);
#252=EDGE_CURVE('',#444,#443,#348,.T.);
#253=EDGE_CURVE('',#445,#446,#349,.T.);
#254=EDGE_CURVE('',#446,#448,#350,.T.);
#255=EDGE_CURVE('',#447,#448,#351,.T.);
#256=EDGE_CURVE('',#447,#445,#352,.T.);
#257=EDGE_CURVE('',#449,#456,#353,.T.);
#258=EDGE_CURVE('',#450,#449,#354,.T.);
#259=EDGE_CURVE('',#451,#452,#355,.T.);
#260=EDGE_CURVE('',#452,#453,#356,.T.);
#261=EDGE_CURVE('',#453,#454,#357,.T.);
#262=EDGE_CURVE('',#454,#451,#358,.T.);
#263=EDGE_CURVE('',#455,#456,#359,.T.);
#264=EDGE_CURVE('',#455,#450,#360,.T.);
#265=EDGE_CURVE('',#457,#458,#361,.T.);
#266=EDGE_CURVE('',#458,#459,#362,.T.);
#267=EDGE_CURVE('',#459,#460,#363,.T.);
#268=EDGE_CURVE('',#460,#457,#364,.T.);
#269=EDGE_CURVE('',#461,#462,#365,.T.);
#270=EDGE_CURVE('',#462,#463,#366,.T.);
#271=EDGE_CURVE('',#463,#464,#367,.T.);
#272=EDGE_CURVE('',#464,#461,#368,.T.);
#273=EDGE_CURVE('',#465,#466,#369,.T.);
#274=EDGE_CURVE('',#466,#467,#370,.T.);
#275=EDGE_CURVE('',#467,#468,#371,.T.);
#276=EDGE_CURVE('',#468,#465,#372,.T.);
#277=EDGE_CURVE('',#469,#470,#373,.T.);
#278=EDGE_CURVE('',#470,#471,#374,.T.);
#279=EDGE_CURVE('',#471,#472,#375,.T.);
#280=EDGE_CURVE('',#472,#469,#376,.T.);
#281=EDGE_CURVE('',#473,#474,#377,.T.);
#282=EDGE_CURVE('',#474,#476,#378,.T.);
#283=EDGE_CURVE('',#475,#476,#379,.T.);
#284=EDGE_CURVE('',#475,#473,#380,.T.);
#285=EDGE_CURVE('',#477,#478,#381,.T.);
#286=EDGE_CURVE('',#478,#479,#382,.T.);
#287=EDGE_CURVE('',#479,#480,#383,.T.);
#288=EDGE_CURVE('',#480,#477,#384,.T.);
#289=EDGE_CURVE('',#481,#482,#385,.T.);
#290=EDGE_CURVE('',#482,#483,#386,.T.);
#291=EDGE_CURVE('',#483,#484,#387,.T.);
#292=EDGE_CURVE('',#484,#481,#388,.T.);
#293=EDGE_CURVE('',#485,#486,#389,.T.);
#294=EDGE_CURVE('',#486,#488,#390,.T.);
#295=EDGE_CURVE('',#487,#488,#391,.T.);
#296=EDGE_CURVE('',#487,#485,#392,.T.);
#297=EDGE_CURVE('',#489,#490,#393,.T.);
#298=EDGE_CURVE('',#490,#492,#394,.T.);
#299=EDGE_CURVE('',#491,#492,#395,.T.);
#300=EDGE_CURVE('',#491,#489,#396,.T.);
#301=EDGE_CURVE('',#493,#494,#397,.T.);
#302=EDGE_CURVE('',#494,#496,#398,.T.);
#303=EDGE_CURVE('',#495,#496,#399,.T.);
#304=EDGE_CURVE('',#495,#493,#400,.T.);
#305=EDGE_CURVE('',#497,#498,#401,.T.);
#306=EDGE_CURVE('',#498,#499,#402,.T.);
#307=EDGE_CURVE('',#499,#500,#403,.T.);
#308=EDGE_CURVE('',#500,#497,#404,.T.);
#309=B_SPLINE_CURVE_WITH_KNOTS('',1,(#583,#584),.UNSPECIFIED.,.F.,.F.,(2,
2),(0.,1.90000000000282),.UNSPECIFIED.);
#310=B_SPLINE_CURVE_WITH_KNOTS('',1,(#585,#586),.UNSPECIFIED.,.F.,.F.,(2,
2),(0.,1.20000000000178),.UNSPECIFIED.);
#311=B_SPLINE_CURVE_WITH_KNOTS('',1,(#587,#588),.UNSPECIFIED.,.F.,.F.,(2,
2),(0.,1.90000000000282),.UNSPECIFIED.);
#312=B_SPLINE_CURVE_WITH_KNOTS('',1,(#589,#590),.UNSPECIFIED.,.F.,.F.,(2,
2),(0.,1.20000000000178),.UNSPECIFIED.);
#313=B_SPLINE_CURVE_WITH_KNOTS('',1,(#596,#597),.UNSPECIFIED.,.F.,.F.,(2,
2),(0.,1.90000000000282),.UNSPECIFIED.);
#314=B_SPLINE_CURVE_WITH_KNOTS('',1,(#598,#599),.UNSPECIFIED.,.F.,.F.,(2,
2),(0.,1.20000000000178),.UNSPECIFIED.);
#315=B_SPLINE_CURVE_WITH_KNOTS('',1,(#600,#601),.UNSPECIFIED.,.F.,.F.,(2,
2),(0.,1.90000000000282),.UNSPECIFIED.);
#316=B_SPLINE_CURVE_WITH_KNOTS('',1,(#602,#603),.UNSPECIFIED.,.F.,.F.,(2,
2),(0.,1.20000000000178),.UNSPECIFIED.);
#317=B_SPLINE_CURVE_WITH_KNOTS('',1,(#617,#618),.UNSPECIFIED.,.F.,.F.,(2,
2),(0.,2.67500000000399),.UNSPECIFIED.);
#318=B_SPLINE_CURVE_WITH_KNOTS('',1,(#619,#620),.UNSPECIFIED.,.F.,.F.,(2,
2),(0.,2.67500000000399),.UNSPECIFIED.);
#319=B_SPLINE_CURVE_WITH_KNOTS('',1,(#621,#622),.UNSPECIFIED.,.F.,.F.,(2,
2),(7.94100000001183,10.5320000000157),.UNSPECIFIED.);
#320=B_SPLINE_CURVE_WITH_KNOTS('',1,(#623,#624),.UNSPECIFIED.,.F.,.F.,(2,
2),(5.26600000000784,7.94100000001183),.UNSPECIFIED.);
#321=B_SPLINE_CURVE_WITH_KNOTS('',1,(#625,#626),.UNSPECIFIED.,.F.,.F.,(2,
2),(2.67500000000399,5.26600000000784),.UNSPECIFIED.);
#322=B_SPLINE_CURVE_WITH_KNOTS('',1,(#627,#628),.UNSPECIFIED.,.F.,.F.,(2,
2),(7.94100000001183,10.5320000000157),.UNSPECIFIED.);
#323=B_SPLINE_CURVE_WITH_KNOTS('',1,(#629,#630),.UNSPECIFIED.,.F.,.F.,(2,
2),(5.26600000000784,7.94100000001183),.UNSPECIFIED.);
#324=B_SPLINE_CURVE_WITH_KNOTS('',1,(#631,#632),.UNSPECIFIED.,.F.,.F.,(2,
2),(2.67500000000399,5.26600000000784),.UNSPECIFIED.);
#325=B_SPLINE_CURVE_WITH_KNOTS('',1,(#633,#634),.UNSPECIFIED.,.F.,.F.,(2,
2),(-0.772264898262932,0.416707424616373),.UNSPECIFIED.);
#326=B_SPLINE_CURVE_WITH_KNOTS('',1,(#635,#636),.UNSPECIFIED.,.F.,.F.,(2,
2),(0.491999999999962,3.59999999999999),.UNSPECIFIED.);
#327=B_SPLINE_CURVE_WITH_KNOTS('',1,(#637,#638),.UNSPECIFIED.,.F.,.F.,(2,
2),(0.,8.23299000001221),.UNSPECIFIED.);
#328=B_SPLINE_CURVE_WITH_KNOTS('',1,(#639,#640),.UNSPECIFIED.,.F.,.F.,(2,
2),(1.89864310860729,5.00664310860731),.UNSPECIFIED.);
#329=B_SPLINE_CURVE_WITH_KNOTS('',1,(#654,#655),.UNSPECIFIED.,.F.,.F.,(2,
2),(0.,1.90000000000282),.UNSPECIFIED.);
#330=B_SPLINE_CURVE_WITH_KNOTS('',1,(#656,#657),.UNSPECIFIED.,.F.,.F.,(2,
2),(0.,1.90000000000282),.UNSPECIFIED.);
#331=B_SPLINE_CURVE_WITH_KNOTS('',1,(#658,#659),.UNSPECIFIED.,.F.,.F.,(2,
2),(5.00000000000742,6.2000000000092),.UNSPECIFIED.);
#332=B_SPLINE_CURVE_WITH_KNOTS('',1,(#660,#661),.UNSPECIFIED.,.F.,.F.,(2,
2),(3.1000000000046,5.00000000000742),.UNSPECIFIED.);
#333=B_SPLINE_CURVE_WITH_KNOTS('',1,(#662,#663),.UNSPECIFIED.,.F.,.F.,(2,
2),(1.90000000000282,3.1000000000046),.UNSPECIFIED.);
#334=B_SPLINE_CURVE_WITH_KNOTS('',1,(#664,#665),.UNSPECIFIED.,.F.,.F.,(2,
2),(5.00000000000742,6.2000000000092),.UNSPECIFIED.);
#335=B_SPLINE_CURVE_WITH_KNOTS('',1,(#666,#667),.UNSPECIFIED.,.F.,.F.,(2,
2),(3.1000000000046,5.00000000000742),.UNSPECIFIED.);
#336=B_SPLINE_CURVE_WITH_KNOTS('',1,(#668,#669),.UNSPECIFIED.,.F.,.F.,(2,
2),(1.90000000000282,3.1000000000046),.UNSPECIFIED.);
#337=B_SPLINE_CURVE_WITH_KNOTS('',1,(#670,#671),.UNSPECIFIED.,.F.,.F.,(2,
2),(2.67754156512028,3.86651388799957),.UNSPECIFIED.);
#338=B_SPLINE_CURVE_WITH_KNOTS('',1,(#672,#673),.UNSPECIFIED.,.F.,.F.,(2,
2),(0.491999999999969,3.6),.UNSPECIFIED.);
#339=B_SPLINE_CURVE_WITH_KNOTS('',1,(#674,#675),.UNSPECIFIED.,.F.,.F.,(2,
2),(1.52054690445551E-6,8.2329915205591),.UNSPECIFIED.);
#340=B_SPLINE_CURVE_WITH_KNOTS('',1,(#676,#677),.UNSPECIFIED.,.F.,.F.,(2,
2),(1.89864310860728,5.0066431086073),.UNSPECIFIED.);
#341=B_SPLINE_CURVE_WITH_KNOTS('',1,(#691,#692),.UNSPECIFIED.,.F.,.F.,(2,
2),(0.,1.08400000000161),.UNSPECIFIED.);
#342=B_SPLINE_CURVE_WITH_KNOTS('',1,(#693,#694),.UNSPECIFIED.,.F.,.F.,(2,
2),(0.,1.58000000000234),.UNSPECIFIED.);
#343=B_SPLINE_CURVE_WITH_KNOTS('',1,(#695,#696),.UNSPECIFIED.,.F.,.F.,(2,
2),(4.57100000000678,6.97400000001034),.UNSPECIFIED.);
#344=B_SPLINE_CURVE_WITH_KNOTS('',1,(#697,#698),.UNSPECIFIED.,.F.,.F.,(2,
2),(3.48700000000517,4.57100000000678),.UNSPECIFIED.);
#345=B_SPLINE_CURVE_WITH_KNOTS('',1,(#699,#700),.UNSPECIFIED.,.F.,.F.,(2,
2),(1.08400000000161,3.48700000000517),.UNSPECIFIED.);
#346=B_SPLINE_CURVE_WITH_KNOTS('',1,(#701,#702),.UNSPECIFIED.,.F.,.F.,(2,
2),(5.55820000000823,7.9564000000118),.UNSPECIFIED.);
#347=B_SPLINE_CURVE_WITH_KNOTS('',1,(#703,#704),.UNSPECIFIED.,.F.,.F.,(2,
2),(3.9782000000059,5.55820000000823),.UNSPECIFIED.);
#348=B_SPLINE_CURVE_WITH_KNOTS('',1,(#705,#706),.UNSPECIFIED.,.F.,.F.,(2,
2),(1.58000000000234,3.9782000000059),.UNSPECIFIED.);
#349=B_SPLINE_CURVE_WITH_KNOTS('',1,(#707,#708),.UNSPECIFIED.,.F.,.F.,(2,
2),(-3.22151000000483,9.97150000001479),.UNSPECIFIED.);
#350=B_SPLINE_CURVE_WITH_KNOTS('',1,(#709,#710),.UNSPECIFIED.,.F.,.F.,(2,
2),(0.491999999999955,3.59999999999998),.UNSPECIFIED.);
#351=B_SPLINE_CURVE_WITH_KNOTS('',1,(#711,#712),.UNSPECIFIED.,.F.,.F.,(2,
2),(0.,13.1930100000196),.UNSPECIFIED.);
#352=B_SPLINE_CURVE_WITH_KNOTS('',1,(#713,#714),.UNSPECIFIED.,.F.,.F.,(2,
2),(1.89864310860727,5.0066431086073),.UNSPECIFIED.);
#353=B_SPLINE_CURVE_WITH_KNOTS('',1,(#724,#725),.UNSPECIFIED.,.F.,.F.,(2,
2),(0.,3.10800000000006),.UNSPECIFIED.);
#354=B_SPLINE_CURVE_WITH_KNOTS('',1,(#726,#727),.UNSPECIFIED.,.F.,.F.,(2,
2),(0.,13.1930100000197),.UNSPECIFIED.);
#355=B_SPLINE_CURVE_WITH_KNOTS('',1,(#728,#729),.UNSPECIFIED.,.F.,.F.,(2,
2),(-7.39150000001098,-5.46150000000813),.UNSPECIFIED.);
#356=B_SPLINE_CURVE_WITH_KNOTS('',1,(#730,#731),.UNSPECIFIED.,.F.,.F.,(2,
2),(0.,2.31800000000344),.UNSPECIFIED.);
#357=B_SPLINE_CURVE_WITH_KNOTS('',1,(#732,#733),.UNSPECIFIED.,.F.,.F.,(2,
2),(0.,1.93000000000288),.UNSPECIFIED.);
#358=B_SPLINE_CURVE_WITH_KNOTS('',1,(#734,#735),.UNSPECIFIED.,.F.,.F.,(2,
2),(0.,2.31800000000344),.UNSPECIFIED.);
#359=B_SPLINE_CURVE_WITH_KNOTS('',1,(#736,#737),.UNSPECIFIED.,.F.,.F.,(2,
2),(0.,13.1930100000195),.UNSPECIFIED.);
#360=B_SPLINE_CURVE_WITH_KNOTS('',1,(#738,#739),.UNSPECIFIED.,.F.,.F.,(2,
2),(1.94456737011159,5.05256737011161),.UNSPECIFIED.);
#361=B_SPLINE_CURVE_WITH_KNOTS('',1,(#745,#746),.UNSPECIFIED.,.F.,.F.,(2,
2),(0.,8.2329915205591),.UNSPECIFIED.);
#362=B_SPLINE_CURVE_WITH_KNOTS('',1,(#747,#748),.UNSPECIFIED.,.F.,.F.,(2,
2),(0.,13.1930100000196),.UNSPECIFIED.);
#363=B_SPLINE_CURVE_WITH_KNOTS('',1,(#749,#750),.UNSPECIFIED.,.F.,.F.,(2,
2),(0.,8.23299000001221),.UNSPECIFIED.);
#364=B_SPLINE_CURVE_WITH_KNOTS('',1,(#751,#752),.UNSPECIFIED.,.F.,.F.,(2,
2),(0.,13.1930104976064),.UNSPECIFIED.);
#365=B_SPLINE_CURVE_WITH_KNOTS('',1,(#758,#759),.UNSPECIFIED.,.F.,.F.,(2,
2),(0.,8.2329915205591),.UNSPECIFIED.);
#366=B_SPLINE_CURVE_WITH_KNOTS('',1,(#760,#761),.UNSPECIFIED.,.F.,.F.,(2,
2),(0.,13.1930100000196),.UNSPECIFIED.);
#367=B_SPLINE_CURVE_WITH_KNOTS('',1,(#762,#763),.UNSPECIFIED.,.F.,.F.,(2,
2),(0.,8.23299000001221),.UNSPECIFIED.);
#368=B_SPLINE_CURVE_WITH_KNOTS('',1,(#764,#765),.UNSPECIFIED.,.F.,.F.,(2,
2),(0.,13.1930104976064),.UNSPECIFIED.);
#369=B_SPLINE_CURVE_WITH_KNOTS('',1,(#771,#772),.UNSPECIFIED.,.F.,.F.,(2,
2),(0.,2.67500000000399),.UNSPECIFIED.);
#370=B_SPLINE_CURVE_WITH_KNOTS('',1,(#773,#774),.UNSPECIFIED.,.F.,.F.,(2,
2),(0.,2.59100000000385),.UNSPECIFIED.);
#371=B_SPLINE_CURVE_WITH_KNOTS('',1,(#775,#776),.UNSPECIFIED.,.F.,.F.,(2,
2),(0.,2.67500000000399),.UNSPECIFIED.);
#372=B_SPLINE_CURVE_WITH_KNOTS('',1,(#777,#778),.UNSPECIFIED.,.F.,.F.,(2,
2),(0.,2.59100000000385),.UNSPECIFIED.);
#373=B_SPLINE_CURVE_WITH_KNOTS('',1,(#784,#785),.UNSPECIFIED.,.F.,.F.,(2,
2),(0.,2.67500000000399),.UNSPECIFIED.);
#374=B_SPLINE_CURVE_WITH_KNOTS('',1,(#786,#787),.UNSPECIFIED.,.F.,.F.,(2,
2),(0.,2.59100000000385),.UNSPECIFIED.);
#375=B_SPLINE_CURVE_WITH_KNOTS('',1,(#788,#789),.UNSPECIFIED.,.F.,.F.,(2,
2),(0.,2.67500000000399),.UNSPECIFIED.);
#376=B_SPLINE_CURVE_WITH_KNOTS('',1,(#790,#791),.UNSPECIFIED.,.F.,.F.,(2,
2),(0.,2.59100000000385),.UNSPECIFIED.);
#377=B_SPLINE_CURVE_WITH_KNOTS('',1,(#797,#798),.UNSPECIFIED.,.F.,.F.,(2,
2),(0.,8.23299000001222),.UNSPECIFIED.);
#378=B_SPLINE_CURVE_WITH_KNOTS('',1,(#799,#800),.UNSPECIFIED.,.F.,.F.,(2,
2),(0.,0.491999999999969),.UNSPECIFIED.);
#379=B_SPLINE_CURVE_WITH_KNOTS('',1,(#801,#802),.UNSPECIFIED.,.F.,.F.,(2,
2),(2.67754156512028,3.86651388799957),.UNSPECIFIED.);
#380=B_SPLINE_CURVE_WITH_KNOTS('',1,(#803,#804),.UNSPECIFIED.,.F.,.F.,(2,
2),(5.0066431086073,5.49864310860727),.UNSPECIFIED.);
#381=B_SPLINE_CURVE_WITH_KNOTS('',1,(#810,#811),.UNSPECIFIED.,.F.,.F.,(2,
2),(0.,1.58000000000234),.UNSPECIFIED.);
#382=B_SPLINE_CURVE_WITH_KNOTS('',1,(#812,#813),.UNSPECIFIED.,.F.,.F.,(2,
2),(0.,2.39820000000356),.UNSPECIFIED.);
#383=B_SPLINE_CURVE_WITH_KNOTS('',1,(#814,#815),.UNSPECIFIED.,.F.,.F.,(2,
2),(0.,1.58000000000234),.UNSPECIFIED.);
#384=B_SPLINE_CURVE_WITH_KNOTS('',1,(#816,#817),.UNSPECIFIED.,.F.,.F.,(2,
2),(0.,2.39820000000356),.UNSPECIFIED.);
#385=B_SPLINE_CURVE_WITH_KNOTS('',1,(#823,#824),.UNSPECIFIED.,.F.,.F.,(2,
2),(0.,1.08400000000161),.UNSPECIFIED.);
#386=B_SPLINE_CURVE_WITH_KNOTS('',1,(#825,#826),.UNSPECIFIED.,.F.,.F.,(2,
2),(0.,2.40300000000357),.UNSPECIFIED.);
#387=B_SPLINE_CURVE_WITH_KNOTS('',1,(#827,#828),.UNSPECIFIED.,.F.,.F.,(2,
2),(0.,1.08400000000161),.UNSPECIFIED.);
#388=B_SPLINE_CURVE_WITH_KNOTS('',1,(#829,#830),.UNSPECIFIED.,.F.,.F.,(2,
2),(0.,2.40300000000357),.UNSPECIFIED.);
#389=B_SPLINE_CURVE_WITH_KNOTS('',1,(#836,#837),.UNSPECIFIED.,.F.,.F.,(2,
2),(0.,13.1930100000196),.UNSPECIFIED.);
#390=B_SPLINE_CURVE_WITH_KNOTS('',1,(#838,#839),.UNSPECIFIED.,.F.,.F.,(2,
2),(0.,0.491999999999955),.UNSPECIFIED.);
#391=B_SPLINE_CURVE_WITH_KNOTS('',1,(#840,#841),.UNSPECIFIED.,.F.,.F.,(2,
2),(-3.22151000000483,9.97150000001479),.UNSPECIFIED.);
#392=B_SPLINE_CURVE_WITH_KNOTS('',1,(#842,#843),.UNSPECIFIED.,.F.,.F.,(2,
2),(5.0066431086073,5.49864310860725),.UNSPECIFIED.);
#393=B_SPLINE_CURVE_WITH_KNOTS('',1,(#849,#850),.UNSPECIFIED.,.F.,.F.,(2,
2),(0.,8.23299000001224),.UNSPECIFIED.);
#394=B_SPLINE_CURVE_WITH_KNOTS('',1,(#851,#852),.UNSPECIFIED.,.F.,.F.,(2,
2),(0.,0.491999999999962),.UNSPECIFIED.);
#395=B_SPLINE_CURVE_WITH_KNOTS('',1,(#853,#854),.UNSPECIFIED.,.F.,.F.,(2,
2),(-0.772264898262932,0.416707424616373),.UNSPECIFIED.);
#396=B_SPLINE_CURVE_WITH_KNOTS('',1,(#855,#856),.UNSPECIFIED.,.F.,.F.,(2,
2),(5.00664310860731,5.49864310860727),.UNSPECIFIED.);
#397=B_SPLINE_CURVE_WITH_KNOTS('',1,(#862,#863),.UNSPECIFIED.,.F.,.F.,(2,
2),(0.,13.1930100000196),.UNSPECIFIED.);
#398=B_SPLINE_CURVE_WITH_KNOTS('',1,(#864,#865),.UNSPECIFIED.,.F.,.F.,(2,
2),(0.,0.491999999999944),.UNSPECIFIED.);
#399=B_SPLINE_CURVE_WITH_KNOTS('',1,(#866,#867),.UNSPECIFIED.,.F.,.F.,(2,
2),(-5.80151000000865,7.39150000001098),.UNSPECIFIED.);
#400=B_SPLINE_CURVE_WITH_KNOTS('',1,(#868,#869),.UNSPECIFIED.,.F.,.F.,(2,
2),(5.00664310860731,5.49864310860725),.UNSPECIFIED.);
#401=B_SPLINE_CURVE_WITH_KNOTS('',1,(#875,#876),.UNSPECIFIED.,.F.,.F.,(2,
2),(-7.39150000001098,-5.46150000000813),.UNSPECIFIED.);
#402=B_SPLINE_CURVE_WITH_KNOTS('',1,(#877,#878),.UNSPECIFIED.,.F.,.F.,(2,
2),(0.,2.31800000000344),.UNSPECIFIED.);
#403=B_SPLINE_CURVE_WITH_KNOTS('',1,(#879,#880),.UNSPECIFIED.,.F.,.F.,(2,
2),(0.,1.93000000000288),.UNSPECIFIED.);
#404=B_SPLINE_CURVE_WITH_KNOTS('',1,(#881,#882),.UNSPECIFIED.,.F.,.F.,(2,
2),(0.,2.31800000000344),.UNSPECIFIED.);
#405=VERTEX_POINT('',#579);
#406=VERTEX_POINT('',#580);
#407=VERTEX_POINT('',#581);
#408=VERTEX_POINT('',#582);
#409=VERTEX_POINT('',#592);
#410=VERTEX_POINT('',#593);
#411=VERTEX_POINT('',#594);
#412=VERTEX_POINT('',#595);
#413=VERTEX_POINT('',#605);
#414=VERTEX_POINT('',#606);
#415=VERTEX_POINT('',#607);
#416=VERTEX_POINT('',#608);
#417=VERTEX_POINT('',#609);
#418=VERTEX_POINT('',#610);
#419=VERTEX_POINT('',#611);
#420=VERTEX_POINT('',#612);
#421=VERTEX_POINT('',#613);
#422=VERTEX_POINT('',#614);
#423=VERTEX_POINT('',#615);
#424=VERTEX_POINT('',#616);
#425=VERTEX_POINT('',#642);
#426=VERTEX_POINT('',#643);
#427=VERTEX_POINT('',#644);
#428=VERTEX_POINT('',#645);
#429=VERTEX_POINT('',#646);
#430=VERTEX_POINT('',#647);
#431=VERTEX_POINT('',#648);
#432=VERTEX_POINT('',#649);
#433=VERTEX_POINT('',#650);
#434=VERTEX_POINT('',#651);
#435=VERTEX_POINT('',#652);
#436=VERTEX_POINT('',#653);
#437=VERTEX_POINT('',#679);
#438=VERTEX_POINT('',#680);
#439=VERTEX_POINT('',#681);
#440=VERTEX_POINT('',#682);
#441=VERTEX_POINT('',#683);
#442=VERTEX_POINT('',#684);
#443=VERTEX_POINT('',#685);
#444=VERTEX_POINT('',#686);
#445=VERTEX_POINT('',#687);
#446=VERTEX_POINT('',#688);
#447=VERTEX_POINT('',#689);
#448=VERTEX_POINT('',#690);
#449=VERTEX_POINT('',#716);
#450=VERTEX_POINT('',#717);
#451=VERTEX_POINT('',#718);
#452=VERTEX_POINT('',#719);
#453=VERTEX_POINT('',#720);
#454=VERTEX_POINT('',#721);
#455=VERTEX_POINT('',#722);
#456=VERTEX_POINT('',#723);
#457=VERTEX_POINT('',#741);
#458=VERTEX_POINT('',#742);
#459=VERTEX_POINT('',#743);
#460=VERTEX_POINT('',#744);
#461=VERTEX_POINT('',#754);
#462=VERTEX_POINT('',#755);
#463=VERTEX_POINT('',#756);
#464=VERTEX_POINT('',#757);
#465=VERTEX_POINT('',#767);
#466=VERTEX_POINT('',#768);
#467=VERTEX_POINT('',#769);
#468=VERTEX_POINT('',#770);
#469=VERTEX_POINT('',#780);
#470=VERTEX_POINT('',#781);
#471=VERTEX_POINT('',#782);
#472=VERTEX_POINT('',#783);
#473=VERTEX_POINT('',#793);
#474=VERTEX_POINT('',#794);
#475=VERTEX_POINT('',#795);
#476=VERTEX_POINT('',#796);
#477=VERTEX_POINT('',#806);
#478=VERTEX_POINT('',#807);
#479=VERTEX_POINT('',#808);
#480=VERTEX_POINT('',#809);
#481=VERTEX_POINT('',#819);
#482=VERTEX_POINT('',#820);
#483=VERTEX_POINT('',#821);
#484=VERTEX_POINT('',#822);
#485=VERTEX_POINT('',#832);
#486=VERTEX_POINT('',#833);
#487=VERTEX_POINT('',#834);
#488=VERTEX_POINT('',#835);
#489=VERTEX_POINT('',#845);
#490=VERTEX_POINT('',#846);
#491=VERTEX_POINT('',#847);
#492=VERTEX_POINT('',#848);
#493=VERTEX_POINT('',#858);
#494=VERTEX_POINT('',#859);
#495=VERTEX_POINT('',#860);
#496=VERTEX_POINT('',#861);
#497=VERTEX_POINT('',#871);
#498=VERTEX_POINT('',#872);
#499=VERTEX_POINT('',#873);
#500=VERTEX_POINT('',#874);
#501=PLANE('',#538);
#502=PLANE('',#539);
#503=PLANE('',#540);
#504=PLANE('',#541);
#505=PLANE('',#542);
#506=PLANE('',#543);
#507=PLANE('',#544);
#508=PLANE('',#545);
#509=PLANE('',#546);
#510=PLANE('',#547);
#511=PLANE('',#548);
#512=PLANE('',#549);
#513=PLANE('',#550);
#514=PLANE('',#551);
#515=PLANE('',#552);
#516=PLANE('',#553);
#517=PLANE('',#554);
#518=SHAPE_DEFINITION_REPRESENTATION(#519,#536);
#519=PRODUCT_DEFINITION_SHAPE($,$,#521);
#520=PRODUCT_DEFINITION_CONTEXT('3D Mechanical Parts',#525,'design');
#521=PRODUCT_DEFINITION('A','First version',#522,#520);
#522=PRODUCT_DEFINITION_FORMATION_WITH_SPECIFIED_SOURCE('A',
'First version',#527,.MADE.);
#523=PRODUCT_RELATED_PRODUCT_CATEGORY('tool','tool',(#527));
#524=APPLICATION_PROTOCOL_DEFINITION('Draft International Standard',
'automotive_design',1999,#525);
#525=APPLICATION_CONTEXT(
'data for automotive mechanical design processes');
#526=PRODUCT_CONTEXT('3D Mechanical Parts',#525,'mechanical');
#527=PRODUCT('Document','Document','',(#526));
#528=(
LENGTH_UNIT()
NAMED_UNIT(*)
SI_UNIT($,.METRE.)
);
#529=(
NAMED_UNIT(*)
PLANE_ANGLE_UNIT()
SI_UNIT($,.RADIAN.)
);
#530=DIMENSIONAL_EXPONENTS(0.,0.,0.,0.,0.,0.,0.);
#531=PLANE_ANGLE_MEASURE_WITH_UNIT(PLANE_ANGLE_MEASURE(0.01745329252),#529);
#532=(
CONVERSION_BASED_UNIT('DEGREES',#531)
NAMED_UNIT(#530)
PLANE_ANGLE_UNIT()
);
#533=(
NAMED_UNIT(*)
SI_UNIT($,.STERADIAN.)
SOLID_ANGLE_UNIT()
);
#534=UNCERTAINTY_MEASURE_WITH_UNIT(LENGTH_MEASURE(0.01),#528,
'DISTANCE_ACCURACY_VALUE',
'Maximum model space distance between geometric entities at asserted c
onnectivities');
#535=(
GEOMETRIC_REPRESENTATION_CONTEXT(3)
GLOBAL_UNCERTAINTY_ASSIGNED_CONTEXT((#534))
GLOBAL_UNIT_ASSIGNED_CONTEXT((#533,#532,#528))
REPRESENTATION_CONTEXT('ID1','3D')
);
#536=SHAPE_REPRESENTATION('Document',(#537,#555),#535);
#537=AXIS2_PLACEMENT_3D($,#577,#556,#557);
#538=AXIS2_PLACEMENT_3D('',#578,#558,$);
#539=AXIS2_PLACEMENT_3D('',#591,#559,$);
#540=AXIS2_PLACEMENT_3D('',#604,#560,$);
#541=AXIS2_PLACEMENT_3D('',#641,#561,$);
#542=AXIS2_PLACEMENT_3D('',#678,#562,$);
#543=AXIS2_PLACEMENT_3D('',#715,#563,$);
#544=AXIS2_PLACEMENT_3D('',#740,#564,$);
#545=AXIS2_PLACEMENT_3D('',#753,#565,$);
#546=AXIS2_PLACEMENT_3D('',#766,#566,$);
#547=AXIS2_PLACEMENT_3D('',#779,#567,$);
#548=AXIS2_PLACEMENT_3D('',#792,#568,$);
#549=AXIS2_PLACEMENT_3D('',#805,#569,$);
#550=AXIS2_PLACEMENT_3D('',#818,#570,$);
#551=AXIS2_PLACEMENT_3D('',#831,#571,$);
#552=AXIS2_PLACEMENT_3D('',#844,#572,$);
#553=AXIS2_PLACEMENT_3D('',#857,#573,$);
#554=AXIS2_PLACEMENT_3D('',#870,#574,$);
#555=AXIS2_PLACEMENT_3D($,#883,#575,#576);
#556=DIRECTION('',(0.,0.,1.));
#557=DIRECTION('',(1.,0.,0.));
#558=DIRECTION('',(0.577709519870567,-0.816242433748038,2.11859786494158E-16));
#559=DIRECTION('',(0.577709519870571,-0.816242433748035,-5.73112684997152E-16));
#560=DIRECTION('',(-0.577709519870561,0.816242433748042,3.09519510825718E-16));
#561=DIRECTION('',(0.577709519870571,-0.816242433748035,7.59864788501143E-16));
#562=DIRECTION('',(0.816242433748034,0.577709519870571,-1.60056250075213E-15));
#563=DIRECTION('',(-0.816242433748034,-0.577709519870572,-2.97979612212305E-15));
#564=DIRECTION('',(0.,0.,-1.));
#565=DIRECTION('',(0.,0.,-1.));
#566=DIRECTION('',(-0.577709519870559,0.816242433748043,-4.90761739550348E-16));
#567=DIRECTION('',(-0.577709519870564,0.81624243374804,-9.81523479100695E-16));
#568=DIRECTION('',(0.577709519870574,-0.816242433748033,-8.2966724919934E-16));
#569=DIRECTION('',(0.816242433748034,0.577709519870571,-1.96304695820139E-15));
#570=DIRECTION('',(0.816242433748035,0.577709519870571,-1.60056250075213E-15));
#571=DIRECTION('',(0.816242433748034,0.577709519870571,-1.60056250075213E-15));
#572=DIRECTION('',(-0.577709519870561,0.816242433748042,3.09519510825718E-16));
#573=DIRECTION('',(-0.816242433748034,-0.577709519870572,-5.62917710732211E-16));
#574=DIRECTION('',(-0.816242433748034,-0.577709519870572,-2.97979612212305E-15));
#575=DIRECTION('',(0.,0.,1.));
#576=DIRECTION('',(1.,0.,0.));
#577=CARTESIAN_POINT('',(0.,0.,0.));
#578=CARTESIAN_POINT('',(15.8309469223022,4.4191837310791,1.07500000000238));
#579=CARTESIAN_POINT('',(15.8309469223022,4.4191837310791,1.07500000000238));
#580=CARTESIAN_POINT('',(17.3818075464258,5.51683181883481,1.07500000000238));
#581=CARTESIAN_POINT('',(17.3818075464258,5.51683181883481,2.27500000000416));
#582=CARTESIAN_POINT('',(15.8309469223023,4.4191837310791,2.27500000000416));
#583=CARTESIAN_POINT('',(15.8309469223022,4.4191837310791,1.07500000000238));
#584=CARTESIAN_POINT('',(17.3818075464258,5.51683181883481,1.07500000000238));
#585=CARTESIAN_POINT('',(17.3818075464258,5.51683181883481,1.07500000000238));
#586=CARTESIAN_POINT('',(17.3818075464258,5.51683181883481,2.27500000000416));
#587=CARTESIAN_POINT('',(17.3818075464258,5.51683181883481,2.27500000000416));
#588=CARTESIAN_POINT('',(15.8309469223023,4.4191837310791,2.27500000000416));
#589=CARTESIAN_POINT('',(15.8309469223023,4.4191837310791,2.27500000000416));
#590=CARTESIAN_POINT('',(15.8309469223022,4.4191837310791,1.07500000000238));
#591=CARTESIAN_POINT('',(11.3007772161474,1.21288185952515,1.07500000000237));
#592=CARTESIAN_POINT('',(11.3007772161474,1.21288185952515,1.07500000000237));
#593=CARTESIAN_POINT('',(12.851637840271,2.31052994728087,1.07500000000237));
#594=CARTESIAN_POINT('',(12.851637840271,2.31052994728088,2.27500000000415));
#595=CARTESIAN_POINT('',(11.3007772161474,1.21288185952518,2.27500000000415));
#596=CARTESIAN_POINT('',(11.3007772161474,1.21288185952515,1.07500000000237));
#597=CARTESIAN_POINT('',(12.851637840271,2.31052994728087,1.07500000000237));
#598=CARTESIAN_POINT('',(12.851637840271,2.31052994728087,1.07500000000237));
#599=CARTESIAN_POINT('',(12.851637840271,2.31052994728088,2.27500000000415));
#600=CARTESIAN_POINT('',(12.851637840271,2.31052994728088,2.27500000000415));
#601=CARTESIAN_POINT('',(11.3007772161474,1.21288185952518,2.27500000000415));
#602=CARTESIAN_POINT('',(11.3007772161474,1.21288185952518,2.27500000000415));
#603=CARTESIAN_POINT('',(11.3007772161474,1.21288185952515,1.07500000000237));
#604=CARTESIAN_POINT('',(3.31107136929472,11.7211318238781,9.24248100001452));
#605=CARTESIAN_POINT('',(3.91984121960928,12.1519990802177,0.0740000000009031));
#606=CARTESIAN_POINT('',(7.33581580484989,14.5697134208796,0.0740000000009031));
#607=CARTESIAN_POINT('',(3.91984121960928,12.1519990802177,2.66500000000476));
#608=CARTESIAN_POINT('',(6.10328972988856,13.6973720458738,2.66500000000476));
#609=CARTESIAN_POINT('',(6.10328972988856,13.6973720458738,0.0740000000009031));
#610=CARTESIAN_POINT('',(7.33581580484989,14.5697134208796,2.66500000000476));
#611=CARTESIAN_POINT('',(9.51926431512916,16.1150863865356,2.66500000000476));
#612=CARTESIAN_POINT('',(9.51926431512916,16.1150863865356,0.0740000000009031));
#613=CARTESIAN_POINT('',(10.0983883218742,16.5249712908844,3.10862446895044E-14));
#614=CARTESIAN_POINT('',(3.37827252724099,11.7686945908782,3.81916720471054E-14));
#615=CARTESIAN_POINT('',(10.0983883218743,16.5249712908844,3.10800000000006));
#616=CARTESIAN_POINT('',(3.37827252724101,11.7686945908782,3.10800000000007));
#617=CARTESIAN_POINT('',(3.91984121960928,12.1519990802177,0.0740000000009031));
#618=CARTESIAN_POINT('',(6.10328972988856,13.6973720458738,0.0740000000009031));
#619=CARTESIAN_POINT('',(7.33581580484989,14.5697134208796,0.0740000000009031));
#620=CARTESIAN_POINT('',(9.51926431512916,16.1150863865356,0.0740000000009031));
#621=CARTESIAN_POINT('',(3.91984121960928,12.1519990802177,2.66500000000476));
#622=CARTESIAN_POINT('',(3.91984121960928,12.1519990802177,0.0740000000009031));
#623=CARTESIAN_POINT('',(6.10328972988856,13.6973720458738,2.66500000000476));
#624=CARTESIAN_POINT('',(3.91984121960928,12.1519990802177,2.66500000000476));
#625=CARTESIAN_POINT('',(6.10328972988856,13.6973720458738,0.0740000000009031));
#626=CARTESIAN_POINT('',(6.10328972988856,13.6973720458738,2.66500000000476));
#627=CARTESIAN_POINT('',(7.33581580484989,14.5697134208796,2.66500000000476));
#628=CARTESIAN_POINT('',(7.33581580484989,14.5697134208796,0.0740000000009031));
#629=CARTESIAN_POINT('',(9.51926431512916,16.1150863865356,2.66500000000476));
#630=CARTESIAN_POINT('',(7.33581580484989,14.5697134208796,2.66500000000476));
#631=CARTESIAN_POINT('',(9.51926431512916,16.1150863865356,0.0740000000009031));
#632=CARTESIAN_POINT('',(9.51926431512916,16.1150863865356,2.66500000000476));
#633=CARTESIAN_POINT('',(10.0983883218742,16.5249712908844,3.10862446895044E-14));
#634=CARTESIAN_POINT('',(3.37827252724099,11.7686945908782,3.81916720471054E-14));
#635=CARTESIAN_POINT('',(3.37827252724099,11.7686945908782,3.81916720471054E-14));
#636=CARTESIAN_POINT('',(3.37827252724101,11.7686945908782,3.10800000000007));
#637=CARTESIAN_POINT('',(10.0983883218743,16.5249712908844,3.10800000000006));
#638=CARTESIAN_POINT('',(3.37827252724101,11.7686945908782,3.10800000000007));
#639=CARTESIAN_POINT('',(10.0983883218743,16.5249712908844,3.10800000000006));
#640=CARTESIAN_POINT('',(10.0983883218742,16.5249712908844,3.10862446895044E-14));
#641=CARTESIAN_POINT('',(17.7873169525795,5.80383946700639,-0.588381000000068));
#642=CARTESIAN_POINT('',(17.3818077931172,5.51683343530514,1.07500000000238));
#643=CARTESIAN_POINT('',(12.8516377985358,2.31052826873314,1.07500000000237));
#644=CARTESIAN_POINT('',(17.3818077931171,5.51683343530514,2.27500000000416));
#645=CARTESIAN_POINT('',(15.8309471689936,4.41918534754943,2.27500000000416));
#646=CARTESIAN_POINT('',(15.8309471689936,4.41918534754943,1.07500000000238));
#647=CARTESIAN_POINT('',(12.8516377985358,2.31052826873311,2.27500000000415));
#648=CARTESIAN_POINT('',(11.3007771744122,1.21288018097741,2.27500000000415));
#649=CARTESIAN_POINT('',(11.3007771744122,1.21288018097742,1.07500000000237));
#650=CARTESIAN_POINT('',(17.7201157946332,5.75627670000627,4.52970994047064E-14));
#651=CARTESIAN_POINT('',(11.,1.,2.8421709430404E-14));
#652=CARTESIAN_POINT('',(11.,1.00000000000003,3.10800000000006));
#653=CARTESIAN_POINT('',(17.7201157946332,5.75627670000629,3.10800000000006));
#654=CARTESIAN_POINT('',(17.3818077931172,5.51683343530514,1.07500000000238));
#655=CARTESIAN_POINT('',(15.8309471689936,4.41918534754943,1.07500000000238));
#656=CARTESIAN_POINT('',(12.8516377985358,2.31052826873314,1.07500000000237));
#657=CARTESIAN_POINT('',(11.3007771744122,1.21288018097742,1.07500000000237));
#658=CARTESIAN_POINT('',(17.3818077931171,5.51683343530514,2.27500000000416));
#659=CARTESIAN_POINT('',(17.3818077931172,5.51683343530514,1.07500000000238));
#660=CARTESIAN_POINT('',(15.8309471689936,4.41918534754943,2.27500000000416));
#661=CARTESIAN_POINT('',(17.3818077931171,5.51683343530514,2.27500000000416));
#662=CARTESIAN_POINT('',(15.8309471689936,4.41918534754943,1.07500000000238));
#663=CARTESIAN_POINT('',(15.8309471689936,4.41918534754943,2.27500000000416));
#664=CARTESIAN_POINT('',(12.8516377985358,2.31052826873311,2.27500000000415));
#665=CARTESIAN_POINT('',(12.8516377985358,2.31052826873314,1.07500000000237));
#666=CARTESIAN_POINT('',(11.3007771744122,1.21288018097741,2.27500000000415));
#667=CARTESIAN_POINT('',(12.8516377985358,2.31052826873311,2.27500000000415));
#668=CARTESIAN_POINT('',(11.3007771744122,1.21288018097742,1.07500000000237));
#669=CARTESIAN_POINT('',(11.3007771744122,1.21288018097741,2.27500000000415));
#670=CARTESIAN_POINT('',(17.7201157946332,5.75627670000627,4.52970994047064E-14));
#671=CARTESIAN_POINT('',(11.,1.,2.8421709430404E-14));
#672=CARTESIAN_POINT('',(11.,1.,2.8421709430404E-14));
#673=CARTESIAN_POINT('',(11.,1.00000000000003,3.10800000000006));
#674=CARTESIAN_POINT('',(11.,1.00000000000003,3.10800000000006));
#675=CARTESIAN_POINT('',(17.7201157946332,5.75627670000629,3.10800000000006));
#676=CARTESIAN_POINT('',(17.7201157946332,5.75627670000629,3.10800000000006));
#677=CARTESIAN_POINT('',(17.7201157946332,5.75627670000627,4.52970994047064E-14));
#678=CARTESIAN_POINT('',(17.7201157946332,5.75627670000626,-0.491999999999924));
#679=CARTESIAN_POINT('',(15.8590187992722,8.38580986275383,0.0150000000000174));
#680=CARTESIAN_POINT('',(14.4499852803058,10.3766251586682,0.0260000000000273));
#681=CARTESIAN_POINT('',(15.8590187992722,8.38580986275383,2.41800000000358));
#682=CARTESIAN_POINT('',(15.2327816797316,9.27061666093802,2.41800000000358));
#683=CARTESIAN_POINT('',(15.2327816797316,9.27061666093802,0.0150000000000174));
#684=CARTESIAN_POINT('',(14.4499852803058,10.3766251586682,2.42420000000359));
#685=CARTESIAN_POINT('',(13.5372042389089,11.6662882039921,2.42420000000359));
#686=CARTESIAN_POINT('',(13.5372042389089,11.6662882039921,0.0260000000000273));
#687=CARTESIAN_POINT('',(17.7201157946332,5.75627670000627,3.10862446895044E-14));
#688=CARTESIAN_POINT('',(10.0983883218742,16.5249712908844,3.10862446895044E-14));
#689=CARTESIAN_POINT('',(17.7201157946332,5.75627670000627,3.10800000000006));
#690=CARTESIAN_POINT('',(10.0983883218743,16.5249712908844,3.10800000000006));
#691=CARTESIAN_POINT('',(15.8590187992722,8.38580986275383,0.0150000000000174));
#692=CARTESIAN_POINT('',(15.2327816797316,9.27061666093802,0.0150000000000174));
#693=CARTESIAN_POINT('',(14.4499852803058,10.3766251586682,0.0260000000000273));
#694=CARTESIAN_POINT('',(13.5372042389089,11.6662882039921,0.0260000000000273));
#695=CARTESIAN_POINT('',(15.8590187992722,8.38580986275383,2.41800000000358));
#696=CARTESIAN_POINT('',(15.8590187992722,8.38580986275383,0.0150000000000174));
#697=CARTESIAN_POINT('',(15.2327816797316,9.27061666093802,2.41800000000358));
#698=CARTESIAN_POINT('',(15.8590187992722,8.38580986275383,2.41800000000358));
#699=CARTESIAN_POINT('',(15.2327816797316,9.27061666093802,0.0150000000000174));
#700=CARTESIAN_POINT('',(15.2327816797316,9.27061666093802,2.41800000000358));
#701=CARTESIAN_POINT('',(14.4499852803058,10.3766251586682,2.42420000000359));
#702=CARTESIAN_POINT('',(14.4499852803058,10.3766251586682,0.0260000000000273));
#703=CARTESIAN_POINT('',(13.5372042389089,11.6662882039921,2.42420000000359));
#704=CARTESIAN_POINT('',(14.4499852803058,10.3766251586682,2.42420000000359));
#705=CARTESIAN_POINT('',(13.5372042389089,11.6662882039921,0.0260000000000273));
#706=CARTESIAN_POINT('',(13.5372042389089,11.6662882039921,2.42420000000359));
#707=CARTESIAN_POINT('',(17.7201157946332,5.75627670000627,3.10862446895044E-14));
#708=CARTESIAN_POINT('',(10.0983883218742,16.5249712908844,3.10862446895044E-14));
#709=CARTESIAN_POINT('',(10.0983883218742,16.5249712908844,3.10862446895044E-14));
#710=CARTESIAN_POINT('',(10.0983883218743,16.5249712908844,3.10800000000006));
#711=CARTESIAN_POINT('',(17.7201157946332,5.75627670000627,3.10800000000006));
#712=CARTESIAN_POINT('',(10.0983883218743,16.5249712908844,3.10800000000006));
#713=CARTESIAN_POINT('',(17.7201157946332,5.75627670000627,3.10800000000006));
#714=CARTESIAN_POINT('',(17.7201157946332,5.75627670000627,3.10862446895044E-14));
#715=CARTESIAN_POINT('',(3.37827252724096,11.7686945908782,0.));
#716=CARTESIAN_POINT('',(11.,1.,0.));
#717=CARTESIAN_POINT('',(3.37827252724099,11.7686945908782,3.81916720471054E-14));
#718=CARTESIAN_POINT('',(6.72986008387031,7.03325594905753,0.0740000000001197));
#719=CARTESIAN_POINT('',(7.84483945722218,5.45790805192149,0.0740000000001197));
#720=CARTESIAN_POINT('',(7.84483945722218,5.45790805192149,2.39200000000356));
#721=CARTESIAN_POINT('',(6.72986008387031,7.03325594905753,2.39200000000356));
#722=CARTESIAN_POINT('',(3.37827252724101,11.7686945908782,3.10800000000006));
#723=CARTESIAN_POINT('',(11.,1.00000000000003,3.10800000000006));
#724=CARTESIAN_POINT('',(11.,1.,0.));
#725=CARTESIAN_POINT('',(11.,1.00000000000003,3.10800000000006));
#726=CARTESIAN_POINT('',(3.37827252724099,11.7686945908782,3.81916720471054E-14));
#727=CARTESIAN_POINT('',(11.,1.,0.));
#728=CARTESIAN_POINT('',(6.72986008387031,7.03325594905753,0.0740000000001197));
#729=CARTESIAN_POINT('',(7.84483945722218,5.45790805192149,0.0740000000001197));
#730=CARTESIAN_POINT('',(7.84483945722218,5.45790805192149,0.0740000000001197));
#731=CARTESIAN_POINT('',(7.84483945722218,5.45790805192149,2.39200000000356));
#732=CARTESIAN_POINT('',(7.84483945722218,5.45790805192149,2.39200000000356));
#733=CARTESIAN_POINT('',(6.72986008387031,7.03325594905753,2.39200000000356));
#734=CARTESIAN_POINT('',(6.72986008387031,7.03325594905753,2.39200000000356));
#735=CARTESIAN_POINT('',(6.72986008387031,7.03325594905753,0.0740000000001197));
#736=CARTESIAN_POINT('',(3.37827252724101,11.7686945908782,3.10800000000006));
#737=CARTESIAN_POINT('',(11.,1.00000000000003,3.10800000000006));
#738=CARTESIAN_POINT('',(3.37827252724101,11.7686945908782,3.10800000000006));
#739=CARTESIAN_POINT('',(3.37827252724099,11.7686945908782,3.81916720471054E-14));
#740=CARTESIAN_POINT('',(3.37827197906135,11.7686953653982,3.10800000000006));
#741=CARTESIAN_POINT('',(10.9999990463257,0.999998715414195,3.10800000000006));
#742=CARTESIAN_POINT('',(17.7201157946332,5.75627670000621,3.10800000000006));
#743=CARTESIAN_POINT('',(10.0983883218742,16.5249712908844,3.10800000000006));
#744=CARTESIAN_POINT('',(3.37827252724099,11.7686945908782,3.10800000000006));
#745=CARTESIAN_POINT('',(10.9999990463257,0.999998715414195,3.10800000000006));
#746=CARTESIAN_POINT('',(17.7201157946332,5.75627670000621,3.10800000000006));
#747=CARTESIAN_POINT('',(17.7201157946332,5.75627670000621,3.10800000000006));
#748=CARTESIAN_POINT('',(10.0983883218742,16.5249712908844,3.10800000000006));
#749=CARTESIAN_POINT('',(10.0983883218742,16.5249712908844,3.10800000000006));
#750=CARTESIAN_POINT('',(3.37827252724099,11.7686945908782,3.10800000000006));
#751=CARTESIAN_POINT('',(3.37827252724099,11.7686945908782,3.10800000000006));
#752=CARTESIAN_POINT('',(10.9999990463257,0.999998715414195,3.10800000000006));
#753=CARTESIAN_POINT('',(3.37827197906135,11.7686953653982,-0.49199999999994));
#754=CARTESIAN_POINT('',(10.9999990463257,0.999998715414195,-0.49199999999994));
#755=CARTESIAN_POINT('',(17.7201157946332,5.75627670000621,-0.49199999999994));
#756=CARTESIAN_POINT('',(10.0983883218742,16.5249712908844,-0.49199999999994));
#757=CARTESIAN_POINT('',(3.37827252724099,11.7686945908782,-0.49199999999994));
#758=CARTESIAN_POINT('',(10.9999990463257,0.999998715414195,-0.49199999999994));
#759=CARTESIAN_POINT('',(17.7201157946332,5.75627670000621,-0.49199999999994));
#760=CARTESIAN_POINT('',(17.7201157946332,5.75627670000621,-0.49199999999994));
#761=CARTESIAN_POINT('',(10.0983883218742,16.5249712908844,-0.49199999999994));
#762=CARTESIAN_POINT('',(10.0983883218742,16.5249712908844,-0.49199999999994));
#763=CARTESIAN_POINT('',(3.37827252724099,11.7686945908782,-0.49199999999994));
#764=CARTESIAN_POINT('',(3.37827252724099,11.7686945908782,-0.49199999999994));
#765=CARTESIAN_POINT('',(10.9999990463257,0.999998715414195,-0.49199999999994));
#766=CARTESIAN_POINT('',(9.51926956807492,16.1150857734563,0.0740000000009031));
#767=CARTESIAN_POINT('',(9.51926956807492,16.1150857734563,0.0740000000009031));
#768=CARTESIAN_POINT('',(7.33582105779564,14.5697128078003,0.0740000000009031));
#769=CARTESIAN_POINT('',(7.33582105779564,14.5697128078003,2.66500000000476));
#770=CARTESIAN_POINT('',(9.51926956807492,16.1150857734563,2.66500000000476));
#771=CARTESIAN_POINT('',(9.51926956807492,16.1150857734563,0.0740000000009031));
#772=CARTESIAN_POINT('',(7.33582105779564,14.5697128078003,0.0740000000009031));
#773=CARTESIAN_POINT('',(7.33582105779564,14.5697128078003,0.0740000000009031));
#774=CARTESIAN_POINT('',(7.33582105779564,14.5697128078003,2.66500000000476));
#775=CARTESIAN_POINT('',(7.33582105779564,14.5697128078003,2.66500000000476));
#776=CARTESIAN_POINT('',(9.51926956807492,16.1150857734563,2.66500000000476));
#777=CARTESIAN_POINT('',(9.51926956807492,16.1150857734563,2.66500000000476));
#778=CARTESIAN_POINT('',(9.51926956807492,16.1150857734563,0.0740000000009031));
#779=CARTESIAN_POINT('',(6.10328972988856,13.6973714855535,0.0740000000009031));
#780=CARTESIAN_POINT('',(6.10328972988856,13.6973714855535,0.0740000000009031));
#781=CARTESIAN_POINT('',(3.91984121960929,12.1519985198975,0.0740000000009031));
#782=CARTESIAN_POINT('',(3.91984121960929,12.1519985198975,2.66500000000476));
#783=CARTESIAN_POINT('',(6.10328972988856,13.6973714855535,2.66500000000476));
#784=CARTESIAN_POINT('',(6.10328972988856,13.6973714855535,0.0740000000009031));
#785=CARTESIAN_POINT('',(3.91984121960929,12.1519985198975,0.0740000000009031));
#786=CARTESIAN_POINT('',(3.91984121960929,12.1519985198975,0.0740000000009031));
#787=CARTESIAN_POINT('',(3.91984121960929,12.1519985198975,2.66500000000476));
#788=CARTESIAN_POINT('',(3.91984121960929,12.1519985198975,2.66500000000476));
#789=CARTESIAN_POINT('',(6.10328972988856,13.6973714855535,2.66500000000476));
#790=CARTESIAN_POINT('',(6.10328972988856,13.6973714855535,2.66500000000476));
#791=CARTESIAN_POINT('',(6.10328972988856,13.6973714855535,0.0740000000009031));
#792=CARTESIAN_POINT('',(10.9327978883794,0.952435948414135,-0.588381000000068));
#793=CARTESIAN_POINT('',(10.9999990463257,0.999998715414252,-0.491999999999924));
#794=CARTESIAN_POINT('',(17.7201148409589,5.75627541542054,-0.49199999999994));
#795=CARTESIAN_POINT('',(10.9999990463257,0.999998715414252,4.52970994047064E-14));
#796=CARTESIAN_POINT('',(17.7201148409589,5.75627541542054,2.8421709430404E-14));
#797=CARTESIAN_POINT('',(10.9999990463257,0.999998715414252,-0.491999999999924));
#798=CARTESIAN_POINT('',(17.7201148409589,5.75627541542054,-0.49199999999994));
#799=CARTESIAN_POINT('',(17.7201148409589,5.75627541542054,-0.49199999999994));
#800=CARTESIAN_POINT('',(17.7201148409589,5.75627541542054,2.8421709430404E-14));
#801=CARTESIAN_POINT('',(10.9999990463257,0.999998715414252,4.52970994047064E-14));
#802=CARTESIAN_POINT('',(17.7201148409589,5.75627541542054,2.8421709430404E-14));
#803=CARTESIAN_POINT('',(10.9999990463257,0.999998715414252,4.52970994047064E-14));
#804=CARTESIAN_POINT('',(10.9999990463257,0.999998715414252,-0.491999999999924));
#805=CARTESIAN_POINT('',(14.4499852803058,10.3766251586682,0.0260000000000273));
#806=CARTESIAN_POINT('',(14.4499852803058,10.3766251586682,0.0260000000000273));
#807=CARTESIAN_POINT('',(13.5372042389089,11.6662882039921,0.0260000000000273));
#808=CARTESIAN_POINT('',(13.5372042389089,11.6662882039921,2.42420000000359));
#809=CARTESIAN_POINT('',(14.4499852803058,10.3766251586682,2.42420000000359));
#810=CARTESIAN_POINT('',(14.4499852803058,10.3766251586682,0.0260000000000273));
#811=CARTESIAN_POINT('',(13.5372042389089,11.6662882039921,0.0260000000000273));
#812=CARTESIAN_POINT('',(13.5372042389089,11.6662882039921,0.0260000000000273));
#813=CARTESIAN_POINT('',(13.5372042389089,11.6662882039921,2.42420000000359));
#814=CARTESIAN_POINT('',(13.5372042389089,11.6662882039921,2.42420000000359));
#815=CARTESIAN_POINT('',(14.4499852803058,10.3766251586682,2.42420000000359));
#816=CARTESIAN_POINT('',(14.4499852803058,10.3766251586682,2.42420000000359));
#817=CARTESIAN_POINT('',(14.4499852803058,10.3766251586682,0.0260000000000273));
#818=CARTESIAN_POINT('',(15.8590187992722,8.38580986275383,0.0150000000000174));
#819=CARTESIAN_POINT('',(15.8590187992722,8.38580986275383,0.0150000000000174));
#820=CARTESIAN_POINT('',(15.2327816797316,9.27061666093802,0.0150000000000174));
#821=CARTESIAN_POINT('',(15.2327816797316,9.27061666093802,2.41800000000358));
#822=CARTESIAN_POINT('',(15.8590187992722,8.38580986275383,2.41800000000358));
#823=CARTESIAN_POINT('',(15.8590187992722,8.38580986275383,0.0150000000000174));
#824=CARTESIAN_POINT('',(15.2327816797316,9.27061666093802,0.0150000000000174));
#825=CARTESIAN_POINT('',(15.2327816797316,9.27061666093802,0.0150000000000174));
#826=CARTESIAN_POINT('',(15.2327816797316,9.27061666093802,2.41800000000358));
#827=CARTESIAN_POINT('',(15.2327816797316,9.27061666093802,2.41800000000358));
#828=CARTESIAN_POINT('',(15.8590187992722,8.38580986275383,2.41800000000358));
#829=CARTESIAN_POINT('',(15.8590187992722,8.38580986275383,2.41800000000358));
#830=CARTESIAN_POINT('',(15.8590187992722,8.38580986275383,0.0150000000000174));
#831=CARTESIAN_POINT('',(17.7201157946332,5.75627670000626,-0.491999999999924));
#832=CARTESIAN_POINT('',(17.7201157946332,5.75627670000627,-0.491999999999924));
#833=CARTESIAN_POINT('',(10.0983883218742,16.5249712908844,-0.491999999999924));
#834=CARTESIAN_POINT('',(17.7201157946332,5.75627670000627,3.10862446895044E-14));
#835=CARTESIAN_POINT('',(10.0983883218742,16.5249712908844,3.10862446895044E-14));
#836=CARTESIAN_POINT('',(17.7201157946332,5.75627670000627,-0.491999999999924));
#837=CARTESIAN_POINT('',(10.0983883218742,16.5249712908844,-0.491999999999924));
#838=CARTESIAN_POINT('',(10.0983883218742,16.5249712908844,-0.491999999999924));
#839=CARTESIAN_POINT('',(10.0983883218742,16.5249712908844,3.10862446895044E-14));
#840=CARTESIAN_POINT('',(17.7201157946332,5.75627670000627,3.10862446895044E-14));
#841=CARTESIAN_POINT('',(10.0983883218742,16.5249712908844,3.10862446895044E-14));
#842=CARTESIAN_POINT('',(17.7201157946332,5.75627670000627,3.10862446895044E-14));
#843=CARTESIAN_POINT('',(17.7201157946332,5.75627670000627,-0.491999999999924));
#844=CARTESIAN_POINT('',(3.31107136929472,11.7211318238781,9.24248100001452));
#845=CARTESIAN_POINT('',(10.0983883218742,16.5249712908844,-0.491999999999924));
#846=CARTESIAN_POINT('',(3.37827252724099,11.7686945908782,-0.491999999999924));
#847=CARTESIAN_POINT('',(10.0983883218742,16.5249712908844,3.10862446895044E-14));
#848=CARTESIAN_POINT('',(3.37827252724099,11.7686945908782,3.81916720471054E-14));
#849=CARTESIAN_POINT('',(10.0983883218742,16.5249712908844,-0.491999999999924));
#850=CARTESIAN_POINT('',(3.37827252724099,11.7686945908782,-0.491999999999924));
#851=CARTESIAN_POINT('',(3.37827252724099,11.7686945908782,-0.491999999999924));
#852=CARTESIAN_POINT('',(3.37827252724099,11.7686945908782,3.81916720471054E-14));
#853=CARTESIAN_POINT('',(10.0983883218742,16.5249712908844,3.10862446895044E-14));
#854=CARTESIAN_POINT('',(3.37827252724099,11.7686945908782,3.81916720471054E-14));
#855=CARTESIAN_POINT('',(10.0983883218742,16.5249712908844,3.10862446895044E-14));
#856=CARTESIAN_POINT('',(10.0983883218742,16.5249712908844,-0.491999999999924));
#857=CARTESIAN_POINT('',(3.37827252724099,11.7686945908781,-0.49199999999994));
#858=CARTESIAN_POINT('',(3.37827252724099,11.7686945908782,-0.49199999999994));
#859=CARTESIAN_POINT('',(11.,1.,-0.49199999999994));
#860=CARTESIAN_POINT('',(3.37827252724099,11.7686945908782,7.105427357601E-15));
#861=CARTESIAN_POINT('',(11.,1.,0.));
#862=CARTESIAN_POINT('',(3.37827252724099,11.7686945908782,-0.49199999999994));
#863=CARTESIAN_POINT('',(11.,1.,-0.49199999999994));
#864=CARTESIAN_POINT('',(11.,1.,-0.49199999999994));
#865=CARTESIAN_POINT('',(11.,1.,0.));
#866=CARTESIAN_POINT('',(3.37827252724099,11.7686945908782,7.105427357601E-15));
#867=CARTESIAN_POINT('',(11.,1.,0.));
#868=CARTESIAN_POINT('',(3.37827252724099,11.7686945908782,7.105427357601E-15));
#869=CARTESIAN_POINT('',(3.37827252724099,11.7686945908782,-0.49199999999994));
#870=CARTESIAN_POINT('',(3.37827252724096,11.7686945908782,0.));
#871=CARTESIAN_POINT('',(6.72986008387031,7.03325594905753,0.0740000000001197));
#872=CARTESIAN_POINT('',(7.84483945722218,5.45790805192149,0.0740000000001197));
#873=CARTESIAN_POINT('',(7.84483945722218,5.45790805192149,2.39200000000356));
#874=CARTESIAN_POINT('',(6.72986008387031,7.03325594905753,2.39200000000356));
#875=CARTESIAN_POINT('',(6.72986008387031,7.03325594905753,0.0740000000001197));
#876=CARTESIAN_POINT('',(7.84483945722218,5.45790805192149,0.0740000000001197));
#877=CARTESIAN_POINT('',(7.84483945722218,5.45790805192149,0.0740000000001197));
#878=CARTESIAN_POINT('',(7.84483945722218,5.45790805192149,2.39200000000356));
#879=CARTESIAN_POINT('',(7.84483945722218,5.45790805192149,2.39200000000356));
#880=CARTESIAN_POINT('',(6.72986008387031,7.03325594905753,2.39200000000356));
#881=CARTESIAN_POINT('',(6.72986008387031,7.03325594905753,2.39200000000356));
#882=CARTESIAN_POINT('',(6.72986008387031,7.03325594905753,0.0740000000001197));
#883=CARTESIAN_POINT('',(0.,0.,0.));
ENDSEC;
END-ISO-10303-21;
