ISO-10303-21;
HEADER;
/* Generated by software containing ST-Developer
 * from STEP Tools, Inc. (www.steptools.com) 
 */
/* OPTION: using custom schema-name function */

FILE_DESCRIPTION(
/* description */ (''),
/* implementation_level */ '2;1');

FILE_NAME(
/* name */ 'Owner-Occupier1_LOD1_STEP',
/* time_stamp */ '2026-04-10T17:26:13+02:00',
/* author */ (''),
/* organization */ (''),
/* preprocessor_version */ 'ST-DEVELOPER v19.2',
/* originating_system */ 'Rhino 8.29',
/* authorisation */ '');

FILE_SCHEMA (('AUTOMOTIVE_DESIGN'));
ENDSEC;

DATA;
#10=SHAPE_REPRESENTATION_RELATIONSHIP('','',#122,#22);
#11=COLOUR_RGB('',1.,0.498039215686275,0.);
#12=FILL_AREA_STYLE_COLOUR('',#11);
#13=FILL_AREA_STYLE('',(#12));
#14=SURFACE_STYLE_FILL_AREA(#13);
#15=SURFACE_SIDE_STYLE('',(#14));
#16=SURFACE_STYLE_USAGE(.BOTH.,#15);
#17=MECHANICAL_DESIGN_GEOMETRIC_PRESENTATION_REPRESENTATION('',(#19),#121);
#18=PRESENTATION_STYLE_ASSIGNMENT((#16));
#19=STYLED_ITEM('',(#18),#21);
#20=PRESENTATION_LAYER_ASSIGNMENT('bldg_lod1_Solid','',(#21));
#21=MANIFOLD_SOLID_BREP('brep_1',#23);
#22=ADVANCED_BREP_SHAPE_REPRESENTATION('brep_rep_0',(#21,#130),#121);
#23=CLOSED_SHELL('',(#24,#25,#26,#27,#28,#29));
#24=ADVANCED_FACE('',(#30),#98,.T.);
#25=ADVANCED_FACE('',(#31),#99,.T.);
#26=ADVANCED_FACE('',(#32),#100,.T.);
#27=ADVANCED_FACE('',(#33),#101,.T.);
#28=ADVANCED_FACE('',(#34),#102,.T.);
#29=ADVANCED_FACE('',(#35),#103,.T.);
#30=FACE_OUTER_BOUND('',#36,.T.);
#31=FACE_OUTER_BOUND('',#37,.T.);
#32=FACE_OUTER_BOUND('',#38,.T.);
#33=FACE_OUTER_BOUND('',#39,.T.);
#34=FACE_OUTER_BOUND('',#40,.T.);
#35=FACE_OUTER_BOUND('',#41,.T.);
#36=EDGE_LOOP('',(#42,#43,#44,#45));
#37=EDGE_LOOP('',(#46,#47,#48,#49));
#38=EDGE_LOOP('',(#50,#51,#52,#53));
#39=EDGE_LOOP('',(#54,#55,#56,#57));
#40=EDGE_LOOP('',(#58,#59,#60,#61));
#41=EDGE_LOOP('',(#62,#63,#64,#65));
#42=ORIENTED_EDGE('',*,*,#69,.F.);
#43=ORIENTED_EDGE('',*,*,#68,.F.);
#44=ORIENTED_EDGE('',*,*,#67,.F.);
#45=ORIENTED_EDGE('',*,*,#66,.F.);
#46=ORIENTED_EDGE('',*,*,#72,.F.);
#47=ORIENTED_EDGE('',*,*,#71,.F.);
#48=ORIENTED_EDGE('',*,*,#70,.F.);
#49=ORIENTED_EDGE('',*,*,#66,.T.);
#50=ORIENTED_EDGE('',*,*,#74,.F.);
#51=ORIENTED_EDGE('',*,*,#73,.F.);
#52=ORIENTED_EDGE('',*,*,#72,.T.);
#53=ORIENTED_EDGE('',*,*,#67,.T.);
#54=ORIENTED_EDGE('',*,*,#76,.F.);
#55=ORIENTED_EDGE('',*,*,#75,.F.);
#56=ORIENTED_EDGE('',*,*,#74,.T.);
#57=ORIENTED_EDGE('',*,*,#68,.T.);
#58=ORIENTED_EDGE('',*,*,#70,.T.);
#59=ORIENTED_EDGE('',*,*,#77,.F.);
#60=ORIENTED_EDGE('',*,*,#76,.T.);
#61=ORIENTED_EDGE('',*,*,#69,.T.);
#62=ORIENTED_EDGE('',*,*,#71,.T.);
#63=ORIENTED_EDGE('',*,*,#73,.T.);
#64=ORIENTED_EDGE('',*,*,#75,.T.);
#65=ORIENTED_EDGE('',*,*,#77,.T.);
#66=EDGE_CURVE('',#90,#91,#78,.T.);
#67=EDGE_CURVE('',#91,#92,#79,.T.);
#68=EDGE_CURVE('',#92,#93,#80,.T.);
#69=EDGE_CURVE('',#93,#90,#81,.T.);
#70=EDGE_CURVE('',#90,#94,#82,.T.);
#71=EDGE_CURVE('',#94,#95,#83,.T.);
#72=EDGE_CURVE('',#95,#91,#84,.T.);
#73=EDGE_CURVE('',#95,#96,#85,.T.);
#74=EDGE_CURVE('',#96,#92,#86,.T.);
#75=EDGE_CURVE('',#96,#97,#87,.T.);
#76=EDGE_CURVE('',#97,#93,#88,.T.);
#77=EDGE_CURVE('',#97,#94,#89,.T.);
#78=B_SPLINE_CURVE_WITH_KNOTS('',1,(#156,#157),.UNSPECIFIED.,.F.,.F.,(2,
2),(0.,8.2329915205591),.UNSPECIFIED.);
#79=B_SPLINE_CURVE_WITH_KNOTS('',1,(#158,#159),.UNSPECIFIED.,.F.,.F.,(2,
2),(0.,13.1930100000196),.UNSPECIFIED.);
#80=B_SPLINE_CURVE_WITH_KNOTS('',1,(#160,#161),.UNSPECIFIED.,.F.,.F.,(2,
2),(0.,8.23299000001221),.UNSPECIFIED.);
#81=B_SPLINE_CURVE_WITH_KNOTS('',1,(#162,#163),.UNSPECIFIED.,.F.,.F.,(2,
2),(0.,13.1930104976064),.UNSPECIFIED.);
#82=B_SPLINE_CURVE_WITH_KNOTS('',1,(#164,#165),.UNSPECIFIED.,.F.,.F.,(2,
2),(0.,9.63810000001432),.UNSPECIFIED.);
#83=B_SPLINE_CURVE_WITH_KNOTS('',1,(#166,#167),.UNSPECIFIED.,.F.,.F.,(2,
2),(0.,8.2329915205591),.UNSPECIFIED.);
#84=B_SPLINE_CURVE_WITH_KNOTS('',1,(#168,#169),.UNSPECIFIED.,.F.,.F.,(2,
2),(-9.63810000001432,0.),.UNSPECIFIED.);
#85=B_SPLINE_CURVE_WITH_KNOTS('',1,(#170,#171),.UNSPECIFIED.,.F.,.F.,(2,
2),(0.,13.1930100000196),.UNSPECIFIED.);
#86=B_SPLINE_CURVE_WITH_KNOTS('',1,(#172,#173),.UNSPECIFIED.,.F.,.F.,(2,
2),(-9.63810000001432,0.),.UNSPECIFIED.);
#87=B_SPLINE_CURVE_WITH_KNOTS('',1,(#174,#175),.UNSPECIFIED.,.F.,.F.,(2,
2),(0.,8.23299000001221),.UNSPECIFIED.);
#88=B_SPLINE_CURVE_WITH_KNOTS('',1,(#176,#177),.UNSPECIFIED.,.F.,.F.,(2,
2),(-9.63810000001432,0.),.UNSPECIFIED.);
#89=B_SPLINE_CURVE_WITH_KNOTS('',1,(#178,#179),.UNSPECIFIED.,.F.,.F.,(2,
2),(0.,13.1930104976064),.UNSPECIFIED.);
#90=VERTEX_POINT('',#148);
#91=VERTEX_POINT('',#149);
#92=VERTEX_POINT('',#150);
#93=VERTEX_POINT('',#151);
#94=VERTEX_POINT('',#152);
#95=VERTEX_POINT('',#153);
#96=VERTEX_POINT('',#154);
#97=VERTEX_POINT('',#155);
#98=PLANE('',#124);
#99=PLANE('',#125);
#100=PLANE('',#126);
#101=PLANE('',#127);
#102=PLANE('',#128);
#103=PLANE('',#129);
#104=SHAPE_DEFINITION_REPRESENTATION(#105,#122);
#105=PRODUCT_DEFINITION_SHAPE($,$,#107);
#106=PRODUCT_DEFINITION_CONTEXT('3D Mechanical Parts',#111,'design');
#107=PRODUCT_DEFINITION('A','First version',#108,#106);
#108=PRODUCT_DEFINITION_FORMATION_WITH_SPECIFIED_SOURCE('A',
'First version',#113,.MADE.);
#109=PRODUCT_RELATED_PRODUCT_CATEGORY('tool','tool',(#113));
#110=APPLICATION_PROTOCOL_DEFINITION('Draft International Standard',
'automotive_design',1999,#111);
#111=APPLICATION_CONTEXT(
'data for automotive mechanical design processes');
#112=PRODUCT_CONTEXT('3D Mechanical Parts',#111,'mechanical');
#113=PRODUCT('Document','Document','',(#112));
#114=(
LENGTH_UNIT()
NAMED_UNIT(*)
SI_UNIT($,.METRE.)
);
#115=(
NAMED_UNIT(*)
PLANE_ANGLE_UNIT()
SI_UNIT($,.RADIAN.)
);
#116=DIMENSIONAL_EXPONENTS(0.,0.,0.,0.,0.,0.,0.);
#117=PLANE_ANGLE_MEASURE_WITH_UNIT(PLANE_ANGLE_MEASURE(0.01745329252),#115);
#118=(
CONVERSION_BASED_UNIT('DEGREES',#117)
NAMED_UNIT(#116)
PLANE_ANGLE_UNIT()
);
#119=(
NAMED_UNIT(*)
SI_UNIT($,.STERADIAN.)
SOLID_ANGLE_UNIT()
);
#120=UNCERTAINTY_MEASURE_WITH_UNIT(LENGTH_MEASURE(0.01),#114,
'DISTANCE_ACCURACY_VALUE',
'Maximum model space distance between geometric entities at asserted c
onnectivities');
#121=(
GEOMETRIC_REPRESENTATION_CONTEXT(3)
GLOBAL_UNCERTAINTY_ASSIGNED_CONTEXT((#120))
GLOBAL_UNIT_ASSIGNED_CONTEXT((#119,#118,#114))
REPRESENTATION_CONTEXT('ID1','3D')
);
#122=SHAPE_REPRESENTATION('Document',(#123,#130),#121);
#123=AXIS2_PLACEMENT_3D($,#141,#131,#132);
#124=AXIS2_PLACEMENT_3D('',#142,#133,$);
#125=AXIS2_PLACEMENT_3D('',#143,#134,$);
#126=AXIS2_PLACEMENT_3D('',#144,#135,$);
#127=AXIS2_PLACEMENT_3D('',#145,#136,$);
#128=AXIS2_PLACEMENT_3D('',#146,#137,$);
#129=AXIS2_PLACEMENT_3D('',#147,#138,$);
#130=AXIS2_PLACEMENT_3D($,#180,#139,#140);
#131=DIRECTION('',(0.,0.,1.));
#132=DIRECTION('',(1.,0.,0.));
#133=DIRECTION('',(0.,0.,-1.));
#134=DIRECTION('',(0.577709569202741,-0.816242398832347,4.71471883114112E-17));
#135=DIRECTION('',(0.816242433748034,0.577709519870572,0.));
#136=DIRECTION('',(-0.577709519870563,0.81624243374804,-9.06211143623148E-17));
#137=DIRECTION('',(-0.816242500331346,-0.577709425795384,0.));
#138=DIRECTION('',(0.,0.,1.));
#139=DIRECTION('',(0.,0.,1.));
#140=DIRECTION('',(1.,0.,0.));
#141=CARTESIAN_POINT('',(0.,0.,0.));
#142=CARTESIAN_POINT('',(3.37827197906135,11.7686953653982,-0.49199999999994));
#143=CARTESIAN_POINT('',(17.7201157946332,5.75627670000621,-0.49199999999994));
#144=CARTESIAN_POINT('',(10.0983883218742,16.5249712908844,-0.49199999999994));
#145=CARTESIAN_POINT('',(3.37827252724099,11.7686945908782,-0.49199999999994));
#146=CARTESIAN_POINT('',(10.9999990463257,0.999998715414195,-0.49199999999994));
#147=CARTESIAN_POINT('',(3.37827197906135,11.7686953653982,9.14610000001437));
#148=CARTESIAN_POINT('',(10.9999990463257,0.999998715414195,-0.49199999999994));
#149=CARTESIAN_POINT('',(17.7201157946332,5.75627670000621,-0.49199999999994));
#150=CARTESIAN_POINT('',(10.0983883218742,16.5249712908844,-0.49199999999994));
#151=CARTESIAN_POINT('',(3.37827252724099,11.7686945908782,-0.49199999999994));
#152=CARTESIAN_POINT('',(10.9999990463257,0.999998715414195,9.14610000001437));
#153=CARTESIAN_POINT('',(17.7201157946332,5.75627670000621,9.14610000001437));
#154=CARTESIAN_POINT('',(10.0983883218742,16.5249712908844,9.14610000001437));
#155=CARTESIAN_POINT('',(3.37827252724099,11.7686945908782,9.14610000001437));
#156=CARTESIAN_POINT('',(10.9999990463257,0.999998715414195,-0.49199999999994));
#157=CARTESIAN_POINT('',(17.7201157946332,5.75627670000621,-0.49199999999994));
#158=CARTESIAN_POINT('',(17.7201157946332,5.75627670000621,-0.49199999999994));
#159=CARTESIAN_POINT('',(10.0983883218742,16.5249712908844,-0.49199999999994));
#160=CARTESIAN_POINT('',(10.0983883218742,16.5249712908844,-0.49199999999994));
#161=CARTESIAN_POINT('',(3.37827252724099,11.7686945908782,-0.49199999999994));
#162=CARTESIAN_POINT('',(3.37827252724099,11.7686945908782,-0.49199999999994));
#163=CARTESIAN_POINT('',(10.9999990463257,0.999998715414195,-0.49199999999994));
#164=CARTESIAN_POINT('',(10.9999990463257,0.999998715414195,-0.49199999999994));
#165=CARTESIAN_POINT('',(10.9999990463257,0.999998715414195,9.14610000001437));
#166=CARTESIAN_POINT('',(10.9999990463257,0.999998715414195,9.14610000001437));
#167=CARTESIAN_POINT('',(17.7201157946332,5.75627670000621,9.14610000001437));
#168=CARTESIAN_POINT('',(17.7201157946332,5.75627670000621,9.14610000001437));
#169=CARTESIAN_POINT('',(17.7201157946332,5.75627670000621,-0.49199999999994));
#170=CARTESIAN_POINT('',(17.7201157946332,5.75627670000621,9.14610000001437));
#171=CARTESIAN_POINT('',(10.0983883218742,16.5249712908844,9.14610000001437));
#172=CARTESIAN_POINT('',(10.0983883218742,16.5249712908844,9.14610000001437));
#173=CARTESIAN_POINT('',(10.0983883218742,16.5249712908844,-0.49199999999994));
#174=CARTESIAN_POINT('',(10.0983883218742,16.5249712908844,9.14610000001437));
#175=CARTESIAN_POINT('',(3.37827252724099,11.7686945908782,9.14610000001437));
#176=CARTESIAN_POINT('',(3.37827252724099,11.7686945908782,9.14610000001437));
#177=CARTESIAN_POINT('',(3.37827252724099,11.7686945908782,-0.49199999999994));
#178=CARTESIAN_POINT('',(3.37827252724099,11.7686945908782,9.14610000001437));
#179=CARTESIAN_POINT('',(10.9999990463257,0.999998715414195,9.14610000001437));
#180=CARTESIAN_POINT('',(0.,0.,0.));
ENDSEC;
END-ISO-10303-21;
